<svg enable-background="new 0 0 1073.1 737.4" viewBox="0 0 1073.1 737.4" xmlns="http://www.w3.org/2000/svg"><path d="m1070.7 615c-.2 2.9-.3 5.1-1.2 7.6-1.3 3.5-3.6 7.5-8 9.8-95.7 52.1-272.6 99.8-505.9 103.3-249.6 3.8-440.8-54.2-540.8-102.5-6.7-3.2-8.7-9.1-9.5-17.8l-3.8-40.7 39.2-203.4c1.2-8.4 8.5-14.7 17-14.6l962.4 5.5c8.4 0 15.4 6.1 16.8 14.4l34.7 195.9z" fill="#999" stroke="#000" stroke-miterlimit="10" stroke-width="3"/><path d="m1071.4 569.6c.1.3.1.7.1 1.1.5 7.4-2.8 14.3-9.4 17.5-97.8 47.8-276.5 118.6-509.7 122.2-243.3 3.7-431.1-67.5-533-115.8-11.4-5.4-17.9-17.6-16.1-30l32.7-225.7c2-14.1 14.2-24.6 28.5-24.5 137.4.8 327 1.2 399.2 2.3h4.9c1.7 0 3.4-.4 5-1.1 38-11.9 85.6-12.3 130 1.9.2.1 5.9 0 6.5 0 0 0 374.9-.4 406.7 2.3 1.7.1 6.9.6 11 4.1 3 2.6 5.1 6.1 5.8 10.3z" fill="#ccc" stroke="#000" stroke-miterlimit="10" stroke-width="3"/><path d="m797 350.5h-35.9c-1.8 0-3.6-1.4-3.9-3.2l-2.2-12.2c-.3-1.8.9-3.2 2.8-3.2h35.9c1.8 0 3.6 1.4 3.9 3.2l2.2 12.2c.3 1.8-.9 3.2-2.8 3.2z" fill="#4d4d4d" stroke="#000" stroke-miterlimit="10"/><path d="m771.5 357.1v6.5h-.5v-4.4-1.8c-.3.6-.6 1.2-.8 1.7l-2.2 4.4h-.6l-2.2-4.4c-.3-.6-.6-1.2-.8-1.7h-.1v1.8 4.4h-.5v-6.5h.8l2.2 4.4c.3.5.6 1.1.8 1.8h.1c.3-.7.6-1.3.8-1.8l2.2-4.4z" stroke="#000" stroke-miterlimit="10"/><path d="m776.6 357c1 0 1.8.3 2.4 1 .6.6.8 1.4.8 2.3 0 1.1-.4 2-1.1 2.6-.6.5-1.3.8-2.2.8-1 0-1.8-.3-2.5-1-.6-.6-.8-1.4-.8-2.4 0-1.1.4-2 1.1-2.6.7-.4 1.5-.7 2.3-.7zm0 .4c-.9 0-1.6.3-2.1.9-.5.5-.7 1.2-.7 2.1 0 1 .3 1.8.9 2.3.5.5 1.1.7 1.9.7.9 0 1.6-.3 2.1-.9.5-.5.7-1.2.7-2.1 0-1-.3-1.8-.9-2.3-.5-.5-1.1-.7-1.9-.7z" stroke="#000" stroke-miterlimit="10"/><path d="m781.7 357.1h2.3c1.3 0 2.3.3 3 .9.6.5.9 1.3.9 2.3 0 1.1-.4 2-1.3 2.5-.7.5-1.6.7-2.8.7h-2.2zm.5.4v5.8h1.7c1.2 0 2.1-.3 2.7-.8s.9-1.2.9-2.1c0-1.9-1.2-2.9-3.5-2.9z" stroke="#000" stroke-miterlimit="10"/><path d="m794.7 357.1v.3h-4.5v2.5h3.4v.3h-3.4v3h4.5v.3h-5v-6.5z" stroke="#000" stroke-miterlimit="10"/><path d="m321.7 349-.5.1c-.4-.8-1.1-1.2-2.1-1.2-.6 0-1.2.1-1.5.4-.3.2-.5.5-.5.9s.2.7.5 1c.3.2.8.3 1.4.5h.3c1 .2 1.8.5 2.1.8.3.2.4.6.4 1.1 0 .6-.3 1-.8 1.3s-1.1.4-1.9.4-1.4-.1-1.9-.5c-.4-.3-.8-.6-1-1.1l.5-.1c.2.5.5.9 1 1.1.4.2.9.3 1.4.3.8 0 1.4-.1 1.8-.5.3-.2.5-.6.5-1s-.2-.8-.5-1-.9-.4-1.6-.5h-.2c-.9-.2-1.6-.4-1.9-.7-.3-.2-.4-.6-.4-1 0-.5.2-.9.7-1.2s1-.5 1.8-.5c1 0 1.9.5 2.4 1.4z" stroke="#000" stroke-miterlimit="10"/><path d="m328.7 347.7v.3h-2.7v6.1h-.5v-6.1h-2.7v-.3z" stroke="#000" stroke-miterlimit="10"/><path d="m332.5 347.7 2.8 6.5h-.5l-1-2.2h-3.3l-1 2.2h-.5l2.8-6.5zm1.2 3.9-.8-1.8c-.2-.5-.5-1.1-.7-1.8h-.1c-.2.5-.4 1.1-.7 1.8l-.8 1.9h3.1z" stroke="#000" stroke-miterlimit="10"/><path d="m336.8 347.7h2.6c1 0 1.7.2 2.2.5.4.3.6.6.6 1.1 0 .4-.2.8-.5 1.1s-.8.4-1.3.5l2.1 3.2h-.5l-2-3.2c-.2 0-.4 0-.5 0h-2v3.2h-.5zm.4.3v2.7h2c1.6 0 2.4-.5 2.4-1.4 0-.5-.2-.8-.6-1s-.9-.3-1.7-.3z" stroke="#000" stroke-miterlimit="10"/><path d="m349 347.7v.3h-2.8v6.1h-.5v-6.1h-2.7v-.3z" stroke="#000" stroke-miterlimit="10"/><path d="m320 330.5-2.9 9.2c-.3.7.4 1.5 1.1 1.4l31.2-3.5c1.1-.2 2-2.4.4-3.3l-28.6-4.4c-.4-.2-1 .1-1.2.6z" fill="#455e7d" stroke="#000" stroke-miterlimit="10"/><path d="m293.3 340.8h-24.8c-1 0-1.7-.9-1.4-1.8l3-8.6c.2-.6.7-.9 1.4-.9h24.8c1 0 1.7.9 1.4 1.8l-3 8.6c-.2.5-.8.9-1.4.9z" fill="#455e7d" stroke="#000" stroke-miterlimit="10"/><path d="m266.5 349-.5.1c-.4-.8-1.1-1.2-2.1-1.2-.6 0-1.2.1-1.5.4-.3.2-.5.5-.5.9s.2.7.5 1c.3.2.8.3 1.4.5h.3c1 .2 1.8.5 2.1.8.3.2.4.6.4 1.1 0 .6-.3 1-.8 1.3s-1.1.4-1.9.4-1.4-.1-1.9-.5c-.4-.3-.8-.6-1-1.1l.5-.1c.2.5.5.9 1 1.1.4.2.9.3 1.4.3.8 0 1.4-.1 1.8-.5.3-.2.5-.6.5-1s-.2-.8-.5-1-.9-.4-1.6-.5h-.2c-.9-.2-1.6-.4-1.9-.7-.3-.2-.4-.6-.4-1 0-.5.2-.9.7-1.2s1-.5 1.8-.5c1 0 1.9.5 2.4 1.4z" stroke="#000" stroke-miterlimit="10"/><path d="m273.4 347.7v.3h-4.5v2.5h3.4v.3h-3.4v3h4.5v.3h-5v-6.5z" stroke="#000" stroke-miterlimit="10"/><path d="m275.5 347.7v6.1h4.4v.3h-4.9v-6.5z" stroke="#000" stroke-miterlimit="10"/><path d="m286.3 347.7v.3h-4.5v2.5h3.4v.3h-3.4v3h4.5v.3h-5v-6.5z" stroke="#000" stroke-miterlimit="10"/><path d="m293.6 349.3-.5.1c-.4-1-1.1-1.5-2.4-1.5-.9 0-1.6.3-2.1.9-.5.5-.7 1.2-.7 2.1 0 1 .3 1.8.9 2.3.5.5 1.1.7 1.9.7 1.3 0 2.1-.5 2.4-1.6l.5.2c-.5 1.1-1.5 1.7-2.9 1.7-1 0-1.8-.3-2.5-1-.6-.6-.9-1.4-.9-2.4 0-1.1.4-2 1.1-2.6.6-.5 1.3-.8 2.2-.8.7 0 1.4.2 1.9.5.5.5.9.9 1.1 1.4z" stroke="#000" stroke-miterlimit="10"/><path d="m300.4 347.7v.3h-2.8v6.1h-.5v-6.1h-2.7v-.3z" stroke="#000" stroke-miterlimit="10"/><path d="m454.5 316.5 153.5 1.1" fill="none" stroke="#000" stroke-linecap="round" stroke-linejoin="round" stroke-width="3"/><ellipse cx="402.8" cy="390.1" fill="#455e7d" rx="33.6" ry="28.4" stroke="#000" stroke-miterlimit="10" stroke-width="3"/><ellipse cx="400.7" cy="465.2" fill="#455e7d" rx="33.6" ry="28.4" stroke="#000" stroke-miterlimit="10" stroke-width="3"/><ellipse cx="670.3" cy="390.1" fill="#455e7d" rx="33.6" ry="28.4" stroke="#000" stroke-miterlimit="10" stroke-width="3"/><ellipse cx="672.4" cy="465.2" fill="#455e7d" rx="33.6" ry="28.4" stroke="#000" stroke-miterlimit="10" stroke-width="3"/><path d="m385.4 450.7h4.7v17h8.2v3.9h-12.9z" fill="#fff"/><path d="m400.7 469c5.2-4.9 8.8-8.3 8.8-11.2 0-2-1.1-3.1-2.9-3.1-1.4 0-2.6 1-3.7 2.1l-2.5-2.5c2-2.2 3.9-3.2 6.8-3.2 4 0 6.7 2.5 6.7 6.5 0 3.5-3.2 7.1-6.6 10.5 1-.1 2.4-.2 3.4-.2h4.1v3.9h-14.3z" fill="#fff"/><path d="m656.9 450.8h7.5c4.4 0 8.1 1.5 8.1 6.5s-3.7 6.8-8.1 6.8h-2.8v7.5h-4.7zm7.2 9.6c2.5 0 3.8-1 3.8-3.1s-1.3-2.7-3.8-2.7h-2.4v5.9zm-.5 2.5 3.3-3 6.6 11.8h-5.2z" fill="#fff"/><path d="m675.3 469c5.2-4.9 8.8-8.3 8.8-11.2 0-2-1.1-3.1-2.9-3.1-1.4 0-2.6 1-3.7 2.1l-2.5-2.5c2-2.2 3.9-3.2 6.8-3.2 4 0 6.7 2.5 6.7 6.5 0 3.5-3.2 7.1-6.6 10.5 1-.1 2.4-.2 3.4-.2h4.1v3.9h-14.2v-2.8z" fill="#fff"/><path d="m654.1 375.7h7.5c4.4 0 8.1 1.5 8.1 6.5s-3.7 6.8-8.1 6.8h-2.8v7.5h-4.7zm7.2 9.6c2.5 0 3.8-1 3.8-3.1s-1.3-2.7-3.8-2.7h-2.4v5.9zm-.5 2.5 3.3-3 6.6 11.8h-5.2z" fill="#fff"/><path d="m673.6 392.8h4.5v-11.8h-3.8v-2.9c2.2-.4 3.7-.9 5.1-1.9h3.5v16.6h3.8v3.8h-12.9z" fill="#fff"/><path d="m388.1 375.7h4.7v16.9h8.2v3.9h-12.9z" fill="#fff"/><path d="m404.5 392.8h4.5v-11.8h-3.8v-2.9c2.2-.4 3.7-.9 5.1-1.9h3.5v16.6h3.8v3.8h-13v-3.8z" fill="#fff"/><ellipse cx="583.5" cy="450.2" fill="#455e7d" rx="33.6" ry="28.4" stroke="#000" stroke-miterlimit="10" stroke-width="3"/><ellipse cx="489.6" cy="450.2" fill="#455e7d" rx="33.6" ry="28.4" stroke="#000" stroke-miterlimit="10" stroke-width="3"/><ellipse cx="491.7" cy="375" fill="#455e7d" rx="33.6" ry="28.4" stroke="#000" stroke-miterlimit="10" stroke-width="3"/><ellipse cx="581.4" cy="375" fill="#455e7d" rx="33.6" ry="28.4" stroke="#000" stroke-miterlimit="10" stroke-width="3"/><path d="m501.2 435.8-23.8 23.8" fill="none" stroke="#fff" stroke-linecap="round" stroke-linejoin="round" stroke-width="5"/><path d="m477.4 435.8 23.8 23.8" fill="none" stroke="#fff" stroke-linecap="round" stroke-linejoin="round" stroke-width="5"/><circle cx="583.7" cy="449.4" fill="none" r="16.3" stroke="#fff" stroke-linecap="round" stroke-linejoin="round" stroke-width="5"/><path d="m582.1 357.6 13.5 26.9h-26.9z" fill="none" stroke="#fff" stroke-linecap="round" stroke-linejoin="round" stroke-width="5"/><path d="m478.8 360.9h25.8v25.8h-25.8z" fill="none" stroke="#fff" stroke-linecap="round" stroke-linejoin="round" stroke-width="5"/><path d="m842.8 377.4 22.4.1c1.5 0 2.6-1.3 2.4-2.7l-1.7-14.1c0-1.4 1-2.6 2.4-2.9l100.4 1.6c1.8-.3 3.4 1.1 3.4 2.9l2.1 15.6 24 .1c1.4 0 2.6 1 2.9 2.4l10.5 64.5c.3 1.8-1.1 3.4-2.9 3.4h-22.2c-1.5 0-2.8 1.4-2.5 2.9l1.9 14.2c0 1.5-1.1 2.7-2.6 2.9l-101.8-.9c-1.7.2-3.2-1.2-3.2-2.9l-1.6-13.6c-.2-1.4-1.4-2.5-2.8-2.5h-24.5c-1.5 0-2.7-1.1-2.9-2.6l-6.5-65.2c-.3-1.7 1.1-3.2 2.8-3.2z" fill="none" stroke="#666" stroke-miterlimit="10"/><path d="m988.9 422.5 10.8-9.2c.3-.3.3-.8 0-1l-12.8-10.2c-.2-.2-.6 0-.6.3l2 19.9c0 .3.4.4.6.2z" fill="none" stroke="#666" stroke-miterlimit="10"/><path d="m944.3 454.8-27.4.4c-.3 0-.4.4-.2.6l14.2 9.3c.1.1.3.1.4 0l13.1-9.7c.4-.2.3-.6-.1-.6z" fill="none" stroke="#666" stroke-miterlimit="10"/><path d="m860.9 402.4-10.8 9.2c-.3.3-.3.8 0 1l12.8 10.2c.2.2.6 0 .6-.3l-2-19.9c-.1-.3-.4-.4-.6-.2z" fill="none" stroke="#666" stroke-miterlimit="10"/><path d="m979.5 424.7 3.1 10c1.3 5.6.1 8.4-2.6 10.4-1 .8-2.3 1.4-4 1.7-6.4 1.1-90.4.4-90.4.4s-8.8 0-10.4-6.8c-1.5-6.8-6.4-56.4-6.4-56.4s0-1.1 4.1-2.6c5.9-2.2 106.6 43.3 106.6 43.3z" fill="none" stroke="#b3b3b3" stroke-miterlimit="10" stroke-width="5"/><path d="m983.5 412.4.8 25.6s-1.2 6.1-8.7 6.4-89.6.5-89.6.5-9.6 1.6-10.4-7.7c-.6-7.6-5.9-53.2-5.9-53.2l2.4-25.2 71.3-14.4z" fill="#808080" stroke="#000" stroke-miterlimit="10" stroke-width="2"/><path d="m955 386.2-7.5-26.7 10.8-1 4.3 23.9-.1 9.9-2.9 5-5.6-1.4c.2-.8.6-1.6.8-3.2.3-3.3.2-4.5.2-6.5z" fill="#4d4d4d"/><path d="m973.8 419.2c1.1.6 2.5.7 3.6 1.2l4.5-6.9-7.1-57.3-5.9-1.3 1.3 15.6 3.6 20.3 1.6 8.6c-.1 2.5.4 9.5.4 10.7 0 2.9 0 4.5-.7 6.4-.4 1-1 2.2-1.3 2.7z" fill="#4d4d4d"/><path d="m965.2 386.9c-2.3-10.6-4.2-18.9-6.5-29.6l7-.6 5.3 21.3 1.4 28-3.4 4.4c-2.5-.7-5.1-1-7.6-1.7.6-.4 1.4-1.6 2.1-2.7 1-1.6 1.2-3.2 1.4-4.2.6-5 .3-14 .3-14.9z" fill="#4d4d4d"/><path d="m883.8 371.5 2.5 27.5c-1.5 2.2-2.4 3.7-3.9 5.9.2 1.5 0 4.5.3 7.6.3 2.4.5 3.7.8 5 .7 2.2 1.6 4 2.3 5-1.7-1-3.5-2-5.2-3l-6.9-63.9 7.2-1.4z" fill="#4d4d4d"/><path d="m891.5 354.9c-.3 11.1-.1 14-.4 25 .1 4.6.5 16.2.8 18.6s.5 4.2 1.5 6.4c1 2 2.4 3.5 3.3 4.4-3.6-.1-7.2-.2-10.9-.3l-.9-3.6-.7-10-.9-21-3.2-19z" fill="#4d4d4d"/><path d="m899.5 353.6-7.2 2.2 3.1 38.4 6 2.1c-.3-.9-.7-1.8-1-2.8-.4-1.6-.8-3.1-1-6.8-.2-10.9 0-22.1.1-33.1" fill="#4d4d4d"/><g stroke-miterlimit="10"><path d="m878.9 353.4 92.2 1.2c2.5 0 4.7 1.9 5.1 4.4 1.1 8.3.7 15.4 2.2 25.6 1.5 9.7 2.4 18 4 27.3.1.5.4 3.5-1.9 6.6-1.7 2-3.2 2.7-6.1 2.7-14.1-.9-29.1-1.3-45-1.1-16.2.2-31.5 1-45.8 2.1-.9 0-2.3-.2-3.5-1.2-.9-.8-1.5-1.9-1.5-3.3.4-10.1.1-21.8-1.5-34.6-1-8.3-2.5-15.9-4.1-22.7-.4-1.8.1-3.7 1.5-4.9.4-.3.8-.7 1.3-1 1-.8 2-1.1 3.1-1.1z" fill="none" stroke="#b3b3b3" stroke-width="4"/><path d="m959 397.4-56.1.5c-5.6 0-8.6-2.9-9.4-8.8l-1.4-31.4c-.2-1.8 1.3-3.4 3.2-3.4l63.7 4.4c2 6.2 3.9 14.2 4.3 23.5.2 3.8.1 7.4-.2 10.6 0 .5-.3 1.9-1.5 3.2-1.1 1-2.1 1.3-2.6 1.4z" fill="none" stroke="#b3b3b3" stroke-width="4"/><path d="m890.7 410.6h77c3.4-.1 6-3.1 5.7-6.5.2-5.5-.3-14.5-1-21.4-.8-8.4-2.4-15.7-4-21.9 0-.3-.7-1.8-1.2-2.5s-2.1-1.8-3.1-1.8l-78.7-3c-2.1 0-5.3 1.1-4.7 4.8 1 5.8 2.5 12.9 3.1 19.7 1 9.9 1.1 19 .7 27-.2 2.4 1.1 5.5 6.2 5.6z" fill="none" stroke="#b3b3b3" stroke-width="4"/><path d="m907 391.1 41.5-.4c2.7 0 4.7-2.3 4.5-5l-2.4-23-50.2-5.6 1.1 28.7c.1 3 2.6 5.4 5.5 5.3z" fill="#4d4d4d" stroke="#b3b3b3" stroke-width="4"/><path d="m908.9 364.9c0 5.3 5.8 13.9 18.4 13.9 13.5 0 19.8-8.5 19.8-13.7s-10.7-9.5-19.8-9.5c-9.3 0-18.4 4.1-18.4 9.3z" fill="#999" stroke="#000" stroke-width="2"/><path d="m992.4 291.7c-.8.1-1.4-.5-1.4-1.3.7-15.3 2.8-126-5.7-155.5-7.6-26.8 9.8-45.3 11.5-47 .1-.1.2-.2.3-.3 1.5-1.6 13-14.5 15.8-21 2.6-6 2.3-40.9 2.2-50.1 0-1.7-.4-3.4-1.2-4.9-1.8-3.4-5.5-9-11.8-9.9-7.6-1.1-92 2.4-118.9 3.5-5.8.2-11.5 2.1-16.4 5.2-13.6 8.8-41.3 29.7-61.8 64.6-.1.1-.1.2-.1.3-.5 2.1-4.5 22.6 8.2 43.1 13.4 21.6 32 13.4 32 13.4l34.6-14.3c.5-.2 10-4.8 16.2-.6.5.3.7.9.5 1.4-1.8 5.6-11.9 39.8-10.3 110 0 2.1-.7 4.2-2.2 5.8l-16.2 17.6c-1 1.1-1.6 2.4-1.8 3.9-.7 5.6-1.7 20.9 2.9 41 .3 1.1.7 2.2 1.3 3.2l9.2 15.8c.8 1.4 1.4 2.9 1.7 4.5l4.2 22.3c.4 2.2 1.3 4.2 2.6 6 2.5 3.4 7.7 8.6 17.3 13.4.5.2 21.9 9.5 49.7.9 11.3-3.5 17-7.8 18.3-8.8.2-.2.4-.2.7-.3 5-.2 56.9-3 61-36.7 0 0 3.9-18.2-15.1-24.2.2 0-5.2-3.3-27.3-1z" fill="#ccc" stroke="#000" stroke-width="3"/><path d="m966.4 338.3s16.9-14.6 21.5-94.1-10-96.9-10-96.9-8.6-13.8-32.7 5.7c0 0-40.5 25.9-44.8 87.3 0 0-1.1 17.1-1 30.4.1 6.8 1.6 13.4 4.4 19.5 3.7 8.1 9.6 23.6 13 46.6.5 3.7 2.2 7.2 4.9 9.9 2.5 2.5 6.1 4.9 10.9 5.3 4 .3 6.9.3 9.7-.1 7.7-1.1 13.1-4.2 14.5-5.1 4.3-2.8 7.6-6.1 9.6-8.5z" fill="#999" stroke="#000"/><path d="m959.1 339.2-33.6.8c-.6 0-1 .6-.8 1.1 1.1 2.6 4.9 8.6 16.1 8.4 10.7-.2 17.2-6.3 19-8.9.5-.6-0-1.4-.7-1.4z" fill="#666" stroke="#000"/><path d="m968.4 320.8c-5 1.9-21.8 6.9-46.1 2.5-.4-.1-.7.2-.7.6.2 1.5.7 3.3 1.5 6.2.2.9.9 1.5 1.7 1.8 4.6 1.2 24.6 4 39.6-1.2.8-.3 1.4-.9 1.7-1.6l3.2-7.3c.3-.6-.3-1.2-.9-1z" fill="#666" stroke="#000"/><path d="m974.6 300c-4.8 3-21 10.4-57 3.7-.5-.1-1 .4-.8.9.3 1.4.8 3.8 1.3 5.7s1.9 3.3 3.8 3.6c9.2 1.6 36.8 4.5 51-4.4.6-.4 1.1-1 1.3-1.8.5-1.8 1-4.7 1.6-6.9 0-.7-.7-1.2-1.2-.8z" fill="#666" stroke="#000"/><path d="m977.9 277.9c-5.3 2.8-30.4 14.2-70 2.1-.5-.1-1 .2-.9.7l1.2 8.3c.1 1 .8 1.7 1.7 2 7.8 2.4 44.2 12.5 67.3-2.4.8-.5 1.4-1.5 1.4-2.5l.2-7.6c.1-.5-.4-.9-.9-.6z" fill="#666" stroke="#000"/><path d="m980.3 255.2c-5.7 3-33.1 15.8-72 2-.5-.2-.9.1-1 .6l.2 10c0 .3.2.6.4.7 4.5 1.9 40.2 15.4 72.5-2.5.3-.2.6-.6.6-1l.3-9.2c.1-.5-.5-.9-1-.6z" fill="#666" stroke="#000"/><path d="m981.2 230.8c-5.9 3.8-31.1 17.4-70.4 4.1-.5-.2-1 .2-1.1.7l-.9 8.2c0 .4.2.7.5.8 4.7 2.2 39.7 17.5 72.4-2.5.2-.1.4-.4.4-.7l.3-9.9c.1-.6-.6-1-1.2-.7z" fill="#666" stroke="#000"/><path d="m982.4 205.8c-4.2 3-25 15.7-65.7 5.1-.7-.2-1.4.2-1.6.9l-1.9 8.6c-.2.7.2 1.4.9 1.7 6.9 2.6 44 12.7 68.7-4.5.6-.4.8-1.1.8-1.8l-.4-9.6c0-.4-.4-.6-.8-.4z" fill="#666" stroke="#000"/><path d="m979.5 181c.5-.3 1.2-.1 1.3.5.4 2.3 1.2 7.1.7 9.4-.6 3.1-9.5 6.3-9.5 6.3s-23.2 8.8-47-.1c-.7-.2-1-1-.8-1.7l3.3-9.1c.3-.7 1-1.1 1.7-.9 6.3 1.5 33.6 6.8 50.3-4.4z" fill="#666" stroke="#000"/><path d="m976.3 165.4c-3 2.2-13.2 8.1-31.9 5.1-.8-.1-1.1-1.1-.5-1.6l11.9-10.6c2.9-.4 6-.9 9.3-1.7 2.7-.6 5.1-1.4 7.4-2.1.3-.1.7-.1 1.1 0 .5.2 1 .4 1.1.7.5 1.2 1.3 3.7 2.3 8.4.2.6-.1 1.4-.7 1.8z" fill="#666" stroke="#000"/><path d="m1012.2 26.9s-.8-7.6-8.8-8.8c-7.1-1.1-42.5 1-50 1.5-.9.1-1.8-.1-2.6-.5l-4.2-2c-.9-.4-1.8-.6-2.8-.5l-56.6 4.7c-.4 0-.7.1-1.1.2-3.6 1.1-22.9 9.1-63.4 62.3-3.9 5.1-6.5 11.1-7.7 17.4l-1.6 9" fill="none" stroke="#000"/><path d="m893.5 207.8.4 58.9c0 6.5-3.6 12.5-9.4 15.6l-9.5 4.9s-2.7 2-3.4 5.1" fill="none" stroke="#000"/><path d="m991 290.2-1.2 32.8s-.3 16.4-16.2 30.6" fill="none" stroke="#000"/><path d="m907.8 131.1c-1.4-2.8-3-7.7-7.3-11.2-1.8-1.4-3.5-2.5-5.1-3.3" fill="none" stroke="#000"/><path d="m945.4 16.5.7 107.3c0 4.3-3.4 7.8-7.7 7.8l-23.7.3" fill="none" stroke="#000"/><circle cx="909.2" cy="63.4" fill="#455e7d" r="29.1" stroke="#000" stroke-width="2"/><circle cx="909.2" cy="63.4" fill="#455e7d" r="23" stroke="#000" stroke-width="2"/><circle cx="909.2" cy="63.4" fill="#455e7d" r="17.2" stroke="#000" stroke-width="2"/><circle cx="909.2" cy="63.4" fill="#455e7d" r="11" stroke="#000" stroke-width="2"/><circle cx="909.2" cy="63.4" fill="#455e7d" r="6" stroke="#000" stroke-width="2"/><circle cx="973.9" cy="67.8" fill="#455e7d" r="18" stroke="#000" stroke-width="2"/></g><circle cx="973.8" cy="67.4" fill="none" r="9.6" stroke="#82a7d0" stroke-linecap="round" stroke-linejoin="round" stroke-width="5"/><circle cx="857.8" cy="88.5" fill="#455e7d" r="18" stroke="#000" stroke-miterlimit="10" stroke-width="2"/><path d="m865.3 81.5-14 14" fill="none" stroke="#82a7d0" stroke-linecap="round" stroke-linejoin="round" stroke-width="5"/><path d="m851.2 81.5 14 14" fill="none" stroke="#82a7d0" stroke-linecap="round" stroke-linejoin="round" stroke-width="5"/><path d="m236.7 377.4-22.4.1c-1.5 0-2.6-1.3-2.4-2.7l1.7-14.1c0-1.4-1-2.6-2.4-2.9l-100.4 1.6c-1.8-.3-3.4 1.1-3.4 2.9l-2.1 15.6-24 .1c-1.4 0-2.6 1-2.9 2.4l-10.5 64.6c-.3 1.8 1.1 3.4 2.9 3.4h22.2c1.6 0 2.8 1.4 2.5 2.9l-1.9 14.2c0 1.5 1.1 2.7 2.6 2.9l101.8-.9c1.7.2 3.2-1.2 3.2-2.9l1.6-13.6c.2-1.4 1.4-2.5 2.8-2.5h24.5c1.5 0 2.7-1.1 2.9-2.6l6.6-65.2c.1-1.8-1.2-3.3-2.9-3.3z" fill="none" stroke="#666" stroke-miterlimit="10"/><path d="m90.6 422.5-10.8-9.2c-.3-.3-.3-.8 0-1l12.8-10.2c.2-.2.6 0 .6.3l-2 19.9c-.1.3-.4.4-.6.2z" fill="none" stroke="#666" stroke-miterlimit="10"/><path d="m135.1 454.8 27.4.4c.3 0 .4.4.2.6l-14.2 9.3c-.1.1-.3.1-.4 0l-13.1-9.7c-.3-.2-.2-.6.1-.6z" fill="none" stroke="#666" stroke-miterlimit="10"/><path d="m218.6 402.4 10.8 9.2c.3.3.3.8 0 1l-12.8 10.2c-.2.2-.6 0-.6-.3l2-19.9c0-.3.3-.4.6-.2z" fill="none" stroke="#666" stroke-miterlimit="10"/><path d="m99.9 424.7-3.1 10c-1.3 5.6-.1 8.4 2.6 10.4 1 .8 2.3 1.4 4 1.7 6.4 1.1 90.4.4 90.4.4s8.8 0 10.4-6.8 6.4-56.4 6.4-56.4 0-1.1-4.1-2.6c-5.9-2.2-106.6 43.3-106.6 43.3z" fill="none" stroke="#b3b3b3" stroke-miterlimit="10" stroke-width="5"/><path d="m96 412.8-.8 25.2s1.2 6.1 8.7 6.4 89.6.5 89.6.5 9.6 1.6 10.4-7.7c.6-7.6 5.9-53.2 5.9-53.2l-2.4-25.3-71.4-14.3z" fill="#808080" stroke="#000" stroke-miterlimit="10" stroke-width="2"/><path d="m124.4 386.2 7.5-26.7-10.8-1-4.3 23.9.1 9.9 2.9 5 5.6-1.4c-.2-.8-.6-1.6-.8-3.2-.3-3.3-.2-4.5-.2-6.5z" fill="#4d4d4d"/><path d="m105.7 419.2c-1.1.6-2.5.7-3.6 1.2l-4.5-6.9 7.1-57.3 5.9-1.3-1.3 15.6-3.6 20.3-1.6 8.6c.1 2.5-.4 9.5-.4 10.7 0 2.9 0 4.5.7 6.4.3 1 .9 2.2 1.3 2.7z" fill="#4d4d4d"/><path d="m114.2 386.9c2.3-10.6 4.2-18.9 6.5-29.6l-7-.6-5.3 21.3-1.4 28 3.4 4.4c2.5-.7 5.1-1 7.6-1.7-.6-.4-1.4-1.6-2.1-2.7-1-1.6-1.2-3.2-1.4-4.2-.5-5-.2-14-.3-14.9z" fill="#4d4d4d"/><path d="m195.7 371.5-2.5 27.5c1.5 2.2 2.4 3.7 3.9 5.9-.2 1.5.1 4.5-.3 7.6-.3 2.4-.5 3.7-.8 5-.6 2.2-1.6 4-2.3 5 1.7-1 3.5-2 5.2-3l6.9-63.9-7.4-1.2z" fill="#4d4d4d"/><path d="m187.9 354.9c.3 11.1.1 14 .4 25-.1 4.6-.5 16.2-.8 18.6s-.5 4.2-1.5 6.4c-1 2-2.4 3.5-3.4 4.4 3.6-.1 7.2-.2 10.9-.3l.9-3.6.7-10 .9-21 3.2-19z" fill="#4d4d4d"/><path d="m179.9 353.6 7.2 2.2-3.1 38.4-6 2.1c.4-.9.7-1.8 1-2.8.4-1.6.8-3.1 1-6.8.3-10.9.1-22.1-.1-33.1" fill="#4d4d4d"/><path d="m200.5 353.4-92.2 1.2c-2.5 0-4.7 1.9-5.1 4.4-1.1 8.3-.7 15.4-2.2 25.6-1.5 9.7-2.4 18-4 27.3-.1.5-.4 3.5 1.9 6.6 1.7 2 3.2 2.7 6.1 2.7 14.1-.9 29.1-1.3 45.1-1.1 16.2.2 31.5 1 45.8 2.1.9 0 2.3-.2 3.5-1.2.9-.8 1.6-1.9 1.5-3.3-.4-10.1-.1-21.8 1.5-34.6 1-8.3 2.4-15.9 4.1-22.7.4-1.8-.1-3.7-1.5-4.9-.4-.3-.8-.7-1.3-1-1-.8-2.1-1.1-3.2-1.1z" fill="none" stroke="#b3b3b3" stroke-miterlimit="10" stroke-width="4"/><path d="m120.5 397.4 56.1.5c5.6 0 8.6-2.9 9.4-8.8l1.4-31.4c.1-1.8-1.3-3.4-3.2-3.4l-63.7 4.4c-2 6.2-3.9 14.2-4.3 23.5-.2 3.8-.1 7.4.2 10.6.1.5.3 1.9 1.5 3.2 1 1 2.1 1.3 2.6 1.4z" fill="none" stroke="#b3b3b3" stroke-miterlimit="10" stroke-width="4"/><path d="m188.7 410.6h-77c-3.4-.1-6-3.1-5.7-6.5-.2-5.5.3-14.5 1.1-21.4.8-8.4 2.4-15.7 4.1-21.9 0-.3.7-1.8 1.2-2.5s2.1-1.8 3.1-1.8l78.7-3c2.1 0 5.3 1.1 4.7 4.8-1 5.8-2.4 12.9-3.1 19.7-1 9.9-1.1 19-.7 27 0 2.4-1.3 5.5-6.4 5.6z" fill="none" stroke="#b3b3b3" stroke-miterlimit="10" stroke-width="4"/><path d="m172.4 391.1-41.5-.4c-2.7 0-4.7-2.3-4.4-5l2.4-23 50.2-5.6-1.1 28.7c-.2 3-2.6 5.4-5.6 5.3z" fill="#4d4d4d" stroke="#b3b3b3" stroke-miterlimit="10" stroke-width="4"/><path d="m170.6 364.9c0 5.3-5.8 13.9-18.4 13.9-13.5 0-19.9-8.5-19.9-13.7s10.6-9.5 19.9-9.5 18.4 4.1 18.4 9.3z" fill="#999" stroke="#000" stroke-miterlimit="10" stroke-width="2"/><path d="m87.1 291.7c.8.1 1.4-.5 1.4-1.3-.7-15.3-2.8-126 5.7-155.5 7.6-26.8-9.8-45.3-11.6-47-.1-.1-.2-.2-.3-.3-1.4-1.6-13-14.5-15.8-21-2.6-6-2.3-40.9-2.2-50.1 0-1.7.4-3.4 1.2-4.9 1.8-3.4 5.6-9 11.8-9.9 7.6-1.1 92 2.4 118.9 3.5 5.9.2 11.5 2.1 16.4 5.2 13.6 8.8 41.3 29.7 61.8 64.6.1.1.1.2.1.3.5 2.1 4.5 22.6-8.2 43.1-13.4 21.6-32 13.4-32 13.4l-34.6-14.3c-.5-.2-10-4.8-16.2-.6-.5.3-.7.9-.5 1.4 1.8 5.6 11.9 39.8 10.3 110-.1 2.1.7 4.2 2.2 5.8l16.2 17.6c1 1.1 1.6 2.4 1.8 3.9.7 5.6 1.7 20.9-2.9 41-.3 1.1-.7 2.2-1.3 3.2l-9.1 15.8c-.8 1.4-1.4 2.9-1.7 4.5l-4.2 22.3c-.4 2.2-1.3 4.2-2.6 6-2.5 3.4-7.7 8.6-17.3 13.4-.5.2-21.9 9.5-49.7.9-11.3-3.5-17-7.8-18.3-8.8-.2-.2-.4-.2-.7-.3-5-.2-56.9-3-61-36.7 0 0-3.9-18.2 15.1-24.2-.3 0 5.1-3.3 27.3-1z" fill="#ccc" stroke="#000" stroke-miterlimit="10" stroke-width="3"/><path d="m113.1 338.3s-16.9-14.6-21.5-94.1 10.1-96.9 10.1-96.9 8.6-13.8 32.7 5.7c0 0 40.5 25.9 44.8 87.3 0 0 1.1 17.1 1 30.4-.1 6.8-1.6 13.4-4.4 19.5-3.7 8.1-9.6 23.6-13 46.6-.5 3.7-2.2 7.2-4.9 9.9-2.5 2.5-6.1 4.9-10.9 5.3-3.9.3-6.9.3-9.7-.1-7.7-1.1-13.1-4.2-14.5-5.1-4.5-2.8-7.8-6.1-9.7-8.5z" fill="#999" stroke="#000" stroke-miterlimit="10"/><path d="m120.3 339.2 33.6.8c.6 0 1 .6.8 1.1-1.1 2.6-4.9 8.6-16.1 8.4s-17.2-6.3-19-8.9c-.4-.6-0-1.4.7-1.4z" fill="#666" stroke="#000" stroke-miterlimit="10"/><path d="m111 320.8c5 1.9 21.8 6.9 46.1 2.5.4-.1.7.2.7.6-.2 1.5-.7 3.3-1.5 6.2-.2.9-.9 1.5-1.7 1.8-4.6 1.2-24.6 4-39.6-1.2-.8-.3-1.4-.9-1.7-1.6l-3.2-7.3c-.3-.6.3-1.2.9-1z" fill="#666" stroke="#000" stroke-miterlimit="10"/><path d="m104.9 300c4.8 3 20.9 10.4 57 3.7.5-.1.9.4.8.9-.3 1.4-.8 3.8-1.3 5.7s-1.9 3.3-3.8 3.6c-9.2 1.6-36.8 4.5-50.9-4.4-.6-.4-1.1-1-1.3-1.8-.5-1.8-1-4.7-1.6-6.9-.2-.7.5-1.2 1.1-.8z" fill="#666" stroke="#000" stroke-miterlimit="10"/><path d="m101.5 277.9c5.3 2.8 30.4 14.2 69.9 2.1.5-.1.9.2.9.7l-1.2 8.3c-.1 1-.8 1.7-1.7 2-7.8 2.4-44.2 12.5-67.3-2.4-.8-.5-1.4-1.5-1.4-2.5l-.2-7.6c-0-.5.6-.9 1-.6z" fill="#666" stroke="#000" stroke-miterlimit="10"/><path d="m99.1 255.2c5.7 3 33.1 15.8 72 2 .4-.2.9.1.9.6l-.1 10c0 .3-.2.6-.4.7-4.5 1.9-40.3 15.5-72.5-2.5-.3-.2-.6-.6-.6-1l-.3-9.2c-0-.5.5-.9 1-.6z" fill="#666" stroke="#000" stroke-miterlimit="10"/><path d="m98.2 230.8c5.9 3.8 31.1 17.4 70.4 4.1.5-.2 1.1.2 1.1.7l.9 8.2c0 .4-.1.7-.5.8-4.7 2.2-39.7 17.5-72.4-2.5-.2-.1-.4-.4-.4-.7l-.3-9.9c-.1-.6.6-1 1.2-.7z" fill="#666" stroke="#000" stroke-miterlimit="10"/><path d="m97.1 205.8c4.2 3 25 15.7 65.7 5.1.7-.2 1.4.2 1.6.9l1.9 8.6c.1.7-.2 1.4-.9 1.7-6.9 2.6-43.9 12.7-68.7-4.5-.6-.4-.8-1.1-.8-1.8l.4-9.6c-.1-.4.4-.6.8-.4z" fill="#666" stroke="#000" stroke-miterlimit="10"/><path d="m99.9 181c-.5-.3-1.2-.1-1.3.5-.4 2.3-1.2 7.1-.7 9.4.6 3.1 9.4 6.3 9.4 6.3s23.2 8.8 47-.1c.7-.2 1-1 .8-1.7l-3.3-9.1c-.3-.7-1-1.1-1.7-.9-6.2 1.5-33.5 6.8-50.2-4.4z" fill="#666" stroke="#000" stroke-miterlimit="10"/><path d="m103.1 165.4c3 2.2 13.2 8.1 31.9 5.1.8-.1 1.1-1.1.5-1.6l-11.9-10.6c-2.9-.4-6-.9-9.3-1.7-2.7-.6-5.1-1.4-7.4-2.1-.3-.1-.7-.1-1.1 0-.5.2-1 .4-1.1.7-.5 1.2-1.3 3.7-2.3 8.4-.2.6.1 1.4.7 1.8z" fill="#666" stroke="#000" stroke-miterlimit="10"/><path d="m67.2 26.9s.8-7.6 8.8-8.8c7.1-1.1 42.5 1 50 1.5.9.1 1.8-.1 2.6-.5l4.2-2c.9-.4 1.8-.6 2.8-.5l56.6 4.7c.4 0 .7.1 1.1.2 3.6 1.1 22.9 9.1 63.4 62.3 3.9 5.1 6.5 11.1 7.7 17.4l1.6 9" fill="none" stroke="#000" stroke-miterlimit="10"/><path d="m185.9 207.8-.4 58.9c0 6.5 3.6 12.5 9.4 15.6l9.4 4.9s2.7 2 3.4 5.1" fill="none" stroke="#000" stroke-miterlimit="10"/><path d="m88.4 290.2 1.2 32.8s.3 16.4 16.2 30.6" fill="none" stroke="#000" stroke-miterlimit="10"/><path d="m171.6 131.1c1.4-2.8 3-7.7 7.4-11.2 1.8-1.4 3.6-2.5 5.1-3.3" fill="none" stroke="#000" stroke-miterlimit="10"/><path d="m134.1 16.5-.7 107.3c0 4.3 3.4 7.8 7.7 7.8l23.7.3" fill="none" stroke="#000" stroke-miterlimit="10"/><circle cx="105.5" cy="67.8" fill="#455e7d" r="18" stroke="#000" stroke-miterlimit="10" stroke-width="2"/><circle cx="217.6" cy="85.5" fill="#455e7d" r="18" stroke="#000" stroke-miterlimit="10" stroke-width="2"/><path d="m96.1 59.7h3.3v11.8h5.7v2.8h-9c0-.1 0-14.6 0-14.6z" fill="#82a7d0"/><path d="m107.5 71.6h3.1v-8.2h-2.7v-2c1.5-.3 2.5-.7 3.5-1.3h2.4v11.5h2.7v2.6h-9z" fill="#82a7d0"/><path d="m206.9 77.8h5.2c3.1 0 5.6 1.1 5.6 4.5s-2.5 4.8-5.6 4.8h-1.9v5.2h-3.3zm5 6.7c1.7 0 2.6-.7 2.6-2.2s-.9-1.9-2.6-1.9h-1.7v4.1zm-.3 1.7 2.3-2.1 4.6 8.2h-3.7z" fill="#82a7d0"/><path d="m220.4 89.7h3.1v-8.2h-2.6v-2c1.5-.3 2.5-.7 3.5-1.3h2.4v11.5h2.6v2.6h-9z" fill="#82a7d0"/></svg>