<svg clip-rule="evenodd" fill-rule="evenodd" height="658.63861" stroke-linecap="round" stroke-linejoin="round" stroke-miterlimit="1.5" viewBox="0 0 11835.725 8232.9829" width="946.85797" xmlns="http://www.w3.org/2000/svg"><g transform="translate(-1139.249 -875.841)"><g stroke="#000"><path d="m5465.29 6534c-405.109 0-443.787 14.871-511.634 86.341-126.362 133.108-912.097 1142.92-1458.75 1855.75-546.654 712.834-1177.32 754.202-1824 323-646.677-431.203-497.113-1201.6-456-1508 41.114-306.399 188.619-1499.22 238-1781 49.382-281.783 100.638-1065.49 193-1437 92.363-371.512 158.273-1152.75 553-1607 394.728-454.247 473.661-678.27 584-954 110.34-275.731 33.858-605 1146-605 1112.14 0 831.23 848.344 1012 1019 346.272 166.412 398 417 398 417h3436.41s51.728-250.588 398-417c180.77-170.656-100.143-1019 1012-1019 1112.14 0 1035.66 329.269 1146 605 110.34 275.73 189.273 499.753 584 954 394.727 454.246 460.637 1235.49 553 1607 92.363 371.511 143.618 1155.22 193 1437 49.382 281.782 196.886 1474.6 238 1781 41.114 306.398 190.678 1076.8-456 1508-646.678 431.202-1277.35 389.834-1824-323-487.936-636.268-1166.35-1509.14-1396.32-1783.97-27.675-33.073-48.855-57.486-62.428-71.783-60.507-63.738-98.797-86.341-392.561-86.341h-3302.71z" fill="#b3b3b3" stroke-width="62.5"/><path d="m2079.91 3661.09s205.726-169.78 295-296.752c52.939-105.72 53.861-485.219 88-583.248 34.14-98.03 124.145-452 988-452 863.856 0 933.092 200.612 1047 584 113.909 383.387 82.114 526 816 526h1912.65" fill="none" stroke-width="20.83"/><path d="m12034.3 3661.09s-205.726-169.78-295-296.752c-52.938-105.72-53.86-485.219-88-583.248-34.14-98.03-124.145-452-988-452s-933.091 200.612-1047 584c-113.909 383.387-82.114 526-816 526h-1912.65" fill="none" stroke-width="20.83"/><path d="m2339.91 3236.09 251-1086s80.11-386 1069-386c988.891 0 1053 678.557 1053 806 0 127.442-14.803 222 214 222h2299.65" fill="none" stroke-width="20.83"/><path d="m11774.3 3236.09-251-1086s-80.109-386-1069-386-1053 678.557-1053 806c0 127.442 14.804 222-214 222h-2299.65" fill="none" stroke-width="20.83"/><path d="m4674.91 3265.09 254-1257" fill="none" stroke-width="20.83"/><path d="m9439.31 3265.09-254-1257" fill="none" stroke-width="20.83"/><path d="m4883.91 2704.09 404-311" fill="none" stroke-width="20.83"/><path d="m9230.31 2704.09-404-311" fill="none" stroke-width="20.83"/><path d="m4820.91 2913.09 154 445" fill="none" stroke-width="20.83"/><path d="m9293.31 2913.09-154 445" fill="none" stroke-width="20.83"/><path d="m2461.91 2736.09s-530.356 346.987-727 968" fill="none" stroke-width="20.83"/><path d="m11652.3 2736.09s530.357 346.987 727 968" fill="none" stroke-width="20.83"/><path d="m2592.91 2143.09 67-345" fill="none" stroke-width="20.83"/><path d="m11521.3 2143.09-67-345" fill="none" stroke-width="20.83"/><path d="m3629.91 8163.09 970-1409" fill="none" stroke-width="20.83"/><path d="m10484.3 8163.09-970-1409" fill="none" stroke-width="20.83"/><path d="m5159.65 6442h3724" fill="none" stroke-width="20.83"/><circle cx="3556.9099" cy="4991.6299" fill="none" r="1920" stroke-width="41.67"/><circle cx="10557.3" cy="4991.6299" fill="none" r="1920" stroke-width="41.67"/><path d="m4069.02 4447.63v-986.947c0-53.208-43.133-96.34-96.34-96.34h-895.32c-53.207 0-96.34 43.132-96.34 96.34v986.947h-987.66c-25.551 0-50.055 10.15-68.123 28.217-18.067 18.068-28.217 42.572-28.217 68.123v895.32c0 25.551 10.15 50.055 28.217 68.123 18.068 18.067 42.572 28.217 68.123 28.217h987.66v988.372c0 25.551 10.15 50.056 28.217 68.123 18.068 18.067 42.572 28.218 68.123 28.218h895.32c25.551 0 50.055-10.151 68.123-28.218 18.067-18.067 28.217-42.572 28.217-68.123v-988.372h987.66c25.551 0 50.055-10.15 68.123-28.217 18.067-18.068 28.217-42.572 28.217-68.123v-895.32c0-25.551-10.15-50.055-28.217-68.123-18.068-18.067-42.572-28.217-68.123-28.217z" fill="none" stroke-width="41.67"/><path d="m10045.2 4447.63s0-721.659 0-986.947c0-53.208 43.133-96.34 96.341-96.34h895.319c53.208 0 96.34 43.132 96.34 96.34v986.947h987.66c25.551 0 50.056 10.15 68.123 28.217 18.067 18.068 28.217 42.572 28.217 68.123v895.32c0 25.551-10.15 50.055-28.217 68.123-18.067 18.067-42.572 28.217-68.123 28.217-265.411 0-987.66 0-987.66 0v988.372c0 25.551-10.15 50.056-28.217 68.123s-42.572 28.218-68.123 28.218h-895.319c-25.551 0-50.056-10.151-68.123-28.218s-28.218-42.572-28.218-68.123v-988.372h-987.659c-25.551 0-50.056-10.15-68.123-28.217-18.067-18.068-28.218-42.572-28.218-68.123v-895.32c0-25.551 10.151-50.055 28.218-68.123 18.067-18.067 42.572-28.217 68.123-28.217z" fill="none" stroke-width="41.67"/></g><path d="m3931.66 5295.54c22.468 25.431 54.769 39.995 88.703 39.995h437.818c36.02 0 70.565-14.309 96.035-39.779s39.779-60.015 39.779-96.035v-466.371c0-36.02-14.309-70.565-39.779-96.035-25.47-25.471-60.015-39.78-96.035-39.78h-437.818c-33.934 0-66.235 14.565-88.703 39.996-60.337 68.296-183.002 207.14-248.009 280.722-24.364 27.578-24.364 68.987 0 96.565 65.007 73.582 187.672 212.426 248.009 280.722z" fill="#595959" stroke="#404040" stroke-width="41.67"/><path d="m3182.99 5386.2c-25.43 22.467-39.995 54.769-39.995 88.702v437.818c0 36.02 14.309 70.565 39.779 96.035s60.015 39.779 96.035 39.779h466.372c36.02 0 70.565-14.309 96.035-39.779s39.779-60.015 39.779-96.035v-437.818c0-33.933-14.565-66.235-39.995-88.702-68.297-60.338-207.141-183.002-280.723-248.01-27.578-24.364-68.986-24.364-96.564 0-73.582 65.008-212.426 187.672-280.723 248.01z" fill="#595959" stroke="#404040" stroke-width="41.67"/><path d="m3092.34 5295.54c-22.468 25.431-54.769 39.995-88.703 39.995-96.047 0-300.757 0-437.818 0-36.02 0-70.565-14.309-96.035-39.779s-39.779-60.015-39.779-96.035v-466.371c0-36.02 14.309-70.565 39.779-96.035 25.47-25.471 60.015-39.78 96.035-39.78h437.818c33.934 0 66.235 14.565 88.703 39.996 60.337 68.296 183.002 207.14 248.009 280.722 24.364 27.578 24.364 68.987 0 96.565-65.007 73.582-187.672 212.426-248.009 280.722z" fill="#595959" stroke="#404040" stroke-width="41.67"/><path d="m3182.99 4546.87c-25.43-22.467-39.995-54.769-39.995-88.703v-437.817c0-36.02 14.309-70.565 39.779-96.035 25.47-25.471 60.015-39.78 96.035-39.78h466.372c36.02 0 70.565 14.309 96.035 39.78 25.47 25.47 39.779 60.015 39.779 96.035v437.817c0 33.934-14.565 66.236-39.995 88.703-68.297 60.338-207.141 183.002-280.723 248.01-27.578 24.364-68.986 24.364-96.564 0-73.582-65.008-212.426-187.672-280.723-248.01z" fill="#595959" stroke="#404040" stroke-width="41.67"/><path d="m4971 4992.34-232 262v-524z" fill="none" stroke="#000" stroke-width="20.83"/><path d="m2053 4992.34 232 262v-524z" fill="none" stroke="#000" stroke-width="20.83"/><path d="m3512 6451.34-262-232h524z" fill="none" stroke="#000" stroke-width="20.83"/><path d="m3512 3533.34-262 232h524z" fill="none" stroke="#000" stroke-width="20.83"/><path d="m3716.46 1657.09c-224.79-5.299-789-13-874 310-131.822 500.923-48.891 239 708 239 756.89 0 803.273 397.046 917-90 92-394-454-452-751-459z" fill="#595959" stroke="#404040" stroke-width="41.67"/><path d="m10028.644 6134.1602v-26.6415h44.487v-122.4998l-43.085 26.8964v-28.1712l44.997-29.1909h33.908v152.9655h41.173v26.6415z" fill="#e0e0e0" transform="matrix(-.98491673 -.17302903 .17302903 -.98491673 12490.397994 9545.13893)"/><path d="m10397.8 1657.09c224.789-5.299 789-13 874 310 131.822 500.923 48.891 239-708 239s-803.274 397.046-917-90c-92-394 454-452 751-459z" fill="#595959" stroke="#404040" stroke-width="41.67"/><path d="m17484.143 4924.1001v-26.6415h44.487v-122.4998l-43.085 26.8964v-28.1711l44.998-29.1909h33.907v152.9654h41.173v26.6415z" fill="#e0e0e0" transform="matrix(-.98480778 .17364801 -.17364801 -.98480778 28542.996879 3539.00926)"/><path d="m3896.92 989.163c-224.789-4.999-789-12.266-874 292.496-131.822 472.639-48.891 225.505 708 225.505s803.274 374.627 917-84.919c92-371.753-454-426.478-751-433.082z" fill="#595959" stroke="#404040" stroke-width="41.67"/><path d="m10310.15 5347.5601v-24.8569q7.011-15.424 19.886-30.0832 13.002-14.6592 32.632-30.5931 18.866-15.2966 26.387-25.2393 7.648-9.9428 7.648-19.5031 0-23.4547-23.582-23.4547-11.473 0-17.591 6.2461-5.991 6.1186-7.776 18.4833l-36.074-2.0395q3.059-24.9844 18.611-38.1139 15.678-13.1295 42.575-13.1295 29.063 0 44.615 13.257 15.551 13.257 15.551 37.2215 0 12.6197-4.971 22.8174-4.971 10.1977-12.747 18.8657-7.776 8.5406-17.336 16.0614-9.433 7.5208-18.356 14.6592-8.923 7.1384-16.316 14.4042-7.266 7.2659-10.835 15.5515h83.366v29.4459z" fill="#e0e0e0" transform="matrix(-.99254619 -.121869 .121869 -.99254619 13429.001332 7704.480555)"/><path d="m10217.3 989.163c224.79-4.999 789-12.266 874 292.496 131.822 472.639 48.891 225.505-708 225.505s-803.273 374.627-917-84.919c-92-371.753 454-426.478 751-433.082z" fill="#595959" stroke="#404040" stroke-width="41.67"/><path d="m17251.05 4488.21v-24.8569q7.011-15.424 19.886-30.0832 13.002-14.6592 32.633-30.5931 18.865-15.2966 26.386-25.2393 7.648-9.9428 7.648-19.5031 0-23.4547-23.582-23.4547-11.472 0-17.591 6.2461-5.991 6.1186-7.776 18.4833l-36.074-2.0395q3.059-24.9844 18.611-38.1139 15.679-13.1295 42.575-13.1295 29.064 0 44.615 13.257 15.552 13.257 15.552 37.2215 0 12.6197-4.972 22.8174-4.971 10.1977-12.747 18.8657-7.776 8.5406-17.336 16.0614-9.433 7.5208-18.356 14.6592-8.923 7.1384-16.316 14.4042-7.266 7.2659-10.835 15.5515h83.366v29.4459z" fill="#e0e0e0" transform="matrix(-.99254619 .121869 -.121869 -.99254619 27993.201918 3452.280528)"/><circle cx="9539.7002" cy="4992.3398" fill="#595959" r="461.5" stroke="#404040" stroke-width="41.67"/><path d="m11050.7 3942.84c0 254.708-206.791 461.5-461.5 461.5-254.708 0-461.5-206.792-461.5-461.5 0-254.709 206.792-461.5 461.5-461.5 254.709 0 461.5 206.791 461.5 461.5z" fill="#595959" stroke="#404040" stroke-width="41.67"/><circle cx="11638.7" cy="4992.3398" fill="#595959" r="461.5" stroke="#404040" stroke-width="41.67"/><path d="m11050.7 6041.84c0 254.708-206.791 461.5-461.5 461.5-254.708 0-461.5-206.792-461.5-461.5 0-254.709 206.792-461.5 461.5-461.5 254.709 0 461.5 206.791 461.5 461.5z" fill="#595959" stroke="#404040" stroke-width="41.67"/><path d="m10811.9 5819.15-445.385 445.385" fill="none" stroke="#b3b3b3" stroke-width="83.33"/><path d="m10366.5 5819.15 445.385 445.385" fill="none" stroke="#b3b3b3" stroke-width="83.33"/><path d="m10589.2 3628.81 252 504h-504z" fill="none" stroke="#b3b3b3" stroke-width="83.33"/><circle cx="11638.7" cy="4978.6802" fill="none" r="305.12601" stroke="#b3b3b3" stroke-width="83.33"/><path d="m9297.1699 4749.8101h485.07101v485.07101h-485.07101z" fill="none" stroke="#b3b3b3" stroke-width="83.33"/><path d="m6604 5599.73c0-62.812-50.919-113.731-113.731-113.731-121.75 0-313.788 0-435.538 0-62.812 0-113.731 50.919-113.731 113.731v173.538c0 62.812 50.919 113.731 113.731 113.731h435.538c62.812 0 113.731-50.919 113.731-113.731z" fill="#595959" stroke="#404040" stroke-width="41.67"/><path d="m8078.86 5671.43c18.696 6.583 31.202 24.247 31.202 44.068s-12.506 37.485-31.202 44.068c-150.687 53.064-397.808 140.086-512.618 180.515-14.296 5.034-30.146 2.821-42.516-5.938-12.37-8.758-19.723-22.973-19.723-38.13 0-94.325 0-266.705 0-361.03 0-15.157 7.353-29.372 19.723-38.13 12.37-8.759 28.22-10.972 42.516-5.938 114.81 40.429 361.931 127.451 512.618 180.515z" fill="#595959" stroke="#404040" stroke-width="41.67"/><path d="m3418.4948 2739.28v-197.3006h26.7455v175.4561h99.7005v21.8445z" stroke="#63112e" stroke-linecap="butt" stroke-miterlimit="2"/><path d="m10600.494 2739.28-51.251-81.9168h-61.473v81.9168h-26.745v-197.3006h92.839q33.327 0 51.391 14.9831 18.203 14.8431 18.203 41.4486 0 21.9845-12.882 36.9676-12.743 14.983-35.288 18.9038l56.012 84.9975zm-3.921-140.5889q0-17.2235-11.763-26.1854-11.622-9.1018-33.607-9.1018h-63.433v72.8149h64.554q21.144 0 32.626-9.802 11.623-9.942 11.623-27.7257z" stroke="#63112e" stroke-linecap="butt" stroke-miterlimit="2"/><path d="m5701.16 6158.8 39.778-3.86c2.394 13.328 7.251 23.117 14.571 29.367 7.321 6.25 17.196 9.375 29.627 9.375 13.167 0 23.089-2.78 29.765-8.341s10.013-12.064 10.013-19.509c0-4.78-1.404-8.847-4.212-12.202-2.809-3.355-7.712-6.273-14.71-8.755-4.788-1.654-15.699-4.595-32.734-8.823-21.915-5.423-37.292-12.087-46.132-19.992-12.431-11.121-18.646-24.679-18.646-40.672 0-10.294 2.923-19.922 8.77-28.884 5.847-8.961 14.273-15.786 25.276-20.474 11.004-4.687 24.286-7.031 39.848-7.031 25.414 0 44.543 5.561 57.388 16.682 12.845 11.122 19.59 25.966 20.235 44.533l-40.884 1.792c-1.749-10.386-5.501-17.854-11.256-22.404s-14.388-6.825-25.898-6.825c-11.878 0-21.178 2.436-27.9 7.308-4.327 3.125-6.491 7.307-6.491 12.546 0 4.779 2.025 8.87 6.077 12.27 5.156 4.32 17.679 8.824 37.568 13.512 19.89 4.687 34.599 9.536 44.129 14.545 9.531 5.01 16.989 11.857 22.376 20.543 5.386 8.686 8.08 19.417 8.08 32.193 0 11.581-3.223 22.427-9.669 32.538-6.445 10.11-15.561 17.624-27.347 22.542-11.786 4.917-26.473 7.376-44.06 7.376-25.598 0-45.257-5.906-58.977-17.717s-21.915-29.022-24.585-51.633z" fill-rule="nonzero"/><path d="m5900.19 6224.57v-202.119h150.135v34.192h-109.252v44.808h101.656v34.054h-101.656v55.011h113.12v34.054z" fill-rule="nonzero"/><path d="m6089.96 6224.57v-200.465h40.883v166.411h101.656v34.054z" fill-rule="nonzero"/><path d="m6261.64 6224.57v-202.119h150.136v34.192h-109.253v44.808h101.656v34.054h-101.656v55.011h113.12v34.054z" fill-rule="nonzero"/><path d="m6579.87 6150.25 39.64 12.547c-6.077 22.059-16.183 38.443-30.317 49.151s-32.067 16.062-53.798 16.062c-26.887 0-48.986-9.169-66.297-27.505-17.311-18.337-25.966-43.407-25.966-75.209 0-33.641 8.701-59.767 26.104-78.38s40.285-27.919 68.646-27.919c24.769 0 44.888 7.307 60.358 21.922 9.208 8.639 16.114 21.048 20.718 37.225l-40.469 9.651c-2.394-10.478-7.39-18.751-14.986-24.817-7.597-6.066-16.828-9.1-27.693-9.1-15.009 0-27.187 5.377-36.533 16.131s-14.019 28.172-14.019 52.254c0 25.552 4.604 43.751 13.812 54.597s21.178 16.268 35.911 16.268c10.866 0 20.212-3.446 28.038-10.34 7.827-6.893 13.444-17.739 16.851-32.538z" fill-rule="nonzero"/><path d="m6700.17 6224.57v-167.927h-60.082v-34.192h160.909v34.192h-59.944v167.927z" fill-rule="nonzero"/><path d="m7354.14 6158.8 39.779-3.86c2.394 13.328 7.251 23.117 14.571 29.367 7.321 6.25 17.196 9.375 29.627 9.375 13.167 0 23.089-2.78 29.765-8.341 6.675-5.561 10.013-12.064 10.013-19.509 0-4.78-1.404-8.847-4.212-12.202-2.809-3.355-7.712-6.273-14.71-8.755-4.788-1.654-15.7-4.595-32.734-8.823-21.915-5.423-37.293-12.087-46.132-19.992-12.431-11.121-18.646-24.679-18.646-40.672 0-10.294 2.923-19.922 8.77-28.884 5.847-8.961 14.273-15.786 25.276-20.474 11.004-4.687 24.286-7.031 39.847-7.031 25.414 0 44.544 5.561 57.389 16.682 12.845 11.122 19.59 25.966 20.235 44.533l-40.884 1.792c-1.749-10.386-5.502-17.854-11.257-22.404-5.754-4.55-14.387-6.825-25.897-6.825-11.878 0-21.178 2.436-27.9 7.308-4.328 3.125-6.492 7.307-6.492 12.546 0 4.779 2.026 8.87 6.078 12.27 5.156 4.32 17.679 8.824 37.568 13.512 19.889 4.687 34.599 9.536 44.129 14.545 9.53 5.01 16.989 11.857 22.376 20.543 5.386 8.686 8.08 19.417 8.08 32.193 0 11.581-3.223 22.427-9.669 32.538-6.445 10.11-15.561 17.624-27.347 22.542-11.787 4.917-26.473 7.376-44.061 7.376-25.598 0-45.257-5.906-58.976-17.717-13.72-11.811-21.915-29.022-24.586-51.633z" fill-rule="nonzero"/><path d="m7598.75 6224.57v-167.927h-60.082v-34.192h160.909v34.192h-59.944v167.927z" fill-rule="nonzero"/><path d="m7887.55 6224.57h-44.474l-17.679-45.911h-80.938l-16.713 45.911h-43.369l78.866-202.119h43.231zm-75.275-79.965-27.9-75.002-27.348 75.002z" fill-rule="nonzero"/><path d="m7909.38 6224.57v-202.119h86.048c21.639 0 37.362 1.815 47.168 5.446 9.807 3.63 17.657 10.087 23.55 19.371 5.893 9.283 8.839 19.899 8.839 31.848 0 15.166-4.466 27.689-13.397 37.57-8.932 9.881-22.284 16.108-40.055 18.681 8.84 5.148 16.137 10.8 21.892 16.959 5.755 6.158 13.513 17.096 23.273 32.813l24.723 39.431h-48.894l-29.557-43.981c-10.497-15.717-17.68-25.621-21.547-29.711s-7.965-6.894-12.293-8.41c-4.327-1.517-11.187-2.275-20.579-2.275h-8.288v84.377zm40.883-116.639h30.249c19.613 0 31.859-.827 36.739-2.482 4.881-1.654 8.702-4.503 11.464-8.548 2.763-4.044 4.144-9.099 4.144-15.166 0-6.801-1.819-12.293-5.456-16.475s-8.77-6.825-15.4-7.928c-3.315-.459-13.26-.689-29.834-.689h-31.906z" fill-rule="nonzero"/><path d="m8159.1 6224.57v-167.927h-60.082v-34.192h160.909v34.192h-59.944v167.927z" fill-rule="nonzero"/></g></svg>