<svg enable-background="new 0 0 370 500" viewBox="0 0 370 500" xmlns="http://www.w3.org/2000/svg"><path d="m0 0h370v500h-370z" fill="none"/><path d="m114.7 426.9c-33.6-20.6-53.4-58-52-97.4l7.6-215c0-33.8 27.4-61.2 61.2-61.2h108.2c33.8 0 61.2 27.4 61.2 61.2l6.4 215.4c1.1 38.6-17.9 75.3-50.5 95.9-22.2 14.1-48.5 21.7-75.7 21-23.9-.8-46.7-7.8-66.4-19.9z" fill="#ccc" stroke="#000" stroke-miterlimit="10" stroke-width="3"/><path d="m307.3 329.8-2.4-81.6c-.6 12-4.7 83.7-61.2 122-9.1 6.2-29.3 18.3-57.9 18.5s-49-11.4-57.9-17.2c-58.4-38-61.8-114-62.2-125.1l-2.9 82.9c-1.3 39.4 18.4 76.8 52 97.4 19.7 12.1 42.6 19.2 66.4 19.8 27.2.7 53.4-6.9 75.7-21 32.5-20.5 51.5-57.1 50.4-95.7z" fill="#999"/><g fill="none" stroke-miterlimit="10"><path d="m286.3 190 1.4 86.5" stroke="#4d4d4d"/><path d="m84.1 190-1.4 86.5" stroke="#4d4d4d"/><path d="m282.8 110.6 3.5 55.8" stroke="#4d4d4d"/><path d="m87.7 112.1-3.6 54.3" stroke="#4d4d4d"/><path d="m114.7 426.9c-33.6-20.6-53.4-58-52-97.4l7.6-215c0-33.8 27.4-61.2 61.2-61.2h108.2c33.8 0 61.2 27.4 61.2 61.2l6.4 215.4c1.1 38.6-17.9 75.3-50.5 95.9-22.2 14.1-48.5 21.7-75.7 21-23.9-.8-46.7-7.8-66.4-19.9z" stroke="#000" stroke-width="4"/><path d="m71.4 183.1s124.5-21.8 227.1 1.9" stroke="#000" stroke-width="2"/><path d="m185 58.8v115.3" stroke="#000" stroke-width="2"/></g><path d="m226.6 232.9c-13.7-1.2-28.7-1.9-44.7-1.8-13.6.1-26.5.7-38.4 1.8-.4 0-2.7-.1-4.4-1.9-1.1-1.1-1.9-2.7-1.9-4.4v-10.3c0-3.5 2.8-6.3 6.3-6.3 12.1-1.4 25.5-2.3 40.3-2.4 15.7-.1 30.1.9 42.9 2.4.4 0 2.7.1 4.4 1.9 1.1 1.1 1.9 2.7 1.9 4.4v10.3c-.2 3.6-3.1 6.3-6.4 6.3z" fill="#8d8d8d"/></svg>