<svg enable-background="new 0 0 840 550" viewBox="0 0 840 550" xmlns="http://www.w3.org/2000/svg"><path d="m0 0h840v550h-840z" fill="none"/><path d="m413 63.6h13.6v350.1h-13.6z" fill="#adadad" stroke="#000" stroke-miterlimit="10" stroke-width="4"/><path d="m791.3 129.1c-42.1-52.5-97.7-51.6-115-51.6s-86.3-.2-86.3-.2v-24.9c0-4.9 3.9-8.9 8.7-8.9l81.9 2.1c69.2 5.1 92.3 27.9 102.6 36.5 2.4 2 4 5 4.3 8.2z" style="fill-rule:evenodd;clip-rule:evenodd;fill:#585c6c;stroke:#000;stroke-width:3;stroke-linecap:round;stroke-linejoin:round"/><path d="m49.3 128.2 3.8-38.8c.3-3.2 1.8-6.1 4.3-8.2 10.3-8.6 33.4-31.4 102.6-36.5l81.9-2.1c4.8 0 8.7 4 8.7 8.9v24.9s-69 .2-86.3.2-72.9-1-115 51.6" style="fill-rule:evenodd;clip-rule:evenodd;fill:#585c6c;stroke:#000;stroke-width:3;stroke-linecap:round;stroke-linejoin:round"/><path d="m482.2 423s9.1-25.4 29.9-25.3c113.3.3 94.3-1.6 156.2 44.8 43.2 32.4 78 75 117.4 75 17.4 0 29.3-8.2 37.2-17.4 9-10.4 13.6-24 13.4-37.9l-9.4-231.3c-1.7-58.4-21.1-95-43.7-117.9-27.8-28.1-65.1-36.5-72.3-37.6-6.4-1-13.2-1.5-13.2-1.5-6.5-.5-11.9-.6-16.1-.5h-175.1c-11.6.1-23.2-17.1-23.5-17.1" style="fill-rule:evenodd;clip-rule:evenodd;fill:#ccc;stroke:#000;stroke-width:4;stroke-linecap:round;stroke-linejoin:round"/><path d="m485.5 63s41.4 76.7 41.4 169.3-41.8 180.9-41.8 180.9" fill="#999" stroke="#333" stroke-miterlimit="10" stroke-width="3"/><path d="m483.1 56.4c32.5 186.3-1 366.9-1 366.9l-55.2-.1v-368.2l56.2 1.1z" style="fill-rule:evenodd;clip-rule:evenodd;fill:#c7c7c7;stroke:#000;stroke-width:4;stroke-linecap:round;stroke-linejoin:round"/><path d="m356.8 56.1c-.3 0-11.8 17.2-23.5 17.1h-175.1c-4.1-.1-9.6 0-16.1.5 0 0-6.9.5-13.2 1.5-7.2 1.1-44.5 9.6-72.3 37.6-22.6 22.9-42 59.5-43.7 117.9l-9.3 231.5c-.2 13.9 4.4 27.5 13.4 37.9 7.9 9.2 19.8 17.4 37.2 17.4 39.5 0 74.2-42.5 117.4-75 61.9-46.4 43-44.3 156.2-44.8 20.8-.1 29.8 25.3 29.9 25.3" style="fill-rule:evenodd;clip-rule:evenodd;fill:#ccc;stroke:#000;stroke-width:4;stroke-linecap:round;stroke-linejoin:round"/><path d="m354.8 413.1s-41.8-88.3-41.8-180.9 41.4-169.2 41.4-169.2" fill="#999" stroke="#333" stroke-miterlimit="10" stroke-width="3"/><path d="m356.8 56.1 56.2-1.1v368.2l-55.2.1s-33.5-180.6-1-366.9z" style="fill-rule:evenodd;clip-rule:evenodd;fill:#c7c7c7;stroke:#000;stroke-width:4;stroke-linecap:round;stroke-linejoin:round"/><path d="m697.2 220.4c-23.5-25.4-82.5-80.8-124.8-44.7s-.7 113.3 20.5 138.8c21.2 25.6 96.6 90.9 139.5 46.7 43-44.2-11.7-115.4-35.2-140.8z" fill="#999" stroke="#4d4d4d" stroke-miterlimit="10" stroke-width="3"/><path d="m617.3 291.2c24.8 23.1 67.9 59 95.3 35.6 28.9-24.7 13.2-59.9-31.1-103.3-46.9-46-77.8-58.1-101.1-31.8-29.2 33.2 13.4 77.5 36.9 99.5z" fill="#c7c7c7"/><ellipse cx="754.6" cy="222.8" rx="29.5" ry="29.5" style="fill:#364d9e;stroke:#000;stroke-width:3;stroke-linecap:round;stroke-linejoin:round;stroke-miterlimit:4.0003" transform="matrix(.1602 -.9871 .9871 .1602 413.8567 931.9407)"/><path d="m23.061402 0-3.639047-9.3515043h-11.9750032l-3.5967324 9.3515043h-3.8506194l11.805745-30.339496h3.427475l11.76343 30.339496zm-8.166698-21.876596q-.126944-.338516-.423145-1.22712-.296202-.888605-.592403-1.819524-.253887-.973233-.423145-1.481007-.296202 1.311749-.677032 2.581184-.380831 1.227121-.634718 1.946467l-3.4274742 9.139932h9.5630772z" fill="#00008a" transform="translate(740.4652 235.9483)"/><circle cx="683.9" cy="149.8" fill="#364d9e" r="29.5" stroke="#000" stroke-linecap="round" stroke-linejoin="round" stroke-width="3"/><path d="m12.736664-30.212552q5.670143 0 8.547529 1.69258 2.9197 1.650265 2.9197 5.797086 0 2.665814-1.481007 4.443022-1.481008 1.734895-4.273764 2.242669v.211572q1.904152.296202 3.427474 1.100177 1.565636.803976 2.454241 2.284983.888604 1.481008.888604 3.8506197 0 4.1045064-2.835071 6.3471749-2.792757 2.2426684-7.658924 2.2426684h-10.6209396v-30.212552zm.761661 12.863607q3.892934 0 5.331627-1.22712 1.438693-1.269435 1.438693-3.723676 0-2.496555-1.777209-3.554418-1.734894-1.100177-5.585514-1.100177h-4.9931107v9.605391zm-5.5855137 3.173588v10.9594551h6.0932877q4.019878 0 5.585514-1.5656365 1.565636-1.5656364 1.565636-4.1045064 0-2.3696122-1.650265-3.8083052-1.607951-1.481007-5.797086-1.481007z" fill="#00008a" transform="translate(670.1342 164.9768)"/><circle cx="615.6" cy="222.8" fill="#db1b42" r="29.5" stroke="#000" stroke-linecap="round" stroke-linejoin="round" stroke-width="3"/><path d="m12.609721 0h-10.917141v-2.2003539l3.5544179-.8039755v-24.1615786l-3.5544179-.84629v-2.200354h10.917141v2.200354l-3.5544182.84629v24.1615786l3.5544182.8039755zm14.344644 0h-10.91714v-2.2003539l3.554417-.8039755v-24.1615786l-3.554417-.84629v-2.200354h10.91714v2.200354l-3.554418.84629v24.1615786l3.554418.8039755z" fill="#63112e" transform="translate(603.722 237.9543)"/><circle cx="683.9" cy="291.7" fill="#db1b42" r="29.5" stroke="#000" stroke-linecap="round" stroke-linejoin="round" stroke-width="3"/><path d="m12.609721 0h-10.917141v-2.2003539l3.5544179-.8039755v-24.1615786l-3.5544179-.84629v-2.200354h10.917141v2.200354l-3.5544182.84629v24.1615786l3.5544182.8039755z" fill="#63112e" transform="translate(677.9652 306.7619)"/><path d="m236.5 283.3 2.5-.5c.3 1.4 1.4 2.1 3.4 2.1.9 0 1.6-.2 2.1-.5.5-.4.7-.8.7-1.3 0-.4-.1-.7-.3-1.1-.2-.3-.7-.6-1.4-.8l-2.7-.7c-.9-.2-1.6-.5-2-.8s-.8-.7-1.1-1.3-.4-1.2-.4-1.8c0-1.3.5-2.3 1.4-3 .9-.8 2.1-1.1 3.6-1.1 1.2 0 2.3.3 3.2.8 1 .5 1.6 1.3 1.8 2.2l-2.4.6c-.4-1.1-1.2-1.6-2.6-1.6-.8 0-1.4.2-1.8.5s-.6.7-.6 1.3c0 .8.7 1.4 2 1.7l2.4.6c1.4.4 2.4.9 2.9 1.6s.7 1.5.7 2.4c0 1.4-.5 2.5-1.6 3.3-1 .8-2.4 1.2-4 1.2-1.4 0-2.6-.3-3.7-.9-1-.8-1.7-1.7-2.1-2.9z" fill="#404040"/><path d="m255 286.7h-2.7v-11.9h-3.7v-2.2h10.2v2.2h-3.7v11.9z" fill="#404040"/><path d="m270.2 286.7h-2.7l-1.1-3.3h-5.4l-1.1 3.3h-2.2l4.7-14.1h3.1zm-4.5-5.4-2.1-6.3-2.1 6.3z" fill="#404040"/><path d="m282.9 286.7h-2.7l-2.2-5.8h-3.6v5.8h-2.5v-14.1h6.1c1.7 0 2.9.4 3.7 1.1.8.8 1.2 1.8 1.2 3 0 1.8-.8 3-2.5 3.7zm-8.5-7.8h3.2c.9 0 1.6-.2 2-.6s.7-.9.7-1.6c0-.6-.2-1.1-.7-1.5-.4-.4-1.1-.6-1.8-.6h-3.4z" fill="#404040"/><path d="m290.4 286.7h-2.7v-11.9h-3.8v-2.2h10.2v2.2h-3.7z" fill="#404040"/><g stroke-linecap="round" stroke-linejoin="round"><circle cx="264.5" cy="325.8" fill="#585c6c" r="26.4" stroke="#000" stroke-width="3"/><circle cx="153.6" cy="216.7" fill="#4e5c70" r="84.9" stroke="#000" stroke-width="3"/><path clip-rule="evenodd" d="m217.6 194.8h-36.8c-3.1 0-5.5-2.5-5.5-5.5v-36.8c0-3.1-2.5-5.5-5.5-5.5h-31.4c-3.1 0-5.5 2.5-5.5 5.5v38c0 3.1-2.5 5.5-5.5 5.5h-37.1c-3.1 0-5.5 2.5-5.5 5.5v31.4c0 3.1 2.5 5.5 5.5 5.5h36.8c3.1 0 5.5 2.5 5.5 5.5v36.8c0 3.1 2.5 5.5 5.5 5.5h31.4c3.1 0 5.5-2.5 5.5-5.5v-38c0-3.1 2.5-5.5 5.5-5.5h36.8c3.1 0 5.5-2.5 5.5-5.5v-31.4c.4-3-2.1-5.5-5.2-5.5z" fill="#585c6c" fill-rule="evenodd" stroke="#333" stroke-width="4"/><path d="m743.2 473.4s-82.4-95.4-144.2-98.9c0 0-19.1-1.6-73.7-1" fill="none" stroke="#b3b3b3" stroke-width="3"/><path d="m93.7 473.4s82.4-95.4 144.2-98.9c0 0 19.1-1.6 73.7-1" fill="none" stroke="#b3b3b3" stroke-width="3"/></g></svg>