<svg viewBox="0 0 512 512" xmlns="http://www.w3.org/2000/svg"><path d="m363.3838 123.77433 108.17663 108.17663c6.3426 6.3426 9.95436 15.06368 9.95436 24.04904 0 8.98535-3.61176 17.70643-9.95436 24.04904l-108.17663 108.17662c-5.63787 5.63787-13.21376 8.72108-21.14202 8.72108-16.47315 0-29.86309-13.38994-29.86309-29.86309v-54.70496h-112.75739c-15.59223 0-28.18935-12.59711-28.18935-28.18935v-56.37869c0-15.59223 12.59712-28.18935 28.18935-28.18935h112.75739v-54.70496c0-16.47315 13.38994-29.86309 29.86309-29.86309 7.92826 0 15.50415 3.1713 21.14202 8.72108zm-191.95185-8.72108h-56.3787c-15.59222 0-28.189349 12.59712-28.189349 28.18935v225.51479c0 15.59223 12.597119 28.18935 28.189349 28.18935h56.3787c15.59223 0 28.18935 12.59712 28.18935 28.18935s-12.59712 28.18935-28.18935 28.18935h-56.3787c-46.688603 0-84.56804-37.87944-84.56804-84.56805v-225.51479c0-46.688607 37.879437-84.568041 84.56804-84.568041h56.3787c15.59223 0 28.18935 12.597115 28.18935 28.189347 0 15.592224-12.59712 28.189344-28.18935 28.189344z" fill="#fff" stroke-width=".880917"/></svg>