<svg height="640" viewBox="0 0 640 640" width="640" xmlns="http://www.w3.org/2000/svg"><g fill="#fff"><path d="m264.14016 286.21023c-46.25894 0-83.78977 37.53084-83.78977 83.78977s37.53083 83.78978 83.78977 83.78978h111.71968c46.25894 0 83.78977-37.53085 83.78977-83.78978 0-46.25894-37.53083-83.78977-83.78977-83.78977zm132.66713 45.38613a17.456203 17.456203 0 1 1 0 34.91239 17.456203 17.456203 0 1 1 0-34.91239zm-45.38612 59.35108a17.456203 17.456203 0 1 1 34.91239 0 17.456203 17.456203 0 1 1 -34.91239 0zm-97.75473-45.38612c0-5.80419 4.66954-10.47373 10.47372-10.47373s10.47371 4.66954 10.47371 10.47373v13.96496h13.96497c5.80417 0 10.47373 4.66953 10.47373 10.47372s-4.66954 10.47372-10.47373 10.47372h-13.96497v13.96496c0 5.80419-4.66953 10.47373-10.47371 10.47373-5.80419 0-10.47372-4.66954-10.47372-10.47373v-13.96496h-13.96496c-5.8042 0-10.47373-4.66953-10.47373-10.47372 0-5.8042 4.66953-10.47373 10.47373-10.47373h13.96496z" stroke-width=".436405"/><path d="m89.226718 138.67812c-9.066093 0-16.483806 7.41772-16.483806 16.48381v329.67613c0 9.06609 7.417713 16.4838 16.483806 16.4838h461.546572c9.06608 0 16.4838-7.41771 16.4838-16.4838v-329.67613c0-9.06609-7.41772-16.48381-16.4838-16.48381zm-65.935226 16.48381c0-36.36739 29.567828-65.935223 65.935226-65.935223h461.546572c36.36739 0 65.93522 29.567833 65.93522 65.935223v329.67613c0 36.36739-29.56783 65.93523-65.93522 65.93523h-461.546572c-36.367398 0-65.935226-29.56784-65.935226-65.93523zm98.902838 65.93523c0-18.20753 14.76011-32.96759 32.96761-32.96759 18.20751 0 32.96761 14.76006 32.96761 32.96759 0 18.20752-14.7601 32.96759-32.96761 32.96759-18.2075 0-32.96761-14.76007-32.96761-32.96759zm107.14475 0c0-13.70217 11.02352-24.72572 24.72569-24.72572h230.77329c13.70216 0 24.72571 11.02355 24.72571 24.72572s-11.02355 24.72572-24.72571 24.72572h-230.77329c-13.70217 0-24.72569-11.02355-24.72569-24.72572z" stroke-width="1.03024"/></g></svg>