<svg viewBox="0 0 24 24" xmlns="http://www.w3.org/2000/svg"><path d="m2.13127 13.6308c-.18207-1.0959-.17606-2.1968.00089-3.2613 1.10121.0268 2.09158-.50152 2.47649-1.43079.38492-.92927.0582-2.00314-.73939-2.7629.62759-.87783 1.40179-1.66053 2.30545-2.3067.75979.79805 1.83399 1.12505 2.76351.74003s1.45788-1.37582 1.43078-2.47738c1.0959-.18207 2.1968-.17606 3.2613.00089-.0267 1.1012.5016 2.09157 1.4309 2.47649.9292.38492 2.0031.05819 2.7629-.73939.8778.62759 1.6605 1.40178 2.3067 2.30545-.7981.75979-1.1251 1.83399-.7401 2.76351s1.3758 1.45789 2.4774 1.43079c.1821 1.0959.1761 2.1968-.0009 3.2613-1.1012-.0267-2.0916.5016-2.4765 1.4308-.3849.9293-.0582 2.0032.7394 2.7629-.6276.8779-1.4018 1.6606-2.3054 2.3067-.7598-.798-1.834-1.125-2.7635-.74-.9296.385-1.4579 1.3758-1.4309 2.4774-1.0959.1821-2.1968.1761-3.2612-.0009.0267-1.1012-.50161-2.0916-1.43088-2.4765s-2.00314-.0582-2.7629.7394c-.87783-.6276-1.66053-1.4018-2.3067-2.3054.79805-.7598 1.12505-1.834.74003-2.7636-.38502-.9295-1.37581-1.4578-2.47738-1.4308zm9.86843 1.3694c1.6568 0 3-1.3432 3-3 0-1.6569-1.3432-3.00002-3-3.00002-1.6569 0-3.00001 1.34312-3.00001 3.00002 0 1.6568 1.34311 3 3.00001 3z" fill="#fff"/></svg>