<svg height="576" viewBox="0 0 576 576" width="576" xmlns="http://www.w3.org/2000/svg"><path d="m375.58614 492.32782h43.78453c10.39883 0 19.97669-5.47306 25.17611-14.50363l102.16391-175.13813c5.29063-9.03055 5.29063-20.15913.0912-29.2809-5.19941-9.12179-14.77728-14.59484-25.26731-14.59484h-364.87111c-10.39883 0-19.9767 5.47306-25.17611 14.50363l-62.39296 106.90722v-238.16962c0-8.02715 6.567679-14.59484 14.594844-14.59484h107.180886c3.83116 0 7.57108 1.55071 10.30762 4.28724l24.17271 24.17271c19.15573 19.15573 45.15279 29.91943 72.24447 29.91943h107.1809c8.02716 0 14.59484 6.56767 14.59484 14.59484v29.1897h43.78454v-29.1897c0-32.19988-26.17951-58.37938-58.37938-58.37938h-107.1809c-15.50702 0-30.37551-6.11158-41.32164-17.05772l-24.17271-24.26392c-10.94614-10.946138-25.81464-17.057729-41.32166-17.057729h-107.089676c-32.199876 0-58.379378 26.179509-58.379378 58.379369v291.89689c0 32.19988 26.179502 58.37938 58.379378 58.37938h21.618616z" fill="#fff" stroke-width=".912178"/></svg>