<?xml version="1.0" encoding="UTF-8" standalone="no"?>
<svg
   viewBox="0 0 512 512"
   version="1.1"
   id="svg1"
   sodipodi:docname="start-disc.svg"
   inkscape:version="1.4 (e7c3feb100, 2024-10-09)"
   xmlns:inkscape="http://www.inkscape.org/namespaces/inkscape"
   xmlns:sodipodi="http://sodipodi.sourceforge.net/DTD/sodipodi-0.dtd"
   xmlns="http://www.w3.org/2000/svg"
   xmlns:svg="http://www.w3.org/2000/svg">
  <defs
     id="defs1" />
  <sodipodi:namedview
     id="namedview1"
     pagecolor="#ffffff"
     bordercolor="#000000"
     borderopacity="0.25"
     inkscape:showpageshadow="2"
     inkscape:pageopacity="0.0"
     inkscape:pagecheckerboard="true"
     inkscape:deskcolor="#d1d1d1"
     inkscape:zoom="1.8685849"
     inkscape:cx="269.72282"
     inkscape:cy="294.60797"
     inkscape:window-width="2856"
     inkscape:window-height="1652"
     inkscape:window-x="0"
     inkscape:window-y="0"
     inkscape:window-maximized="1"
     inkscape:current-layer="svg1" />
  <!--!Font Awesome Free 6.7.2 by @fontawesome - https://fontawesome.com License - https://fontawesome.com/license/free Copyright 2025 Fonticons, Inc.-->
  <path
     fill="#ffffff"
     d="m 49.005172,256 a 206.99483,206.99483 0 1 1 413.989658,0 206.99483,206.99483 0 1 1 -413.989658,0 z M 256,281.87436 a 25.874355,25.874355 0 1 1 0,-51.74871 25.874355,25.874355 0 1 1 0,51.74871 z M 178.37694,256 a 77.62306,77.62306 0 1 0 155.24612,0 77.62306,77.62306 0 1 0 -155.24612,0 z m -51.7487,-12.93717 c 0,-28.30008 14.15003,-57.48958 36.54752,-79.88707 22.39749,-22.39749 51.58699,-36.54752 79.88707,-36.54752 7.11544,0 12.93717,-5.82173 12.93717,-12.93718 0,-7.11545 -5.82173,-12.93718 -12.93717,-12.93718 -36.70924,0 -72.12476,18.03119 -98.24169,44.06726 -26.11692,26.03607 -44.06726,61.53245 -44.06726,98.24169 0,7.11544 5.82173,12.93717 12.93718,12.93717 7.11545,0 12.93718,-5.82173 12.93718,-12.93717 z"
     id="path1"
     style="stroke-width:0.808574" />
</svg>
