<?xml version="1.0" encoding="UTF-8" standalone="no"?>
<svg
   viewBox="0 0 512 512"
   version="1.1"
   id="svg1"
   sodipodi:docname="start-bios.svg"
   inkscape:version="1.4 (e7c3feb100, 2024-10-09)"
   xmlns:inkscape="http://www.inkscape.org/namespaces/inkscape"
   xmlns:sodipodi="http://sodipodi.sourceforge.net/DTD/sodipodi-0.dtd"
   xmlns="http://www.w3.org/2000/svg"
   xmlns:svg="http://www.w3.org/2000/svg">
  <defs
     id="defs1" />
  <sodipodi:namedview
     id="namedview1"
     pagecolor="#ffffff"
     bordercolor="#000000"
     borderopacity="0.25"
     inkscape:showpageshadow="2"
     inkscape:pageopacity="0.0"
     inkscape:pagecheckerboard="true"
     inkscape:deskcolor="#d1d1d1"
     inkscape:zoom="2.640625"
     inkscape:cx="256"
     inkscape:cy="256"
     inkscape:window-width="2852"
     inkscape:window-height="1651"
     inkscape:window-x="0"
     inkscape:window-y="0"
     inkscape:window-maximized="1"
     inkscape:current-layer="svg1" />
  <!--!Font Awesome Free 6.7.2 by @fontawesome - https://fontawesome.com License - https://fontawesome.com/license/free Copyright 2025 Fonticons, Inc.-->
  <path
     fill="#ffffff"
     d="m 186.11835,53.343194 c 0,-11.617826 -9.34668,-20.964498 -20.9645,-20.964498 -11.61782,0 -20.9645,9.346672 -20.9645,20.964498 v 34.940832 c -30.83528,0 -55.905324,25.070044 -55.905324,55.905324 H 53.343194 c -11.617826,0 -20.964498,9.34668 -20.964498,20.9645 0,11.61782 9.346672,20.9645 20.964498,20.9645 H 88.284026 V 235.0355 H 53.343194 c -11.617826,0 -20.964498,9.34668 -20.964498,20.96449 0,11.61783 9.346672,20.96451 20.964498,20.96451 h 34.940832 v 48.91716 H 53.343194 c -11.617826,0 -20.964498,9.34666 -20.964498,20.96449 0,11.61783 9.346672,20.9645 20.964498,20.9645 h 34.940832 c 0,30.83528 25.070044,55.90533 55.905324,55.90533 v 34.94082 c 0,11.61783 9.34668,20.9645 20.9645,20.9645 11.61782,0 20.9645,-9.34667 20.9645,-20.9645 v -34.94082 h 48.91715 v 34.94082 c 0,11.61783 9.34668,20.9645 20.96449,20.9645 11.61783,0 20.96451,-9.34667 20.96451,-20.9645 v -34.94082 h 48.91716 v 34.94082 c 0,11.61783 9.34666,20.9645 20.96449,20.9645 11.61783,0 20.9645,-9.34667 20.9645,-20.9645 v -34.94082 c 30.83528,0 55.90533,-25.07005 55.90533,-55.90533 h 34.94082 c 11.61783,0 20.9645,-9.34667 20.9645,-20.9645 0,-11.61783 -9.34667,-20.96449 -20.9645,-20.96449 H 423.71598 V 276.9645 h 34.94082 c 11.61783,0 20.9645,-9.34668 20.9645,-20.96451 0,-11.61781 -9.34667,-20.96449 -20.9645,-20.96449 h -34.94082 v -48.91715 h 34.94082 c 11.61783,0 20.9645,-9.34668 20.9645,-20.9645 0,-11.61782 -9.34667,-20.9645 -20.9645,-20.9645 h -34.94082 c 0,-30.83528 -25.07005,-55.905324 -55.90533,-55.905324 V 53.343194 c 0,-11.617826 -9.34667,-20.964498 -20.9645,-20.964498 -11.61783,0 -20.96449,9.346672 -20.96449,20.964498 V 88.284026 H 276.9645 V 53.343194 c 0,-11.617826 -9.34668,-20.964498 -20.96451,-20.964498 -11.61781,0 -20.96449,9.346672 -20.96449,20.964498 v 34.940832 h -48.91715 z m -13.97634,90.846156 h 167.71598 c 15.46131,0 27.95266,12.49134 27.95266,27.95266 v 167.71598 c 0,15.46131 -12.49135,27.95266 -27.95266,27.95266 H 172.14201 c -15.46132,0 -27.95266,-12.49135 -27.95266,-27.95266 V 172.14201 c 0,-15.46132 12.49134,-27.95266 27.95266,-27.95266 z m 167.71598,27.95266 H 172.14201 v 167.71598 h 167.71598 z"
     id="path1"
     style="stroke-width:0.87352" />
</svg>
