<svg viewBox="0 0 512 512" xmlns="http://www.w3.org/2000/svg"><path d="m49.005172 256a206.99483 206.99483 0 1 1 413.989658 0 206.99483 206.99483 0 1 1 -413.989658 0zm206.994828 25.87436a25.874355 25.874355 0 1 1 0-51.74871 25.874355 25.874355 0 1 1 0 51.74871zm-77.62306-25.87436a77.62306 77.62306 0 1 0 155.24612 0 77.62306 77.62306 0 1 0 -155.24612 0zm-51.7487-12.93717c0-28.30008 14.15003-57.48958 36.54752-79.88707s51.58699-36.54752 79.88707-36.54752c7.11544 0 12.93717-5.82173 12.93717-12.93718s-5.82173-12.93718-12.93717-12.93718c-36.70924 0-72.12476 18.03119-98.24169 44.06726-26.11692 26.03607-44.06726 61.53245-44.06726 98.24169 0 7.11544 5.82173 12.93717 12.93718 12.93717s12.93718-5.82173 12.93718-12.93717z" fill="#fff" stroke-width=".808574"/></svg>