<svg viewBox="0 0 512 512" xmlns="http://www.w3.org/2000/svg"><path d="m186.11835 53.343194c0-11.617826-9.34668-20.964498-20.9645-20.964498s-20.9645 9.346672-20.9645 20.964498v34.940832c-30.83528 0-55.905324 25.070044-55.905324 55.905324h-34.940832c-11.617826 0-20.964498 9.34668-20.964498 20.9645s9.346672 20.9645 20.964498 20.9645h34.940832v48.91715h-34.940832c-11.617826 0-20.964498 9.34668-20.964498 20.96449 0 11.61783 9.346672 20.96451 20.964498 20.96451h34.940832v48.91716h-34.940832c-11.617826 0-20.964498 9.34666-20.964498 20.96449s9.346672 20.9645 20.964498 20.9645h34.940832c0 30.83528 25.070044 55.90533 55.905324 55.90533v34.94082c0 11.61783 9.34668 20.9645 20.9645 20.9645s20.9645-9.34667 20.9645-20.9645v-34.94082h48.91715v34.94082c0 11.61783 9.34668 20.9645 20.96449 20.9645 11.61783 0 20.96451-9.34667 20.96451-20.9645v-34.94082h48.91716v34.94082c0 11.61783 9.34666 20.9645 20.96449 20.9645s20.9645-9.34667 20.9645-20.9645v-34.94082c30.83528 0 55.90533-25.07005 55.90533-55.90533h34.94082c11.61783 0 20.9645-9.34667 20.9645-20.9645s-9.34667-20.96449-20.9645-20.96449h-34.94082v-48.91716h34.94082c11.61783 0 20.9645-9.34668 20.9645-20.96451 0-11.61781-9.34667-20.96449-20.9645-20.96449h-34.94082v-48.91715h34.94082c11.61783 0 20.9645-9.34668 20.9645-20.9645s-9.34667-20.9645-20.9645-20.9645h-34.94082c0-30.83528-25.07005-55.905324-55.90533-55.905324v-34.940832c0-11.617826-9.34667-20.964498-20.9645-20.964498s-20.96449 9.346672-20.96449 20.964498v34.940832h-48.91716v-34.940832c0-11.617826-9.34668-20.964498-20.96451-20.964498-11.61781 0-20.96449 9.346672-20.96449 20.964498v34.940832h-48.91715zm-13.97634 90.846156h167.71598c15.46131 0 27.95266 12.49134 27.95266 27.95266v167.71598c0 15.46131-12.49135 27.95266-27.95266 27.95266h-167.71598c-15.46132 0-27.95266-12.49135-27.95266-27.95266v-167.71598c0-15.46132 12.49134-27.95266 27.95266-27.95266zm167.71598 27.95266h-167.71598v167.71598h167.71598z" fill="#fff" stroke-width=".87352"/></svg>