<?xml version="1.0" encoding="UTF-8" standalone="no"?>
<svg
   width="973.97003"
   height="664.76788"
   viewBox="0 0 12174.625 8309.5983"
   version="1.1"
   xml:space="preserve"
   style="clip-rule:evenodd;fill-rule:evenodd;stroke-linecap:round;stroke-linejoin:round;stroke-miterlimit:1.5"
   id="svg243"
   sodipodi:docname="analog_controller.svg"
   inkscape:version="1.2.1 (9c6d41e410, 2022-07-14)"
   xmlns:inkscape="http://www.inkscape.org/namespaces/inkscape"
   xmlns:sodipodi="http://sodipodi.sourceforge.net/DTD/sodipodi-0.dtd"
   xmlns="http://www.w3.org/2000/svg"
   xmlns:svg="http://www.w3.org/2000/svg"
   xmlns:serif="http://www.serif.com/"><defs
     id="defs247" /><sodipodi:namedview
     id="namedview245"
     pagecolor="#ffffff"
     bordercolor="#999999"
     borderopacity="1"
     inkscape:pageshadow="0"
     inkscape:pageopacity="0"
     inkscape:pagecheckerboard="0"
     showgrid="false"
     inkscape:zoom="1.4327205"
     inkscape:cx="777.54176"
     inkscape:cy="468.68877"
     inkscape:window-width="3142"
     inkscape:window-height="1675"
     inkscape:window-x="-11"
     inkscape:window-y="-11"
     inkscape:window-maximized="1"
     inkscape:current-layer="svg243"
     inkscape:showpageshadow="2"
     inkscape:deskcolor="#d1d1d1" /><g
     id="g381"
     transform="translate(-934.32827,-774.13414)"><path
       d="m 10753.3,8451 c -389.372,-507.74 -389.331,-507.607 -934.976,-1289 -75.558,560.925 -556.692,994 -1138.18,994 -633.875,0 -1148.5,-514.626 -1148.5,-1148.5 0,-41.211 2.175,-81.918 6.417,-122.013 0.017,-0.161 0.034,-0.323 0.052,-0.487 h -1032.94 c 4.276,40.252 6.469,81.122 6.469,122.5 0,633.874 -514.626,1148.5 -1148.5,1148.5 -581.486,0 -1062.62,-433.075 -1138.18,-994 -535.503,767.622 -535.459,768.031 -934.976,1289 -546.654,712.835 -1177.32,754.202 -1824,323 -646.678,-431.202 -497.114,-1201.6 -456,-1508 41.114,-306.398 188.618,-1499.22 238,-1781 49.382,-281.782 100.637,-1065.49 193,-1437 92.363,-371.511 158.273,-1152.75 553,-1607 394.727,-454.247 473.66,-678.27 584,-954 110.34,-275.73 33.857,-605 1146,-605 1112.14,0 831.23,848.344 1012,1019 346.272,166.412 398,417 398,417 h 3775.31 c 0,0 51.728,-250.588 398,-417 180.77,-170.656 -100.142,-1019 1012,-1019 1112.14,0 1035.66,329.27 1146,605 110.34,275.73 189.273,499.753 584,954 394.727,454.247 460.638,1235.49 553,1607 92.363,371.511 143.618,1155.22 193,1437 49.382,281.782 196.886,1474.6 238,1781 41.114,306.398 190.678,1076.8 -456,1508 -646.678,431.202 -1277.35,389.835 -1824,-323 z"
       style="fill:#b3b3b3;stroke:#000000;stroke-width:62.5px"
       id="path2" /><g
       id="Controle"><g
         id="Camada1"><g
           id="D-Pad"><g
             id="Botões"><path
               d="m 3770.66,5295.54 c 22.468,25.431 54.769,39.995 88.703,39.995 96.047,0 300.757,0 437.818,0 36.02,0 70.565,-14.309 96.035,-39.779 25.47,-25.47 39.779,-60.015 39.779,-96.035 V 4733.35 c 0,-36.02 -14.309,-70.565 -39.779,-96.035 -25.47,-25.471 -60.015,-39.78 -96.035,-39.78 h -437.818 c -33.934,0 -66.235,14.565 -88.703,39.996 -60.337,68.296 -183.002,207.14 -248.009,280.722 -24.364,27.578 -24.364,68.987 0,96.565 65.007,73.582 187.672,212.426 248.009,280.722 z"
               style="fill:#595959;stroke:#404040;stroke-width:41.67px"
               id="path4" /><path
               d="m 3021.99,5386.2 c -25.43,22.467 -39.995,54.769 -39.995,88.702 0,96.048 0,300.758 0,437.818 0,36.02 14.309,70.565 39.779,96.035 25.47,25.47 60.015,39.779 96.035,39.779 h 466.372 c 36.02,0 70.565,-14.309 96.035,-39.779 25.47,-25.47 39.779,-60.015 39.779,-96.035 v -437.818 c 0,-33.933 -14.565,-66.235 -39.995,-88.702 -68.297,-60.338 -207.141,-183.002 -280.723,-248.01 -27.578,-24.364 -68.986,-24.364 -96.564,0 -73.582,65.008 -212.426,187.672 -280.723,248.01 z"
               style="fill:#595959;stroke:#404040;stroke-width:41.67px"
               id="path6" /><path
               d="m 2931.34,5295.54 c -22.468,25.431 -54.769,39.995 -88.703,39.995 -96.047,0 -300.757,0 -437.818,0 -36.02,0 -70.565,-14.309 -96.035,-39.779 -25.47,-25.47 -39.779,-60.015 -39.779,-96.035 V 4733.35 c 0,-36.02 14.309,-70.565 39.779,-96.035 25.47,-25.471 60.015,-39.78 96.035,-39.78 h 437.818 c 33.934,0 66.235,14.565 88.703,39.996 60.337,68.296 183.002,207.14 248.009,280.722 24.364,27.578 24.364,68.987 0,96.565 -65.007,73.582 -187.672,212.426 -248.009,280.722 z"
               style="fill:#595959;stroke:#404040;stroke-width:41.67px"
               id="path8" /><path
               d="m 3021.99,4546.87 c -25.43,-22.467 -39.995,-54.769 -39.995,-88.703 0,-96.047 0,-300.757 0,-437.817 0,-36.02 14.309,-70.565 39.779,-96.035 25.47,-25.471 60.015,-39.78 96.035,-39.78 h 466.372 c 36.02,0 70.565,14.309 96.035,39.78 25.47,25.47 39.779,60.015 39.779,96.035 v 437.817 c 0,33.934 -14.565,66.236 -39.995,88.703 -68.297,60.338 -207.141,183.002 -280.723,248.01 -27.578,24.364 -68.986,24.364 -96.564,0 -73.582,-65.008 -212.426,-187.672 -280.723,-248.01 z"
               style="fill:#595959;stroke:#404040;stroke-width:41.67px"
               id="path10" /></g><path
             d="m 4810,4966.53 -232,262 v -524 z"
             style="fill:none;stroke:#000000;stroke-width:20.83px"
             id="path13" /><path
             d="m 1892,4966.53 232,262 v -524 z"
             style="fill:none;stroke:#000000;stroke-width:20.83px"
             id="path15" /><path
             d="m 3351,6425.53 -262,-232 h 524 z"
             style="fill:none;stroke:#000000;stroke-width:20.83px"
             id="path17" /><path
             d="m 3351,3507.53 -262,232 h 524 z"
             style="fill:none;stroke:#000000;stroke-width:20.83px"
             id="path19" /></g></g><g
         id="Base"><g
           id="Base1"
           serif:id="Base"><path
             d="m 1875,3636 c 0,0 205.726,-169.78 295,-296.752 52.938,-105.72 53.86,-485.219 88,-583.248 34.14,-98.029 124.145,-452 988,-452 863.855,0 933.091,200.612 1047,584 113.909,383.388 82.114,526 816,526 h 1912.65"
             style="fill:none;stroke:#000000;stroke-width:20.83px"
             id="path23" /><path
             d="m 2135,3211 251,-1086 c 0,0 80.109,-386 1069,-386 988.891,0 1053,678.558 1053,806 0,127.442 -14.804,222 214,222 h 2299.65"
             style="fill:none;stroke:#000000;stroke-width:20.83px"
             id="path25" /><path
             d="M 4470,3240 4724,1983"
             style="fill:none;stroke:#000000;stroke-width:20.83px"
             id="path27" /><path
             d="m 4679,2679 404,-311"
             style="fill:none;stroke:#000000;stroke-width:20.83px"
             id="path29" /><path
             d="m 4616,2888 154,445"
             style="fill:none;stroke:#000000;stroke-width:20.83px"
             id="path31" /><path
             d="m 2257,2711 c 0,0 -530.357,346.988 -727,968"
             style="fill:none;stroke:#000000;stroke-width:20.83px"
             id="path33" /><path
             d="m 2388,2118 67,-345"
             style="fill:none;stroke:#000000;stroke-width:20.83px"
             id="path35" /><path
             d="M 3195,8453 4165,7044"
             style="fill:none;stroke:#000000;stroke-width:20.83px"
             id="path37" /><path
             d="m 6604,6800 h 417.654"
             style="fill:none;stroke:#000000;stroke-width:20.83px"
             id="path39" /><path
             d="m 4283.05,6645.21 c -5.207,2.9 -10.43,5.776 -15.667,8.629 -272.398,148.372 -584.621,232.699 -916.384,232.699 -1059.68,0 -1920,-860.323 -1920,-1920 0,-1059.68 860.323,-1920 1920,-1920 1059.68,0 1920,860.324 1920,1920 0,338.339 -87.704,656.354 -241.597,932.534"
             style="fill:none;stroke:#000000;stroke-width:41.67px"
             id="path41" /><path
             d="m 3895,4422.53 v -986.947 c 0,-53.207 -43.133,-96.34 -96.34,-96.34 h -895.32 c -53.207,0 -96.34,43.133 -96.34,96.34 v 986.947 h -987.66 c -25.551,0 -50.055,10.151 -68.123,28.218 -18.067,18.067 -28.217,42.572 -28.217,68.123 v 895.319 c 0,25.551 10.15,50.056 28.217,68.123 18.068,18.067 42.572,28.217 68.123,28.217 H 2807 v 988.373 c 0,25.551 10.15,50.055 28.217,68.123 18.068,18.067 42.572,28.217 68.123,28.217 h 895.32 c 25.551,0 50.055,-10.15 68.123,-28.217 18.067,-18.068 28.217,-42.572 28.217,-68.123 V 5510.53 h 987.66 c 25.551,0 50.055,-10.15 68.123,-28.217 18.067,-18.067 28.217,-42.572 28.217,-68.123 v -895.319 c 0,-25.551 -10.15,-50.056 -28.217,-68.123 -18.068,-18.067 -42.572,-28.218 -68.123,-28.218 z"
             style="fill:none;stroke:#000000;stroke-width:41.67px"
             id="path43" /></g><g
           id="Base2"
           serif:id="Base"><path
             d="m 12168.3,3636 c 0,0 -205.726,-169.78 -295,-296.752 -52.938,-105.72 -53.86,-485.219 -88,-583.248 -34.14,-98.029 -124.145,-452 -988,-452 -863.855,0 -933.091,200.612 -1047,584 -113.909,383.388 -82.114,526 -816,526 H 7021.65"
             style="fill:none;stroke:#000000;stroke-width:20.83px"
             id="path46" /><path
             d="m 11908.3,3211 -251,-1086 c 0,0 -80.109,-386 -1069,-386 -988.89,0 -1053,678.558 -1053,806 0,127.442 14.804,222 -214,222 H 7021.65"
             style="fill:none;stroke:#000000;stroke-width:20.83px"
             id="path48" /><path
             d="m 9573.31,3240 -254,-1257"
             style="fill:none;stroke:#000000;stroke-width:20.83px"
             id="path50" /><path
             d="m 9364.31,2679 -404,-311"
             style="fill:none;stroke:#000000;stroke-width:20.83px"
             id="path52" /><path
             d="m 9427.31,2888 -154,445"
             style="fill:none;stroke:#000000;stroke-width:20.83px"
             id="path54" /><path
             d="m 11786.3,2711 c 0,0 530.357,346.988 727,968"
             style="fill:none;stroke:#000000;stroke-width:20.83px"
             id="path56" /><path
             d="m 11655.3,2118 -67,-345"
             style="fill:none;stroke:#000000;stroke-width:20.83px"
             id="path58" /><path
             d="m 10848.3,8453 -970,-1409"
             style="fill:none;stroke:#000000;stroke-width:20.83px"
             id="path60" /><path
             d="M 7439.31,6800 H 7021.657"
             style="fill:none;stroke:#000000;stroke-width:20.83px"
             id="path62" /><path
             d="m 9787.41,6660.04 c 269.674,144.515 577.786,226.492 904.894,226.492 1059.68,0 1920,-860.323 1920,-1920 0,-1059.68 -860.323,-1920 -1920,-1920 -1059.68,0 -1920,860.324 -1920,1920 0,335.752 86.368,651.49 238.079,926.191"
             style="fill:none;stroke:#000000;stroke-width:41.67px"
             id="path64" /><path
             d="m 10148.3,4422.53 v -986.947 c 0,-53.207 43.133,-96.34 96.34,-96.34 h 895.32 c 53.207,0 96.34,43.133 96.34,96.34 v 986.947 h 987.66 c 25.551,0 50.055,10.151 68.123,28.218 18.067,18.067 28.217,42.572 28.217,68.123 0,206.346 0,688.973 0,895.319 0,25.551 -10.15,50.056 -28.217,68.123 -18.068,18.067 -42.572,28.217 -68.123,28.217 h -987.66 v 988.373 c 0,25.551 -10.15,50.055 -28.217,68.123 -18.068,18.067 -42.572,28.217 -68.123,28.217 h -895.32 c -25.551,0 -50.055,-10.15 -68.123,-28.217 -18.067,-18.068 -28.217,-42.572 -28.217,-68.123 V 5510.53 h -987.66 c -25.551,0 -50.055,-10.15 -68.123,-28.217 -18.067,-18.067 -28.217,-42.572 -28.217,-68.123 0,-206.346 0,-688.973 0,-895.319 0,-25.551 10.15,-50.056 28.217,-68.123 18.068,-18.067 42.572,-28.218 68.123,-28.218 z"
             style="fill:none;stroke:#000000;stroke-width:41.67px"
             id="path66" /></g></g><g
         id="Botões1"
         serif:id="Botões"><path
           d="m 3511.78,1591 c -224.789,-5.298 -789,-13 -874,310 -131.822,500.924 -48.891,239 708,239 756.891,0 803.274,397.046 917,-90 92,-394 -454,-452 -751,-459 z"
           style="fill:#595959;stroke:#404040;stroke-width:41.67px"
           id="path70" /><path
           d="m 10531.5,1591 c 224.789,-5.298 789,-13 874,310 131.822,500.924 48.891,239 -708,239 -756.891,0 -803.273,397.046 -917,-90 -92,-394 454,-452 751,-459 z"
           style="fill:#595959;stroke:#404040;stroke-width:41.67px"
           id="path72" /><path
           d="m 3692.24,796.638 c -224.79,-5.953 -789,-14.609 -874,348.364 -131.822,562.916 -48.891,268.578 708,268.578 756.89,0 803.273,446.182 917,-101.138 92,-442.76 -454,-507.937 -751,-515.804 z"
           style="fill:#595959;stroke:#404040;stroke-width:41.67px"
           id="path74" /><path
           d="m 10351.1,796.638 c 224.789,-5.953 789,-14.609 874,348.364 131.822,562.916 48.89,268.578 -708,268.578 -756.891,0 -803.274,446.182 -917,-101.138 -92,-442.76 454,-507.937 751,-515.804 z"
           style="fill:#595959;stroke:#404040;stroke-width:41.67px"
           id="path76" /><g
           transform="rotate(-170.03602,6488.7855,4187.1635)"
           id="g80"><text
             x="9839.79"
             y="6093.1602"
             style="font-weight:700;font-size:261.061px;font-family:Arial-BoldMT, Arial, sans-serif;fill:#e0e0e0"
             id="text78">1</text></g><g
           transform="rotate(170.00001,14285.872,3018.097)"
           id="g84"><text
             x="17636.9"
             y="4924.1001"
             style="font-weight:700;font-size:261.061px;font-family:Arial-BoldMT, Arial, sans-serif;fill:#e0e0e0"
             id="text82">1</text></g><g
           transform="rotate(-173.00002,6777.6592,3288.7589)"
           id="g88"><text
             x="10128.7"
             y="5194.7598"
             style="font-weight:700;font-size:261.061px;font-family:Arial-BoldMT, Arial, sans-serif;fill:#e0e0e0"
             id="text86">2</text></g><g
           transform="rotate(173.00002,14060.22,2470.3996)"
           id="g92"><text
             x="17411.199"
             y="4376.3999"
             style="font-weight:700;font-size:261.061px;font-family:Arial-BoldMT, Arial, sans-serif;fill:#e0e0e0"
             id="text90">2</text></g></g><g
         id="Duckstation--Logo-"
         serif:id="Duckstation (Logo)"><g
           id="Duck"><g
             id="Camada2" /></g></g><g
         id="Botões2"
         serif:id="Botões"><circle
           cx="9642.8096"
           cy="4966.5298"
           r="461.5"
           style="fill:#595959;stroke:#404040;stroke-width:41.67px"
           id="circle166" /><path
           d="m 11153.8,3917.03 c 0,254.709 -206.791,461.5 -461.5,461.5 -254.709,0 -461.5,-206.791 -461.5,-461.5 0,-254.708 206.791,-461.5 461.5,-461.5 254.709,0 461.5,206.792 461.5,461.5 z"
           style="fill:#595959;stroke:#404040;stroke-width:41.67px"
           id="path168" /><circle
           cx="11741.8"
           cy="4966.5298"
           r="461.5"
           style="fill:#595959;stroke:#404040;stroke-width:41.67px"
           id="circle170" /><path
           d="m 11153.8,6016.03 c 0,254.709 -206.791,461.5 -461.5,461.5 -254.709,0 -461.5,-206.791 -461.5,-461.5 0,-254.708 206.791,-461.5 461.5,-461.5 254.709,0 461.5,206.792 461.5,461.5 z"
           style="fill:#595959;stroke:#404040;stroke-width:41.67px"
           id="path172" /><g
           id="X"><path
             d="m 10915,5793.34 -445.386,445.385"
             style="fill:none;stroke:#6f97e3;stroke-width:83.33px"
             id="path174" /><path
             d="m 10469.6,5793.34 445.386,445.385"
             style="fill:none;stroke:#6f97e3;stroke-width:83.33px"
             id="path176" /></g><path
           d="m 10692.3,3603 252,504 h -504 z"
           style="fill:none;stroke:#7ae0c4;stroke-width:83.33px"
           id="path179" /><circle
           cx="11741.8"
           cy="4952.8701"
           r="305.12601"
           style="fill:none;stroke:#ee676b;stroke-width:83.33px"
           id="circle181" /><rect
           x="9400.2695"
           y="4724"
           width="485.07101"
           height="485.07101"
           style="fill:none;stroke:#f37caa;stroke-width:83.33px"
           id="rect183" /></g><g
         id="Botões-Centrais"
         serif:id="Botões Centrais"><path
           id="Analógico"
           d="m 7353.15,6081.73 c 0,-62.812 -50.92,-113.731 -113.732,-113.731 h -435.537 c -62.812,0 -113.731,50.919 -113.731,113.731 v 173.538 c 0,62.812 50.919,113.731 113.731,113.731 h 435.537 c 62.812,0 113.732,-50.919 113.732,-113.731 z"
           style="fill:#595959;stroke:#404040;stroke-width:41.67px" /><path
           id="Select"
           d="m 6176,4817.73 c 0,-62.812 -50.919,-113.731 -113.731,-113.731 -121.75,0 -313.788,0 -435.538,0 -62.812,0 -113.731,50.919 -113.731,113.731 v 173.538 c 0,62.812 50.919,113.731 113.731,113.731 h 435.538 c 62.812,0 113.731,-50.919 113.731,-113.731 0,-54.335 0,-119.203 0,-173.538 z"
           style="fill:#595959;stroke:#404040;stroke-width:41.67px" /><rect
           id="Led-Analógico"
           serif:id="Led Analógico"
           x="6832.1499"
           y="6516"
           width="379"
           height="124"
           style="fill:#a7de74;stroke:#404040;stroke-width:20.83px;stroke-linecap:square" /><path
           id="Start"
           d="m 8466.86,4889.43 c 18.696,6.583 31.202,24.247 31.202,44.068 0,19.821 -12.506,37.485 -31.202,44.068 -150.687,53.064 -397.808,140.086 -512.618,180.515 -14.296,5.034 -30.146,2.821 -42.516,-5.938 -12.37,-8.758 -19.723,-22.973 -19.723,-38.13 v -361.03 c 0,-15.157 7.353,-29.372 19.723,-38.13 12.37,-8.759 28.22,-10.972 42.516,-5.938 114.81,40.429 361.931,127.451 512.618,180.515 z"
           style="fill:#595959;stroke:#404040;stroke-width:41.67px" /></g><g
         id="Textos"><g
           id="ANALOG"><path
             d="m 6511.96,5844.83 68.235,-177.676 h 25.33 l 72.719,177.676 h -26.785 l -20.725,-53.812 h -74.294 l -19.513,53.812 z m 51.267,-72.961 h 60.235 l -18.543,-49.206 c -5.656,-14.948 -9.857,-27.229 -12.604,-36.844 -2.263,11.392 -5.454,22.704 -9.575,33.935 z"
             style="fill-rule:nonzero;stroke:#63112e;stroke-width:1px;stroke-linecap:butt;stroke-miterlimit:2"
             id="path191" /><path
             d="m 6696.78,5844.83 v -177.676 h 24.118 l 93.323,139.499 v -139.499 h 22.542 v 177.676 h -24.118 l -93.322,-139.62 v 139.62 z"
             style="fill-rule:nonzero;stroke:#63112e;stroke-width:1px;stroke-linecap:butt;stroke-miterlimit:2"
             id="path193" /><path
             d="m 6856.76,5844.83 68.234,-177.676 h 25.331 l 72.718,177.676 h -26.784 l -20.725,-53.812 h -74.294 l -19.513,53.812 z m 51.267,-72.961 h 60.235 l -18.543,-49.206 c -5.656,-14.948 -9.858,-27.229 -12.605,-36.844 -2.262,11.392 -5.454,22.704 -9.574,33.935 z"
             style="fill-rule:nonzero;stroke:#63112e;stroke-width:1px;stroke-linecap:butt;stroke-miterlimit:2"
             id="path195" /><path
             d="m 7040.86,5844.83 v -177.676 h 23.513 v 156.709 h 87.505 v 20.967 z"
             style="fill-rule:nonzero;stroke:#63112e;stroke-width:1px;stroke-linecap:butt;stroke-miterlimit:2"
             id="path197" /><path
             d="m 7172.73,5758.29 c 0,-29.492 7.918,-52.58 23.754,-69.265 15.837,-16.685 36.279,-25.027 61.326,-25.027 16.402,0 31.189,3.919 44.359,11.756 13.17,7.838 23.209,18.766 30.117,32.784 6.909,14.019 10.363,29.916 10.363,47.691 0,18.019 -3.636,34.138 -10.908,48.358 -7.272,14.221 -17.574,24.987 -30.905,32.3 -13.332,7.312 -27.714,10.968 -43.147,10.968 -16.725,0 -31.673,-4.04 -44.843,-12.12 -13.17,-8.08 -23.149,-19.109 -29.936,-33.087 -6.787,-13.978 -10.18,-28.764 -10.18,-44.358 z m 24.239,0.363 c 0,21.412 5.757,38.279 17.271,50.6 11.514,12.322 25.956,18.483 43.328,18.483 17.695,0 32.259,-6.221 43.692,-18.664 11.433,-12.443 17.149,-30.098 17.149,-52.964 0,-14.463 -2.444,-27.087 -7.332,-37.874 -4.889,-10.787 -12.039,-19.149 -21.452,-25.088 -9.413,-5.939 -19.978,-8.908 -31.693,-8.908 -16.645,0 -30.966,5.717 -42.965,17.15 -11.999,11.432 -17.998,30.521 -17.998,57.265 z"
             style="fill-rule:nonzero;stroke:#63112e;stroke-width:1px;stroke-linecap:butt;stroke-miterlimit:2"
             id="path199" /><path
             d="m 7456.09,5775.14 v -20.846 l 75.264,-0.121 v 65.932 c -11.555,9.211 -23.472,16.139 -35.754,20.785 -12.281,4.646 -24.886,6.969 -37.813,6.969 -17.453,0 -33.31,-3.737 -47.571,-11.211 -14.26,-7.474 -25.027,-18.28 -32.299,-32.42 -7.272,-14.14 -10.908,-29.936 -10.908,-47.389 0,-17.29 3.616,-33.43 10.848,-48.418 7.231,-14.988 17.634,-26.118 31.208,-33.39 13.574,-7.272 29.209,-10.908 46.904,-10.908 12.847,0 24.461,2.081 34.844,6.242 10.383,4.161 18.523,9.958 24.421,17.392 5.899,7.433 10.383,17.129 13.453,29.087 l -21.209,5.818 c -2.667,-9.05 -5.979,-16.16 -9.939,-21.331 -3.959,-5.171 -9.615,-9.312 -16.967,-12.423 -7.353,-3.111 -15.514,-4.666 -24.482,-4.666 -10.746,0 -20.038,1.636 -27.876,4.909 -7.837,3.272 -14.16,7.574 -18.967,12.907 -4.808,5.333 -8.545,11.191 -11.211,17.574 -4.525,10.988 -6.787,22.906 -6.787,35.753 0,15.837 2.727,29.088 8.181,39.753 5.454,10.665 13.392,18.584 23.815,23.755 10.423,5.171 21.493,7.756 33.208,7.756 10.181,0 20.119,-1.959 29.815,-5.878 9.696,-3.918 17.049,-8.1 22.058,-12.544 v -33.087 z"
             style="fill-rule:nonzero;stroke:#63112e;stroke-width:1px;stroke-linecap:butt;stroke-miterlimit:2"
             id="path201" /></g><g
           id="SELECT"><path
             d="m 5369.77,5385.62 22.18,-1.939 c 1.05,8.887 3.494,16.179 7.332,21.876 3.838,5.696 9.797,10.302 17.877,13.816 8.08,3.515 17.169,5.272 27.269,5.272 8.969,0 16.887,-1.333 23.755,-3.999 6.868,-2.667 11.978,-6.323 15.332,-10.969 3.353,-4.645 5.029,-9.716 5.029,-15.21 0,-5.575 -1.616,-10.443 -4.848,-14.604 -3.232,-4.161 -8.564,-7.656 -15.998,-10.484 -4.767,-1.858 -15.311,-4.747 -31.632,-8.665 -16.322,-3.919 -27.755,-7.616 -34.299,-11.09 -8.484,-4.444 -14.807,-9.958 -18.968,-16.544 -4.161,-6.585 -6.241,-13.957 -6.241,-22.118 0,-8.969 2.545,-17.352 7.635,-25.149 5.09,-7.797 12.524,-13.715 22.3,-17.755 9.777,-4.04 20.644,-6.06 32.603,-6.06 13.17,0 24.785,2.121 34.844,6.363 10.059,4.242 17.796,10.483 23.209,18.725 5.414,8.241 8.323,17.574 8.727,27.997 l -22.543,1.696 c -1.212,-11.231 -5.313,-19.714 -12.302,-25.451 -6.989,-5.737 -17.311,-8.605 -30.966,-8.605 -14.22,0 -24.583,2.606 -31.087,7.817 -6.504,5.212 -9.756,11.494 -9.756,18.846 0,6.383 2.302,11.635 6.908,15.756 4.525,4.121 16.341,8.342 35.45,12.665 19.109,4.323 32.219,8.1 39.329,11.332 10.342,4.767 17.977,10.807 22.906,18.119 4.929,7.312 7.393,15.736 7.393,25.27 0,9.453 -2.707,18.361 -8.12,26.724 -5.414,8.363 -13.19,14.867 -23.331,19.513 -10.14,4.646 -21.553,6.969 -34.238,6.969 -16.079,0 -29.552,-2.343 -40.419,-7.03 -10.868,-4.686 -19.392,-11.736 -25.573,-21.149 -6.181,-9.413 -9.433,-20.058 -9.757,-31.935 z"
             style="fill-rule:nonzero;stroke:#63112e;stroke-width:1px;stroke-linecap:butt;stroke-miterlimit:2"
             id="path204" /><path
             d="m 5543.81,5442.71 v -177.676 h 128.47 v 20.967 h -104.957 v 54.418 h 98.291 v 20.846 h -98.291 v 60.478 h 109.078 v 20.967 z"
             style="fill-rule:nonzero;stroke:#63112e;stroke-width:1px;stroke-linecap:butt;stroke-miterlimit:2"
             id="path206" /><path
             d="m 5707.91,5442.71 v -177.676 h 23.513 v 156.709 h 87.504 v 20.967 z"
             style="fill-rule:nonzero;stroke:#63112e;stroke-width:1px;stroke-linecap:butt;stroke-miterlimit:2"
             id="path208" /><path
             d="m 5847.41,5442.71 v -177.676 h 128.469 v 20.967 h -104.957 v 54.418 h 98.291 v 20.846 h -98.291 v 60.478 H 5980 v 20.967 z"
             style="fill-rule:nonzero;stroke:#63112e;stroke-width:1px;stroke-linecap:butt;stroke-miterlimit:2"
             id="path210" /><path
             d="m 6139.25,5380.41 23.512,5.939 c -4.928,19.311 -13.796,34.036 -26.603,44.176 -12.806,10.141 -28.461,15.211 -46.964,15.211 -19.149,0 -34.723,-3.899 -46.722,-11.696 -11.998,-7.797 -21.128,-19.088 -27.39,-33.875 -6.262,-14.786 -9.393,-30.663 -9.393,-47.63 0,-18.503 3.535,-34.643 10.605,-48.419 7.07,-13.776 17.129,-24.239 30.178,-31.39 13.049,-7.151 27.411,-10.726 43.086,-10.726 17.775,0 32.723,4.525 44.843,13.574 12.12,9.05 20.563,21.775 25.33,38.177 l -23.148,5.454 c -4.121,-12.927 -10.1,-22.34 -17.938,-28.239 -7.837,-5.898 -17.695,-8.847 -29.572,-8.847 -13.655,0 -25.068,3.272 -34.238,9.817 -9.171,6.545 -15.615,15.331 -19.331,26.36 -3.717,11.029 -5.575,22.402 -5.575,34.118 0,15.109 2.201,28.299 6.605,39.571 4.403,11.271 11.251,19.694 20.543,25.269 9.292,5.575 19.351,8.363 30.178,8.363 13.17,0 24.32,-3.798 33.451,-11.393 9.13,-7.595 15.311,-18.866 18.543,-33.814 z"
             style="fill-rule:nonzero;stroke:#63112e;stroke-width:1px;stroke-linecap:butt;stroke-miterlimit:2"
             id="path212" /><path
             d="m 6236.94,5442.71 v -156.709 h -58.538 v -20.967 h 140.832 v 20.967 h -58.781 v 156.709 z"
             style="fill-rule:nonzero;stroke:#63112e;stroke-width:1px;stroke-linecap:butt;stroke-miterlimit:2"
             id="path214" /></g><g
           id="START"><path
             d="m 7807.74,5385.62 22.179,-1.939 c 1.051,8.887 3.495,16.179 7.333,21.876 3.838,5.696 9.797,10.302 17.877,13.816 8.079,3.515 17.169,5.272 27.269,5.272 8.969,0 16.887,-1.333 23.755,-3.999 6.868,-2.667 11.978,-6.323 15.331,-10.969 3.354,-4.645 5.03,-9.716 5.03,-15.21 0,-5.575 -1.616,-10.443 -4.848,-14.604 -3.232,-4.161 -8.564,-7.656 -15.998,-10.484 -4.767,-1.858 -15.311,-4.747 -31.633,-8.665 -16.321,-3.919 -27.754,-7.616 -34.298,-11.09 -8.484,-4.444 -14.807,-9.958 -18.968,-16.544 -4.161,-6.585 -6.242,-13.957 -6.242,-22.118 0,-8.969 2.546,-17.352 7.636,-25.149 5.09,-7.797 12.524,-13.715 22.3,-17.755 9.777,-4.04 20.644,-6.06 32.602,-6.06 13.171,0 24.785,2.121 34.845,6.363 10.059,4.242 17.796,10.483 23.209,18.725 5.414,8.241 8.322,17.574 8.726,27.997 l -22.542,1.696 c -1.212,-11.231 -5.313,-19.714 -12.302,-25.451 -6.989,-5.737 -17.311,-8.605 -30.966,-8.605 -14.221,0 -24.583,2.606 -31.087,7.817 -6.504,5.212 -9.757,11.494 -9.757,18.846 0,6.383 2.303,11.635 6.909,15.756 4.524,4.121 16.341,8.342 35.45,12.665 19.109,4.323 32.218,8.1 39.329,11.332 10.342,4.767 17.977,10.807 22.906,18.119 4.929,7.312 7.393,15.736 7.393,25.27 0,9.453 -2.707,18.361 -8.12,26.724 -5.414,8.363 -13.191,14.867 -23.331,19.513 -10.14,4.646 -21.553,6.969 -34.238,6.969 -16.079,0 -29.552,-2.343 -40.42,-7.03 -10.867,-4.686 -19.391,-11.736 -25.572,-21.149 -6.181,-9.413 -9.433,-20.058 -9.757,-31.935 z"
             style="fill-rule:nonzero;stroke:#63112e;stroke-width:1px;stroke-linecap:butt;stroke-miterlimit:2"
             id="path217" /><path
             d="m 8026.5,5442.71 v -156.709 h -58.538 v -20.967 h 140.831 v 20.967 h -58.78 v 156.709 z"
             style="fill-rule:nonzero;stroke:#63112e;stroke-width:1px;stroke-linecap:butt;stroke-miterlimit:2"
             id="path219" /><path
             d="m 8094.98,5442.71 68.234,-177.676 h 25.331 l 72.718,177.676 h -26.784 l -20.725,-53.812 h -74.294 l -19.513,53.812 z m 51.267,-72.961 h 60.235 l -18.543,-49.206 c -5.656,-14.948 -9.858,-27.23 -12.605,-36.845 -2.262,11.393 -5.454,22.705 -9.575,33.936 z"
             style="fill-rule:nonzero;stroke:#63112e;stroke-width:1px;stroke-linecap:butt;stroke-miterlimit:2"
             id="path221" /><path
             d="m 8280.41,5442.71 v -177.676 h 78.779 c 15.837,0 27.875,1.596 36.117,4.787 8.241,3.192 14.826,8.827 19.755,16.907 4.929,8.08 7.393,17.008 7.393,26.785 0,12.605 -4.08,23.23 -12.241,31.875 -8.16,8.645 -20.765,14.14 -37.813,16.483 6.221,2.989 10.948,5.939 14.18,8.847 6.868,6.303 13.372,14.181 19.513,23.634 l 30.905,48.358 h -29.572 l -23.513,-36.965 c -6.868,-10.666 -12.523,-18.827 -16.967,-24.482 -4.444,-5.656 -8.424,-9.615 -11.938,-11.878 -3.515,-2.262 -7.09,-3.838 -10.726,-4.727 -2.667,-0.565 -7.03,-0.848 -13.09,-0.848 h -27.269 v 78.9 z m 23.513,-99.261 h 50.539 c 10.746,0 19.15,-1.111 25.209,-3.333 6.06,-2.222 10.666,-5.777 13.817,-10.665 3.151,-4.889 4.727,-10.201 4.727,-15.938 0,-8.403 -3.05,-15.311 -9.151,-20.725 -6.1,-5.413 -15.735,-8.12 -28.905,-8.12 h -56.236 z"
             style="fill-rule:nonzero;stroke:#63112e;stroke-width:1px;stroke-linecap:butt;stroke-miterlimit:2"
             id="path223" /><path
             d="m 8500.02,5442.71 v -156.709 h -58.539 v -20.967 h 140.832 v 20.967 h -58.781 v 156.709 z"
             style="fill-rule:nonzero;stroke:#63112e;stroke-width:1px;stroke-linecap:butt;stroke-miterlimit:2"
             id="path225" /></g></g><g
         id="Analógicos"><circle
           cx="5363.1499"
           cy="7007.5"
           r="1148.5"
           style="fill:none;stroke:#000000;stroke-width:62.5px;stroke-linecap:square"
           id="circle229" /><circle
           cx="8680.1504"
           cy="7007.5"
           r="1148.5"
           style="fill:none;stroke:#000000;stroke-width:62.5px;stroke-linecap:square"
           id="circle231" /><circle
           cx="5363.1499"
           cy="7007.5"
           r="867.5"
           style="fill:#4d4d4d;stroke:#404040;stroke-width:62.5px;stroke-linecap:square"
           id="circle233" /><circle
           cx="8680.1504"
           cy="7007.5"
           r="867.5"
           style="fill:#4d4d4d;stroke:#404040;stroke-width:62.5px;stroke-linecap:square"
           id="circle235" /></g><text
         x="3265.8601"
         y="2699.28"
         style="font-size:286.779px;font-family:ArialMT, Arial, sans-serif;stroke:#63112e;stroke-width:1px;stroke-linecap:butt;stroke-miterlimit:2"
         id="text238">L</text><text
         x="10579.3"
         y="2699.28"
         style="font-size:286.779px;font-family:ArialMT, Arial, sans-serif;stroke:#63112e;stroke-width:1px;stroke-linecap:butt;stroke-miterlimit:2"
         id="text240">R</text></g></g></svg>
