<svg clip-rule="evenodd" fill-rule="evenodd" height="664.76788" stroke-linecap="round" stroke-linejoin="round" stroke-miterlimit="1.5" viewBox="0 0 12174.625 8309.5983" width="973.97003" xmlns="http://www.w3.org/2000/svg"><g transform="translate(-934.32827 -774.13414)"><path d="m10753.3 8451c-389.372-507.74-389.331-507.607-934.976-1289-75.558 560.925-556.692 994-1138.18 994-633.875 0-1148.5-514.626-1148.5-1148.5 0-41.211 2.175-81.918 6.417-122.013.017-.161.034-.323.052-.487h-1032.94c4.276 40.252 6.469 81.122 6.469 122.5 0 633.874-514.626 1148.5-1148.5 1148.5-581.486 0-1062.62-433.075-1138.18-994-535.503 767.622-535.459 768.031-934.976 1289-546.654 712.835-1177.32 754.202-1824 323-646.678-431.202-497.114-1201.6-456-1508 41.114-306.398 188.618-1499.22 238-1781 49.382-281.782 100.637-1065.49 193-1437 92.363-371.511 158.273-1152.75 553-1607 394.727-454.247 473.66-678.27 584-954s33.857-605 1146-605c1112.14 0 831.23 848.344 1012 1019 346.272 166.412 398 417 398 417h3775.31s51.728-250.588 398-417c180.77-170.656-100.142-1019 1012-1019 1112.14 0 1035.66 329.27 1146 605s189.273 499.753 584 954 460.638 1235.49 553 1607c92.363 371.511 143.618 1155.22 193 1437 49.382 281.782 196.886 1474.6 238 1781 41.114 306.398 190.678 1076.8-456 1508-646.678 431.202-1277.35 389.835-1824-323z" fill="#b3b3b3" stroke="#000" stroke-width="62.5"/><path d="m3770.66 5295.54c22.468 25.431 54.769 39.995 88.703 39.995h437.818c36.02 0 70.565-14.309 96.035-39.779s39.779-60.015 39.779-96.035v-466.371c0-36.02-14.309-70.565-39.779-96.035-25.47-25.471-60.015-39.78-96.035-39.78h-437.818c-33.934 0-66.235 14.565-88.703 39.996-60.337 68.296-183.002 207.14-248.009 280.722-24.364 27.578-24.364 68.987 0 96.565 65.007 73.582 187.672 212.426 248.009 280.722z" fill="#595959" stroke="#404040" stroke-width="41.67"/><path d="m3021.99 5386.2c-25.43 22.467-39.995 54.769-39.995 88.702v437.818c0 36.02 14.309 70.565 39.779 96.035s60.015 39.779 96.035 39.779h466.372c36.02 0 70.565-14.309 96.035-39.779s39.779-60.015 39.779-96.035v-437.818c0-33.933-14.565-66.235-39.995-88.702-68.297-60.338-207.141-183.002-280.723-248.01-27.578-24.364-68.986-24.364-96.564 0-73.582 65.008-212.426 187.672-280.723 248.01z" fill="#595959" stroke="#404040" stroke-width="41.67"/><path d="m2931.34 5295.54c-22.468 25.431-54.769 39.995-88.703 39.995-96.047 0-300.757 0-437.818 0-36.02 0-70.565-14.309-96.035-39.779s-39.779-60.015-39.779-96.035v-466.371c0-36.02 14.309-70.565 39.779-96.035 25.47-25.471 60.015-39.78 96.035-39.78h437.818c33.934 0 66.235 14.565 88.703 39.996 60.337 68.296 183.002 207.14 248.009 280.722 24.364 27.578 24.364 68.987 0 96.565-65.007 73.582-187.672 212.426-248.009 280.722z" fill="#595959" stroke="#404040" stroke-width="41.67"/><path d="m3021.99 4546.87c-25.43-22.467-39.995-54.769-39.995-88.703 0-96.047 0-300.757 0-437.817 0-36.02 14.309-70.565 39.779-96.035 25.47-25.471 60.015-39.78 96.035-39.78h466.372c36.02 0 70.565 14.309 96.035 39.78 25.47 25.47 39.779 60.015 39.779 96.035v437.817c0 33.934-14.565 66.236-39.995 88.703-68.297 60.338-207.141 183.002-280.723 248.01-27.578 24.364-68.986 24.364-96.564 0-73.582-65.008-212.426-187.672-280.723-248.01z" fill="#595959" stroke="#404040" stroke-width="41.67"/><g stroke="#000"><path d="m4810 4966.53-232 262v-524z" fill="none" stroke-width="20.83"/><path d="m1892 4966.53 232 262v-524z" fill="none" stroke-width="20.83"/><path d="m3351 6425.53-262-232h524z" fill="none" stroke-width="20.83"/><path d="m3351 3507.53-262 232h524z" fill="none" stroke-width="20.83"/><path d="m1875 3636s205.726-169.78 295-296.752c52.938-105.72 53.86-485.219 88-583.248s124.145-452 988-452 933.091 200.612 1047 584 82.114 526 816 526h1912.65" fill="none" stroke-width="20.83"/><path d="m2135 3211 251-1086s80.109-386 1069-386 1053 678.558 1053 806-14.804 222 214 222h2299.65" fill="none" stroke-width="20.83"/><path d="m4470 3240 254-1257" fill="none" stroke-width="20.83"/><path d="m4679 2679 404-311" fill="none" stroke-width="20.83"/><path d="m4616 2888 154 445" fill="none" stroke-width="20.83"/><path d="m2257 2711s-530.357 346.988-727 968" fill="none" stroke-width="20.83"/><path d="m2388 2118 67-345" fill="none" stroke-width="20.83"/><path d="m3195 8453 970-1409" fill="none" stroke-width="20.83"/><path d="m6604 6800h417.654" fill="none" stroke-width="20.83"/><path d="m4283.05 6645.21c-5.207 2.9-10.43 5.776-15.667 8.629-272.398 148.372-584.621 232.699-916.384 232.699-1059.68 0-1920-860.323-1920-1920 0-1059.68 860.323-1920 1920-1920 1059.68 0 1920 860.324 1920 1920 0 338.339-87.704 656.354-241.597 932.534" fill="none" stroke-width="41.67"/><path d="m3895 4422.53v-986.947c0-53.207-43.133-96.34-96.34-96.34h-895.32c-53.207 0-96.34 43.133-96.34 96.34v986.947h-987.66c-25.551 0-50.055 10.151-68.123 28.218-18.067 18.067-28.217 42.572-28.217 68.123v895.319c0 25.551 10.15 50.056 28.217 68.123 18.068 18.067 42.572 28.217 68.123 28.217h987.66v988.373c0 25.551 10.15 50.055 28.217 68.123 18.068 18.067 42.572 28.217 68.123 28.217h895.32c25.551 0 50.055-10.15 68.123-28.217 18.067-18.068 28.217-42.572 28.217-68.123v-988.373h987.66c25.551 0 50.055-10.15 68.123-28.217 18.067-18.067 28.217-42.572 28.217-68.123v-895.319c0-25.551-10.15-50.056-28.217-68.123-18.068-18.067-42.572-28.218-68.123-28.218z" fill="none" stroke-width="41.67"/><path d="m12168.3 3636s-205.726-169.78-295-296.752c-52.938-105.72-53.86-485.219-88-583.248s-124.145-452-988-452-933.091 200.612-1047 584-82.114 526-816 526h-1912.65" fill="none" stroke-width="20.83"/><path d="m11908.3 3211-251-1086s-80.109-386-1069-386c-988.89 0-1053 678.558-1053 806s14.804 222-214 222h-2299.65" fill="none" stroke-width="20.83"/><path d="m9573.31 3240-254-1257" fill="none" stroke-width="20.83"/><path d="m9364.31 2679-404-311" fill="none" stroke-width="20.83"/><path d="m9427.31 2888-154 445" fill="none" stroke-width="20.83"/><path d="m11786.3 2711s530.357 346.988 727 968" fill="none" stroke-width="20.83"/><path d="m11655.3 2118-67-345" fill="none" stroke-width="20.83"/><path d="m10848.3 8453-970-1409" fill="none" stroke-width="20.83"/><path d="m7439.31 6800h-417.653" fill="none" stroke-width="20.83"/><path d="m9787.41 6660.04c269.674 144.515 577.786 226.492 904.894 226.492 1059.68 0 1920-860.323 1920-1920 0-1059.68-860.323-1920-1920-1920-1059.68 0-1920 860.324-1920 1920 0 335.752 86.368 651.49 238.079 926.191" fill="none" stroke-width="41.67"/><path d="m10148.3 4422.53v-986.947c0-53.207 43.133-96.34 96.34-96.34h895.32c53.207 0 96.34 43.133 96.34 96.34v986.947h987.66c25.551 0 50.055 10.151 68.123 28.218 18.067 18.067 28.217 42.572 28.217 68.123v895.319c0 25.551-10.15 50.056-28.217 68.123-18.068 18.067-42.572 28.217-68.123 28.217h-987.66v988.373c0 25.551-10.15 50.055-28.217 68.123-18.068 18.067-42.572 28.217-68.123 28.217h-895.32c-25.551 0-50.055-10.15-68.123-28.217-18.067-18.068-28.217-42.572-28.217-68.123v-988.373h-987.66c-25.551 0-50.055-10.15-68.123-28.217-18.067-18.067-28.217-42.572-28.217-68.123 0-206.346 0-688.973 0-895.319 0-25.551 10.15-50.056 28.217-68.123 18.068-18.067 42.572-28.218 68.123-28.218z" fill="none" stroke-width="41.67"/></g><path d="m3511.78 1591c-224.789-5.298-789-13-874 310-131.822 500.924-48.891 239 708 239s803.274 397.046 917-90c92-394-454-452-751-459z" fill="#595959" stroke="#404040" stroke-width="41.67"/><path d="m10531.5 1591c224.789-5.298 789-13 874 310 131.822 500.924 48.891 239-708 239s-803.273 397.046-917-90c-92-394 454-452 751-459z" fill="#595959" stroke="#404040" stroke-width="41.67"/><path d="m3692.24 796.638c-224.79-5.953-789-14.609-874 348.364-131.822 562.916-48.891 268.578 708 268.578 756.89 0 803.273 446.182 917-101.138 92-442.76-454-507.937-751-515.804z" fill="#595959" stroke="#404040" stroke-width="41.67"/><path d="m10351.1 796.638c224.789-5.953 789-14.609 874 348.364 131.822 562.916 48.89 268.578-708 268.578-756.891 0-803.274 446.182-917-101.138-92-442.76 454-507.937 751-515.804z" fill="#595959" stroke="#404040" stroke-width="41.67"/><path d="m9856.2338 6093.1602v-26.6415h44.4875v-122.4998l-43.0853 26.8964v-28.1712l44.9973-29.1909h33.9074v152.9655h41.1732v26.6415z" fill="#e0e0e0" transform="matrix(-.98491673 -.17302903 .17302903 -.98491673 12155.198041 9433.919102)"/><path d="m17653.344 4924.1001v-26.6415h44.488v-122.4998l-43.086 26.8964v-28.1711l44.998-29.1909h33.907v152.9654h41.173v26.6415z" fill="#e0e0e0" transform="matrix(-.98480778 .17364801 -.17364801 -.98480778 28878.796462 3509.629233)"/><path d="m10137.751 5194.7598v-24.8569q7.011-15.424 19.885-30.0832 13.002-14.6592 32.633-30.5931 18.866-15.2965 26.386-25.2393 7.649-9.9428 7.649-19.5031 0-23.4547-23.583-23.4547-11.472 0-17.591 6.2461-5.991 6.1186-7.775 18.4833l-36.075-2.0395q3.06-24.9844 18.611-38.1139 15.679-13.1295 42.575-13.1295 29.064 0 44.615 13.257 15.552 13.257 15.552 37.2216 0 12.6196-4.971 22.8173-4.972 10.1977-12.748 18.8657-7.775 8.5406-17.336 16.0614-9.433 7.5208-18.356 14.6592-8.923 7.1384-16.316 14.4042-7.266 7.2659-10.835 15.5515h83.366v29.4459z" fill="#e0e0e0" transform="matrix(-.99254619 -.121869 .121869 -.99254619 13104.001296 7378.990558)"/><path d="m17420.25 4376.3999v-24.8569q7.011-15.424 19.885-30.0832 13.002-14.6592 32.633-30.5931 18.866-15.2965 26.386-25.2393 7.649-9.9427 7.649-19.5031 0-23.4547-23.583-23.4547-11.472 0-17.591 6.2461-5.991 6.1186-7.775 18.4834l-36.075-2.0396q3.06-24.9843 18.611-38.1139 15.679-13.1295 42.576-13.1295 29.063 0 44.614 13.257 15.552 13.257 15.552 37.2216 0 12.6196-4.971 22.8173-4.972 10.1977-12.748 18.8658-7.775 8.5405-17.336 16.0613-9.433 7.5208-18.356 14.6592-8.923 7.1384-16.316 14.4043-7.266 7.2658-10.835 15.5515h83.366v29.4458z" fill="#e0e0e0" transform="matrix(-.99254619 .121869 -.121869 -.99254619 28316.702972 3208.880413)"/><circle cx="9642.8096" cy="4966.5298" fill="#595959" r="461.5" stroke="#404040" stroke-width="41.67"/><path d="m11153.8 3917.03c0 254.709-206.791 461.5-461.5 461.5s-461.5-206.791-461.5-461.5c0-254.708 206.791-461.5 461.5-461.5s461.5 206.792 461.5 461.5z" fill="#595959" stroke="#404040" stroke-width="41.67"/><circle cx="11741.8" cy="4966.5298" fill="#595959" r="461.5" stroke="#404040" stroke-width="41.67"/><path d="m11153.8 6016.03c0 254.709-206.791 461.5-461.5 461.5s-461.5-206.791-461.5-461.5c0-254.708 206.791-461.5 461.5-461.5s461.5 206.792 461.5 461.5z" fill="#595959" stroke="#404040" stroke-width="41.67"/><path d="m10915 5793.34-445.386 445.385" fill="none" stroke="#b3b3b3" stroke-width="83.33"/><path d="m10469.6 5793.34 445.386 445.385" fill="none" stroke="#b3b3b3" stroke-width="83.33"/><path d="m10692.3 3603 252 504h-504z" fill="none" stroke="#b3b3b3" stroke-width="83.33"/><circle cx="11741.8" cy="4952.8701" fill="none" r="305.12601" stroke="#b3b3b3" stroke-width="83.33"/><path d="m9400.2695 4724h485.07101v485.07101h-485.07101z" fill="none" stroke="#b3b3b3" stroke-width="83.33"/><path d="m7353.15 6081.73c0-62.812-50.92-113.731-113.732-113.731h-435.537c-62.812 0-113.731 50.919-113.731 113.731v173.538c0 62.812 50.919 113.731 113.731 113.731h435.537c62.812 0 113.732-50.919 113.732-113.731z" fill="#595959" stroke="#404040" stroke-width="41.67"/><path d="m6176 4817.73c0-62.812-50.919-113.731-113.731-113.731-121.75 0-313.788 0-435.538 0-62.812 0-113.731 50.919-113.731 113.731v173.538c0 62.812 50.919 113.731 113.731 113.731h435.538c62.812 0 113.731-50.919 113.731-113.731 0-54.335 0-119.203 0-173.538z" fill="#595959" stroke="#404040" stroke-width="41.67"/><path d="m6832.1499 6516h379v124h-379z" fill="#a7de74" stroke="#404040" stroke-linecap="square" stroke-width="20.83"/><path d="m8466.86 4889.43c18.696 6.583 31.202 24.247 31.202 44.068s-12.506 37.485-31.202 44.068c-150.687 53.064-397.808 140.086-512.618 180.515-14.296 5.034-30.146 2.821-42.516-5.938-12.37-8.758-19.723-22.973-19.723-38.13v-361.03c0-15.157 7.353-29.372 19.723-38.13 12.37-8.759 28.22-10.972 42.516-5.938 114.81 40.429 361.931 127.451 512.618 180.515z" fill="#595959" stroke="#404040" stroke-width="41.67"/><path d="m6511.96 5844.83 68.235-177.676h25.33l72.719 177.676h-26.785l-20.725-53.812h-74.294l-19.513 53.812zm51.267-72.961h60.235l-18.543-49.206c-5.656-14.948-9.857-27.229-12.604-36.844-2.263 11.392-5.454 22.704-9.575 33.935z" fill-rule="nonzero" stroke="#63112e" stroke-linecap="butt" stroke-miterlimit="2"/><path d="m6696.78 5844.83v-177.676h24.118l93.323 139.499v-139.499h22.542v177.676h-24.118l-93.322-139.62v139.62z" fill-rule="nonzero" stroke="#63112e" stroke-linecap="butt" stroke-miterlimit="2"/><path d="m6856.76 5844.83 68.234-177.676h25.331l72.718 177.676h-26.784l-20.725-53.812h-74.294l-19.513 53.812zm51.267-72.961h60.235l-18.543-49.206c-5.656-14.948-9.858-27.229-12.605-36.844-2.262 11.392-5.454 22.704-9.574 33.935z" fill-rule="nonzero" stroke="#63112e" stroke-linecap="butt" stroke-miterlimit="2"/><path d="m7040.86 5844.83v-177.676h23.513v156.709h87.505v20.967z" fill-rule="nonzero" stroke="#63112e" stroke-linecap="butt" stroke-miterlimit="2"/><path d="m7172.73 5758.29c0-29.492 7.918-52.58 23.754-69.265 15.837-16.685 36.279-25.027 61.326-25.027 16.402 0 31.189 3.919 44.359 11.756 13.17 7.838 23.209 18.766 30.117 32.784 6.909 14.019 10.363 29.916 10.363 47.691 0 18.019-3.636 34.138-10.908 48.358-7.272 14.221-17.574 24.987-30.905 32.3-13.332 7.312-27.714 10.968-43.147 10.968-16.725 0-31.673-4.04-44.843-12.12s-23.149-19.109-29.936-33.087-10.18-28.764-10.18-44.358zm24.239.363c0 21.412 5.757 38.279 17.271 50.6 11.514 12.322 25.956 18.483 43.328 18.483 17.695 0 32.259-6.221 43.692-18.664s17.149-30.098 17.149-52.964c0-14.463-2.444-27.087-7.332-37.874-4.889-10.787-12.039-19.149-21.452-25.088s-19.978-8.908-31.693-8.908c-16.645 0-30.966 5.717-42.965 17.15-11.999 11.432-17.998 30.521-17.998 57.265z" fill-rule="nonzero" stroke="#63112e" stroke-linecap="butt" stroke-miterlimit="2"/><path d="m7456.09 5775.14v-20.846l75.264-.121v65.932c-11.555 9.211-23.472 16.139-35.754 20.785-12.281 4.646-24.886 6.969-37.813 6.969-17.453 0-33.31-3.737-47.571-11.211-14.26-7.474-25.027-18.28-32.299-32.42s-10.908-29.936-10.908-47.389c0-17.29 3.616-33.43 10.848-48.418 7.231-14.988 17.634-26.118 31.208-33.39s29.209-10.908 46.904-10.908c12.847 0 24.461 2.081 34.844 6.242s18.523 9.958 24.421 17.392c5.899 7.433 10.383 17.129 13.453 29.087l-21.209 5.818c-2.667-9.05-5.979-16.16-9.939-21.331-3.959-5.171-9.615-9.312-16.967-12.423-7.353-3.111-15.514-4.666-24.482-4.666-10.746 0-20.038 1.636-27.876 4.909-7.837 3.272-14.16 7.574-18.967 12.907-4.808 5.333-8.545 11.191-11.211 17.574-4.525 10.988-6.787 22.906-6.787 35.753 0 15.837 2.727 29.088 8.181 39.753s13.392 18.584 23.815 23.755 21.493 7.756 33.208 7.756c10.181 0 20.119-1.959 29.815-5.878 9.696-3.918 17.049-8.1 22.058-12.544v-33.087z" fill-rule="nonzero" stroke="#63112e" stroke-linecap="butt" stroke-miterlimit="2"/><path d="m5369.77 5385.62 22.18-1.939c1.05 8.887 3.494 16.179 7.332 21.876 3.838 5.696 9.797 10.302 17.877 13.816 8.08 3.515 17.169 5.272 27.269 5.272 8.969 0 16.887-1.333 23.755-3.999 6.868-2.667 11.978-6.323 15.332-10.969 3.353-4.645 5.029-9.716 5.029-15.21 0-5.575-1.616-10.443-4.848-14.604s-8.564-7.656-15.998-10.484c-4.767-1.858-15.311-4.747-31.632-8.665-16.322-3.919-27.755-7.616-34.299-11.09-8.484-4.444-14.807-9.958-18.968-16.544-4.161-6.585-6.241-13.957-6.241-22.118 0-8.969 2.545-17.352 7.635-25.149s12.524-13.715 22.3-17.755c9.777-4.04 20.644-6.06 32.603-6.06 13.17 0 24.785 2.121 34.844 6.363s17.796 10.483 23.209 18.725c5.414 8.241 8.323 17.574 8.727 27.997l-22.543 1.696c-1.212-11.231-5.313-19.714-12.302-25.451s-17.311-8.605-30.966-8.605c-14.22 0-24.583 2.606-31.087 7.817-6.504 5.212-9.756 11.494-9.756 18.846 0 6.383 2.302 11.635 6.908 15.756 4.525 4.121 16.341 8.342 35.45 12.665s32.219 8.1 39.329 11.332c10.342 4.767 17.977 10.807 22.906 18.119s7.393 15.736 7.393 25.27c0 9.453-2.707 18.361-8.12 26.724-5.414 8.363-13.19 14.867-23.331 19.513-10.14 4.646-21.553 6.969-34.238 6.969-16.079 0-29.552-2.343-40.419-7.03-10.868-4.686-19.392-11.736-25.573-21.149s-9.433-20.058-9.757-31.935z" fill-rule="nonzero" stroke="#63112e" stroke-linecap="butt" stroke-miterlimit="2"/><path d="m5543.81 5442.71v-177.676h128.47v20.967h-104.957v54.418h98.291v20.846h-98.291v60.478h109.078v20.967z" fill-rule="nonzero" stroke="#63112e" stroke-linecap="butt" stroke-miterlimit="2"/><path d="m5707.91 5442.71v-177.676h23.513v156.709h87.504v20.967z" fill-rule="nonzero" stroke="#63112e" stroke-linecap="butt" stroke-miterlimit="2"/><path d="m5847.41 5442.71v-177.676h128.469v20.967h-104.957v54.418h98.291v20.846h-98.291v60.478h109.078v20.967z" fill-rule="nonzero" stroke="#63112e" stroke-linecap="butt" stroke-miterlimit="2"/><path d="m6139.25 5380.41 23.512 5.939c-4.928 19.311-13.796 34.036-26.603 44.176-12.806 10.141-28.461 15.211-46.964 15.211-19.149 0-34.723-3.899-46.722-11.696-11.998-7.797-21.128-19.088-27.39-33.875-6.262-14.786-9.393-30.663-9.393-47.63 0-18.503 3.535-34.643 10.605-48.419s17.129-24.239 30.178-31.39 27.411-10.726 43.086-10.726c17.775 0 32.723 4.525 44.843 13.574 12.12 9.05 20.563 21.775 25.33 38.177l-23.148 5.454c-4.121-12.927-10.1-22.34-17.938-28.239-7.837-5.898-17.695-8.847-29.572-8.847-13.655 0-25.068 3.272-34.238 9.817-9.171 6.545-15.615 15.331-19.331 26.36-3.717 11.029-5.575 22.402-5.575 34.118 0 15.109 2.201 28.299 6.605 39.571 4.403 11.271 11.251 19.694 20.543 25.269s19.351 8.363 30.178 8.363c13.17 0 24.32-3.798 33.451-11.393 9.13-7.595 15.311-18.866 18.543-33.814z" fill-rule="nonzero" stroke="#63112e" stroke-linecap="butt" stroke-miterlimit="2"/><path d="m6236.94 5442.71v-156.709h-58.538v-20.967h140.832v20.967h-58.781v156.709z" fill-rule="nonzero" stroke="#63112e" stroke-linecap="butt" stroke-miterlimit="2"/><path d="m7807.74 5385.62 22.179-1.939c1.051 8.887 3.495 16.179 7.333 21.876 3.838 5.696 9.797 10.302 17.877 13.816 8.079 3.515 17.169 5.272 27.269 5.272 8.969 0 16.887-1.333 23.755-3.999 6.868-2.667 11.978-6.323 15.331-10.969 3.354-4.645 5.03-9.716 5.03-15.21 0-5.575-1.616-10.443-4.848-14.604s-8.564-7.656-15.998-10.484c-4.767-1.858-15.311-4.747-31.633-8.665-16.321-3.919-27.754-7.616-34.298-11.09-8.484-4.444-14.807-9.958-18.968-16.544-4.161-6.585-6.242-13.957-6.242-22.118 0-8.969 2.546-17.352 7.636-25.149s12.524-13.715 22.3-17.755c9.777-4.04 20.644-6.06 32.602-6.06 13.171 0 24.785 2.121 34.845 6.363 10.059 4.242 17.796 10.483 23.209 18.725 5.414 8.241 8.322 17.574 8.726 27.997l-22.542 1.696c-1.212-11.231-5.313-19.714-12.302-25.451s-17.311-8.605-30.966-8.605c-14.221 0-24.583 2.606-31.087 7.817-6.504 5.212-9.757 11.494-9.757 18.846 0 6.383 2.303 11.635 6.909 15.756 4.524 4.121 16.341 8.342 35.45 12.665s32.218 8.1 39.329 11.332c10.342 4.767 17.977 10.807 22.906 18.119s7.393 15.736 7.393 25.27c0 9.453-2.707 18.361-8.12 26.724-5.414 8.363-13.191 14.867-23.331 19.513s-21.553 6.969-34.238 6.969c-16.079 0-29.552-2.343-40.42-7.03-10.867-4.686-19.391-11.736-25.572-21.149s-9.433-20.058-9.757-31.935z" fill-rule="nonzero" stroke="#63112e" stroke-linecap="butt" stroke-miterlimit="2"/><path d="m8026.5 5442.71v-156.709h-58.538v-20.967h140.831v20.967h-58.78v156.709z" fill-rule="nonzero" stroke="#63112e" stroke-linecap="butt" stroke-miterlimit="2"/><path d="m8094.98 5442.71 68.234-177.676h25.331l72.718 177.676h-26.784l-20.725-53.812h-74.294l-19.513 53.812zm51.267-72.961h60.235l-18.543-49.206c-5.656-14.948-9.858-27.23-12.605-36.845-2.262 11.393-5.454 22.705-9.575 33.936z" fill-rule="nonzero" stroke="#63112e" stroke-linecap="butt" stroke-miterlimit="2"/><path d="m8280.41 5442.71v-177.676h78.779c15.837 0 27.875 1.596 36.117 4.787 8.241 3.192 14.826 8.827 19.755 16.907s7.393 17.008 7.393 26.785c0 12.605-4.08 23.23-12.241 31.875-8.16 8.645-20.765 14.14-37.813 16.483 6.221 2.989 10.948 5.939 14.18 8.847 6.868 6.303 13.372 14.181 19.513 23.634l30.905 48.358h-29.572l-23.513-36.965c-6.868-10.666-12.523-18.827-16.967-24.482-4.444-5.656-8.424-9.615-11.938-11.878-3.515-2.262-7.09-3.838-10.726-4.727-2.667-.565-7.03-.848-13.09-.848h-27.269v78.9zm23.513-99.261h50.539c10.746 0 19.15-1.111 25.209-3.333 6.06-2.222 10.666-5.777 13.817-10.665 3.151-4.889 4.727-10.201 4.727-15.938 0-8.403-3.05-15.311-9.151-20.725-6.1-5.413-15.735-8.12-28.905-8.12h-56.236z" fill-rule="nonzero" stroke="#63112e" stroke-linecap="butt" stroke-miterlimit="2"/><path d="m8500.02 5442.71v-156.709h-58.539v-20.967h140.832v20.967h-58.781v156.709z" fill-rule="nonzero" stroke="#63112e" stroke-linecap="butt" stroke-miterlimit="2"/><circle cx="5363.1499" cy="7007.5" fill="none" r="1148.5" stroke="#000" stroke-linecap="square" stroke-width="62.5"/><circle cx="8680.1504" cy="7007.5" fill="none" r="1148.5" stroke="#000" stroke-linecap="square" stroke-width="62.5"/><circle cx="5363.1499" cy="7007.5" fill="#4d4d4d" r="867.5" stroke="#404040" stroke-linecap="square" stroke-width="62.5"/><circle cx="8680.1504" cy="7007.5" fill="#4d4d4d" r="867.5" stroke="#404040" stroke-linecap="square" stroke-width="62.5"/><path d="m3289.3849 2699.28v-197.3006h26.7455v175.4561h99.7006v21.8445z" stroke="#63112e" stroke-linecap="butt" stroke-miterlimit="2"/><path d="m10742.293 2699.28-51.25-81.9168h-61.473v81.9168h-26.745v-197.3006h92.839q33.327 0 51.39 14.9831 18.204 14.8431 18.204 41.4486 0 21.9845-12.883 36.9676-12.742 14.983-35.287 18.9038l56.012 84.9975zm-3.92-140.5889q0-17.2235-11.763-26.1854-11.622-9.1018-33.607-9.1018h-63.433v72.8149h64.553q21.145 0 32.627-9.802 11.623-9.942 11.623-27.7257z" stroke="#63112e" stroke-linecap="butt" stroke-miterlimit="2"/></g></svg>