<?xml version="1.0" encoding="UTF-8" standalone="no"?>
<svg
   width="946.85797"
   height="658.63861"
   viewBox="0 0 11835.725 8232.9829"
   version="1.1"
   xml:space="preserve"
   style="clip-rule:evenodd;fill-rule:evenodd;stroke-linecap:round;stroke-linejoin:round;stroke-miterlimit:1.5"
   id="svg207"
   sodipodi:docname="digital_controller.svg"
   inkscape:version="1.2.1 (9c6d41e410, 2022-07-14)"
   xmlns:inkscape="http://www.inkscape.org/namespaces/inkscape"
   xmlns:sodipodi="http://sodipodi.sourceforge.net/DTD/sodipodi-0.dtd"
   xmlns="http://www.w3.org/2000/svg"
   xmlns:svg="http://www.w3.org/2000/svg"
   xmlns:serif="http://www.serif.com/"><defs
     id="defs211" /><sodipodi:namedview
     id="namedview209"
     pagecolor="#ffffff"
     bordercolor="#999999"
     borderopacity="1"
     inkscape:pageshadow="0"
     inkscape:pageopacity="0"
     inkscape:pagecheckerboard="0"
     showgrid="false"
     inkscape:zoom="2.0261727"
     inkscape:cx="859.74901"
     inkscape:cy="525.8683"
     inkscape:window-width="3142"
     inkscape:window-height="1675"
     inkscape:window-x="-11"
     inkscape:window-y="-11"
     inkscape:window-maximized="1"
     inkscape:current-layer="svg207"
     inkscape:showpageshadow="2"
     inkscape:deskcolor="#d1d1d1" /><g
     id="g327"
     transform="translate(-1139.249,-875.841)"><path
       id="Base--Background-"
       serif:id="Base (Background)"
       d="m 5465.29,6534 c -405.109,0 -443.787,14.871 -511.634,86.341 -126.362,133.108 -912.097,1142.92 -1458.75,1855.75 -546.654,712.834 -1177.32,754.202 -1824,323 -646.677,-431.203 -497.113,-1201.6 -456,-1508 41.114,-306.399 188.619,-1499.22 238,-1781 49.382,-281.783 100.638,-1065.49 193,-1437 92.363,-371.512 158.273,-1152.75 553,-1607 394.728,-454.247 473.661,-678.27 584,-954 110.34,-275.731 33.858,-605 1146,-605 1112.14,0 831.23,848.344 1012,1019 346.272,166.412 398,417 398,417 h 3436.41 c 0,0 51.728,-250.588 398,-417 180.77,-170.656 -100.143,-1019 1012,-1019 1112.14,0 1035.66,329.269 1146,605 110.34,275.73 189.273,499.753 584,954 394.727,454.246 460.637,1235.49 553,1607 92.363,371.511 143.618,1155.22 193,1437 49.382,281.782 196.886,1474.6 238,1781 41.114,306.398 190.678,1076.8 -456,1508 -646.678,431.202 -1277.35,389.834 -1824,-323 -487.936,-636.268 -1166.35,-1509.14 -1396.32,-1783.97 -27.675,-33.073 -48.855,-57.486 -62.428,-71.783 -60.507,-63.738 -98.797,-86.341 -392.561,-86.341 h -3302.71 z"
       style="fill:#b3b3b3;stroke:#000000;stroke-width:62.5px" /><g
       id="Base"><path
         d="m 2079.91,3661.09 c 0,0 205.726,-169.78 295,-296.752 52.939,-105.72 53.861,-485.219 88,-583.248 34.14,-98.03 124.145,-452 988,-452 863.856,0 933.092,200.612 1047,584 113.909,383.387 82.114,526 816,526 h 1912.65"
         style="fill:none;stroke:#000000;stroke-width:20.83px"
         id="path3" /><path
         d="m 12034.3,3661.09 c 0,0 -205.726,-169.78 -295,-296.752 -52.938,-105.72 -53.86,-485.219 -88,-583.248 -34.14,-98.03 -124.145,-452 -988,-452 -863.855,0 -933.091,200.612 -1047,584 -113.909,383.387 -82.114,526 -816,526 H 6887.65"
         style="fill:none;stroke:#000000;stroke-width:20.83px"
         id="path5" /><path
         d="m 2339.91,3236.09 251,-1086 c 0,0 80.11,-386 1069,-386 988.891,0 1053,678.557 1053,806 0,127.442 -14.803,222 214,222 h 2299.65"
         style="fill:none;stroke:#000000;stroke-width:20.83px"
         id="path7" /><path
         d="m 11774.3,3236.09 -251,-1086 c 0,0 -80.109,-386 -1069,-386 -988.891,0 -1053,678.557 -1053,806 0,127.442 14.804,222 -214,222 H 6887.65"
         style="fill:none;stroke:#000000;stroke-width:20.83px"
         id="path9" /><path
         d="m 4674.91,3265.09 254,-1257"
         style="fill:none;stroke:#000000;stroke-width:20.83px"
         id="path11" /><path
         d="m 9439.31,3265.09 -254,-1257"
         style="fill:none;stroke:#000000;stroke-width:20.83px"
         id="path13" /><path
         d="m 4883.91,2704.09 404,-311"
         style="fill:none;stroke:#000000;stroke-width:20.83px"
         id="path15" /><path
         d="m 9230.31,2704.09 -404,-311"
         style="fill:none;stroke:#000000;stroke-width:20.83px"
         id="path17" /><path
         d="m 4820.91,2913.09 154,445"
         style="fill:none;stroke:#000000;stroke-width:20.83px"
         id="path19" /><path
         d="m 9293.31,2913.09 -154,445"
         style="fill:none;stroke:#000000;stroke-width:20.83px"
         id="path21" /><path
         d="m 2461.91,2736.09 c 0,0 -530.356,346.987 -727,968"
         style="fill:none;stroke:#000000;stroke-width:20.83px"
         id="path23" /><path
         d="m 11652.3,2736.09 c 0,0 530.357,346.987 727,968"
         style="fill:none;stroke:#000000;stroke-width:20.83px"
         id="path25" /><path
         d="m 2592.91,2143.09 67,-345"
         style="fill:none;stroke:#000000;stroke-width:20.83px"
         id="path27" /><path
         d="m 11521.3,2143.09 -67,-345"
         style="fill:none;stroke:#000000;stroke-width:20.83px"
         id="path29" /><path
         d="m 3629.91,8163.09 970,-1409"
         style="fill:none;stroke:#000000;stroke-width:20.83px"
         id="path31" /><path
         d="m 10484.3,8163.09 -970,-1409"
         style="fill:none;stroke:#000000;stroke-width:20.83px"
         id="path33" /><path
         d="m 5159.65,6442 h 3724"
         style="fill:none;stroke:#000000;stroke-width:20.83px"
         id="path35" /><circle
         cx="3556.9099"
         cy="4991.6299"
         r="1920"
         style="fill:none;stroke:#000000;stroke-width:41.67px"
         id="circle37" /><circle
         cx="10557.3"
         cy="4991.6299"
         r="1920"
         style="fill:none;stroke:#000000;stroke-width:41.67px"
         id="circle39" /><path
         d="m 4069.02,4447.63 v -986.947 c 0,-53.208 -43.133,-96.34 -96.34,-96.34 h -895.32 c -53.207,0 -96.34,43.132 -96.34,96.34 v 986.947 h -987.66 c -25.551,0 -50.055,10.15 -68.123,28.217 -18.067,18.068 -28.217,42.572 -28.217,68.123 v 895.32 c 0,25.551 10.15,50.055 28.217,68.123 18.068,18.067 42.572,28.217 68.123,28.217 h 987.66 v 988.372 c 0,25.551 10.15,50.056 28.217,68.123 18.068,18.067 42.572,28.218 68.123,28.218 h 895.32 c 25.551,0 50.055,-10.151 68.123,-28.218 18.067,-18.067 28.217,-42.572 28.217,-68.123 V 5535.63 h 987.66 c 25.551,0 50.055,-10.15 68.123,-28.217 18.067,-18.068 28.217,-42.572 28.217,-68.123 v -895.32 c 0,-25.551 -10.15,-50.055 -28.217,-68.123 -18.068,-18.067 -42.572,-28.217 -68.123,-28.217 z"
         style="fill:none;stroke:#000000;stroke-width:41.67px"
         id="path41" /><path
         d="m 10045.2,4447.63 c 0,0 0,-721.659 0,-986.947 0,-53.208 43.133,-96.34 96.341,-96.34 206.346,0 688.973,0 895.319,0 53.208,0 96.34,43.132 96.34,96.34 v 986.947 h 987.66 c 25.551,0 50.056,10.15 68.123,28.217 18.067,18.068 28.217,42.572 28.217,68.123 0,206.347 0,688.973 0,895.32 0,25.551 -10.15,50.055 -28.217,68.123 -18.067,18.067 -42.572,28.217 -68.123,28.217 -265.411,0 -987.66,0 -987.66,0 0,0 0,722.838 0,988.372 0,25.551 -10.15,50.056 -28.217,68.123 -18.067,18.067 -42.572,28.218 -68.123,28.218 h -895.319 c -25.551,0 -50.056,-10.151 -68.123,-28.218 -18.067,-18.067 -28.218,-42.572 -28.218,-68.123 V 5535.63 h -987.659 c -25.551,0 -50.056,-10.15 -68.123,-28.217 -18.067,-18.068 -28.218,-42.572 -28.218,-68.123 v -895.32 c 0,-25.551 10.151,-50.055 28.218,-68.123 18.067,-18.067 42.572,-28.217 68.123,-28.217 z"
         style="fill:none;stroke:#000000;stroke-width:41.67px"
         id="path43" /></g><g
       id="Duckstation-Logo"
       serif:id="Duckstation Logo"><g
         id="Duck"><g
           id="Camada2" /></g></g><g
       id="Controle"><g
         id="D-Pad"><g
           id="D-Pad1"
           serif:id="D-Pad"><g
             id="Botões"><path
               d="m 3931.66,5295.54 c 22.468,25.431 54.769,39.995 88.703,39.995 96.047,0 300.757,0 437.818,0 36.02,0 70.565,-14.309 96.035,-39.779 25.47,-25.47 39.779,-60.015 39.779,-96.035 V 4733.35 c 0,-36.02 -14.309,-70.565 -39.779,-96.035 -25.47,-25.471 -60.015,-39.78 -96.035,-39.78 h -437.818 c -33.934,0 -66.235,14.565 -88.703,39.996 -60.337,68.296 -183.002,207.14 -248.009,280.722 -24.364,27.578 -24.364,68.987 0,96.565 65.007,73.582 187.672,212.426 248.009,280.722 z"
               style="fill:#595959;stroke:#404040;stroke-width:41.67px"
               id="path117" /><path
               d="m 3182.99,5386.2 c -25.43,22.467 -39.995,54.769 -39.995,88.702 0,96.048 0,300.758 0,437.818 0,36.02 14.309,70.565 39.779,96.035 25.47,25.47 60.015,39.779 96.035,39.779 h 466.372 c 36.02,0 70.565,-14.309 96.035,-39.779 25.47,-25.47 39.779,-60.015 39.779,-96.035 v -437.818 c 0,-33.933 -14.565,-66.235 -39.995,-88.702 -68.297,-60.338 -207.141,-183.002 -280.723,-248.01 -27.578,-24.364 -68.986,-24.364 -96.564,0 -73.582,65.008 -212.426,187.672 -280.723,248.01 z"
               style="fill:#595959;stroke:#404040;stroke-width:41.67px"
               id="path119" /><path
               d="m 3092.34,5295.54 c -22.468,25.431 -54.769,39.995 -88.703,39.995 -96.047,0 -300.757,0 -437.818,0 -36.02,0 -70.565,-14.309 -96.035,-39.779 -25.47,-25.47 -39.779,-60.015 -39.779,-96.035 V 4733.35 c 0,-36.02 14.309,-70.565 39.779,-96.035 25.47,-25.471 60.015,-39.78 96.035,-39.78 h 437.818 c 33.934,0 66.235,14.565 88.703,39.996 60.337,68.296 183.002,207.14 248.009,280.722 24.364,27.578 24.364,68.987 0,96.565 -65.007,73.582 -187.672,212.426 -248.009,280.722 z"
               style="fill:#595959;stroke:#404040;stroke-width:41.67px"
               id="path121" /><path
               d="m 3182.99,4546.87 c -25.43,-22.467 -39.995,-54.769 -39.995,-88.703 V 4020.35 c 0,-36.02 14.309,-70.565 39.779,-96.035 25.47,-25.471 60.015,-39.78 96.035,-39.78 h 466.372 c 36.02,0 70.565,14.309 96.035,39.78 25.47,25.47 39.779,60.015 39.779,96.035 v 437.817 c 0,33.934 -14.565,66.236 -39.995,88.703 -68.297,60.338 -207.141,183.002 -280.723,248.01 -27.578,24.364 -68.986,24.364 -96.564,0 -73.582,-65.008 -212.426,-187.672 -280.723,-248.01 z"
               style="fill:#595959;stroke:#404040;stroke-width:41.67px"
               id="path123" /></g><path
             d="m 4971,4992.34 -232,262 v -524 z"
             style="fill:none;stroke:#000000;stroke-width:20.83px"
             id="path126" /><path
             d="m 2053,4992.34 232,262 v -524 z"
             style="fill:none;stroke:#000000;stroke-width:20.83px"
             id="path128" /><path
             d="m 3512,6451.34 -262,-232 h 524 z"
             style="fill:none;stroke:#000000;stroke-width:20.83px"
             id="path130" /><path
             d="m 3512,3533.34 -262,232 h 524 z"
             style="fill:none;stroke:#000000;stroke-width:20.83px"
             id="path132" /></g></g><g
         id="Botões1"
         serif:id="Botões"><path
           id="L1"
           d="m 3716.46,1657.09 c -224.79,-5.299 -789,-13 -874,310 -131.822,500.923 -48.891,239 708,239 756.89,0 803.273,397.046 917,-90 92,-394 -454,-452 -751,-459 z"
           style="fill:#595959;stroke:#404040;stroke-width:41.67px" /><g
           transform="rotate(-170.03602,6661.2331,4228.1634)"
           id="g139"><text
             x="10012.2"
             y="6134.1602"
             style="font-weight:700;font-size:261.061px;font-family:Arial-BoldMT, Arial, sans-serif;fill:#e0e0e0"
             id="text137">1</text></g><path
           id="R1"
           d="m 10397.8,1657.09 c 224.789,-5.299 789,-13 874,310 131.822,500.923 48.891,239 -708,239 -756.891,0 -803.274,397.046 -917,-90 -92,-394 454,-452 751,-459 z"
           style="fill:#595959;stroke:#404040;stroke-width:41.67px" /><g
           transform="rotate(170.00001,14116.687,3018.0977)"
           id="g144"><text
             x="17467.699"
             y="4924.1001"
             style="font-weight:700;font-size:261.061px;font-family:Arial-BoldMT, Arial, sans-serif;fill:#e0e0e0"
             id="text142">1</text></g><path
           id="L2"
           d="m 3896.92,989.163 c -224.789,-4.999 -789,-12.266 -874,292.496 -131.822,472.639 -48.891,225.505 708,225.505 756.891,0 803.274,374.627 917,-84.919 92,-371.753 -454,-426.478 -751,-433.082 z"
           style="fill:#595959;stroke:#404040;stroke-width:41.67px" /><g
           transform="rotate(-173.00002,6950.1131,3441.565)"
           id="g149"><text
             x="10301.1"
             y="5347.5601"
             style="font-weight:700;font-size:261.061px;font-family:Arial-BoldMT, Arial, sans-serif;fill:#e0e0e0"
             id="text147">2</text></g><path
           id="R2"
           d="m 10217.3,989.163 c 224.79,-4.999 789,-12.266 874,292.496 131.822,472.639 48.891,225.505 -708,225.505 -756.891,0 -803.273,374.627 -917,-84.919 -92,-371.753 454,-426.478 751,-433.082 z"
           style="fill:#595959;stroke:#404040;stroke-width:41.67px" /><g
           transform="rotate(173.00002,13891.026,2582.2066)"
           id="g154"><text
             x="17242"
             y="4488.21"
             style="font-weight:700;font-size:261.061px;font-family:Arial-BoldMT, Arial, sans-serif;fill:#e0e0e0"
             id="text152">2</text></g></g><g
         id="Botões2"
         serif:id="Botões"><circle
           cx="9539.7002"
           cy="4992.3398"
           r="461.5"
           style="fill:#595959;stroke:#404040;stroke-width:41.67px"
           id="circle157" /><path
           d="m 11050.7,3942.84 c 0,254.708 -206.791,461.5 -461.5,461.5 -254.708,0 -461.5,-206.792 -461.5,-461.5 0,-254.709 206.792,-461.5 461.5,-461.5 254.709,0 461.5,206.791 461.5,461.5 z"
           style="fill:#595959;stroke:#404040;stroke-width:41.67px"
           id="path159" /><circle
           cx="11638.7"
           cy="4992.3398"
           r="461.5"
           style="fill:#595959;stroke:#404040;stroke-width:41.67px"
           id="circle161" /><path
           d="m 11050.7,6041.84 c 0,254.708 -206.791,461.5 -461.5,461.5 -254.708,0 -461.5,-206.792 -461.5,-461.5 0,-254.709 206.792,-461.5 461.5,-461.5 254.709,0 461.5,206.791 461.5,461.5 z"
           style="fill:#595959;stroke:#404040;stroke-width:41.67px"
           id="path163" /><g
           id="X"><path
             d="m 10811.9,5819.15 -445.385,445.385"
             style="fill:none;stroke:#6f97e3;stroke-width:83.33px"
             id="path165" /><path
             d="m 10366.5,5819.15 445.385,445.385"
             style="fill:none;stroke:#6f97e3;stroke-width:83.33px"
             id="path167" /></g><path
           d="m 10589.2,3628.81 252,504 h -504 z"
           style="fill:none;stroke:#7ae0c4;stroke-width:83.33px"
           id="path170" /><circle
           cx="11638.7"
           cy="4978.6802"
           r="305.12601"
           style="fill:none;stroke:#ee676b;stroke-width:83.33px"
           id="circle172" /><rect
           x="9297.1699"
           y="4749.8101"
           width="485.07101"
           height="485.07101"
           style="fill:none;stroke:#f37caa;stroke-width:83.33px"
           id="rect174" /></g><g
         id="Botões-Centrais"
         serif:id="Botões Centrais"><path
           id="Select"
           d="m 6604,5599.73 c 0,-62.812 -50.919,-113.731 -113.731,-113.731 -121.75,0 -313.788,0 -435.538,0 -62.812,0 -113.731,50.919 -113.731,113.731 v 173.538 c 0,62.812 50.919,113.731 113.731,113.731 h 435.538 c 62.812,0 113.731,-50.919 113.731,-113.731 z"
           style="fill:#595959;stroke:#404040;stroke-width:41.67px" /><path
           id="Start"
           d="m 8078.86,5671.43 c 18.696,6.583 31.202,24.247 31.202,44.068 0,19.821 -12.506,37.485 -31.202,44.068 -150.687,53.064 -397.808,140.086 -512.618,180.515 -14.296,5.034 -30.146,2.821 -42.516,-5.938 -12.37,-8.758 -19.723,-22.973 -19.723,-38.13 0,-94.325 0,-266.705 0,-361.03 0,-15.157 7.353,-29.372 19.723,-38.13 12.37,-8.759 28.22,-10.972 42.516,-5.938 114.81,40.429 361.931,127.451 512.618,180.515 z"
           style="fill:#595959;stroke:#404040;stroke-width:41.67px" /></g><text
         id="L"
         x="3394.97"
         y="2739.28"
         style="font-size:286.779px;font-family:ArialMT, Arial, sans-serif;stroke:#63112e;stroke-width:1px;stroke-linecap:butt;stroke-miterlimit:2">L</text><text
         id="R"
         x="10437.5"
         y="2739.28"
         style="font-size:286.779px;font-family:ArialMT, Arial, sans-serif;stroke:#63112e;stroke-width:1px;stroke-linecap:butt;stroke-miterlimit:2">R</text><g
         id="Select1"
         serif:id="Select"><path
           d="m 5701.16,6158.8 39.778,-3.86 c 2.394,13.328 7.251,23.117 14.571,29.367 7.321,6.25 17.196,9.375 29.627,9.375 13.167,0 23.089,-2.78 29.765,-8.341 6.676,-5.561 10.013,-12.064 10.013,-19.509 0,-4.78 -1.404,-8.847 -4.212,-12.202 -2.809,-3.355 -7.712,-6.273 -14.71,-8.755 -4.788,-1.654 -15.699,-4.595 -32.734,-8.823 -21.915,-5.423 -37.292,-12.087 -46.132,-19.992 -12.431,-11.121 -18.646,-24.679 -18.646,-40.672 0,-10.294 2.923,-19.922 8.77,-28.884 5.847,-8.961 14.273,-15.786 25.276,-20.474 11.004,-4.687 24.286,-7.031 39.848,-7.031 25.414,0 44.543,5.561 57.388,16.682 12.845,11.122 19.59,25.966 20.235,44.533 l -40.884,1.792 c -1.749,-10.386 -5.501,-17.854 -11.256,-22.404 -5.755,-4.55 -14.388,-6.825 -25.898,-6.825 -11.878,0 -21.178,2.436 -27.9,7.308 -4.327,3.125 -6.491,7.307 -6.491,12.546 0,4.779 2.025,8.87 6.077,12.27 5.156,4.32 17.679,8.824 37.568,13.512 19.89,4.687 34.599,9.536 44.129,14.545 9.531,5.01 16.989,11.857 22.376,20.543 5.386,8.686 8.08,19.417 8.08,32.193 0,11.581 -3.223,22.427 -9.669,32.538 -6.445,10.11 -15.561,17.624 -27.347,22.542 -11.786,4.917 -26.473,7.376 -44.06,7.376 -25.598,0 -45.257,-5.906 -58.977,-17.717 -13.72,-11.811 -21.915,-29.022 -24.585,-51.633 z"
           style="fill-rule:nonzero"
           id="path182" /><path
           d="m 5900.19,6224.57 v -202.119 h 150.135 v 34.192 h -109.252 v 44.808 h 101.656 v 34.054 h -101.656 v 55.011 h 113.12 v 34.054 z"
           style="fill-rule:nonzero"
           id="path184" /><path
           d="m 6089.96,6224.57 v -200.465 h 40.883 v 166.411 h 101.656 v 34.054 z"
           style="fill-rule:nonzero"
           id="path186" /><path
           d="m 6261.64,6224.57 v -202.119 h 150.136 v 34.192 h -109.253 v 44.808 h 101.656 v 34.054 h -101.656 v 55.011 h 113.12 v 34.054 z"
           style="fill-rule:nonzero"
           id="path188" /><path
           d="m 6579.87,6150.25 39.64,12.547 c -6.077,22.059 -16.183,38.443 -30.317,49.151 -14.134,10.708 -32.067,16.062 -53.798,16.062 -26.887,0 -48.986,-9.169 -66.297,-27.505 -17.311,-18.337 -25.966,-43.407 -25.966,-75.209 0,-33.641 8.701,-59.767 26.104,-78.38 17.403,-18.613 40.285,-27.919 68.646,-27.919 24.769,0 44.888,7.307 60.358,21.922 9.208,8.639 16.114,21.048 20.718,37.225 l -40.469,9.651 c -2.394,-10.478 -7.39,-18.751 -14.986,-24.817 -7.597,-6.066 -16.828,-9.1 -27.693,-9.1 -15.009,0 -27.187,5.377 -36.533,16.131 -9.346,10.754 -14.019,28.172 -14.019,52.254 0,25.552 4.604,43.751 13.812,54.597 9.208,10.846 21.178,16.268 35.911,16.268 10.866,0 20.212,-3.446 28.038,-10.34 7.827,-6.893 13.444,-17.739 16.851,-32.538 z"
           style="fill-rule:nonzero"
           id="path190" /><path
           d="m 6700.17,6224.57 v -167.927 h -60.082 v -34.192 h 160.909 v 34.192 h -59.944 v 167.927 z"
           style="fill-rule:nonzero"
           id="path192" /></g><g
         id="Start1"
         serif:id="Start"><path
           d="m 7354.14,6158.8 39.779,-3.86 c 2.394,13.328 7.251,23.117 14.571,29.367 7.321,6.25 17.196,9.375 29.627,9.375 13.167,0 23.089,-2.78 29.765,-8.341 6.675,-5.561 10.013,-12.064 10.013,-19.509 0,-4.78 -1.404,-8.847 -4.212,-12.202 -2.809,-3.355 -7.712,-6.273 -14.71,-8.755 -4.788,-1.654 -15.7,-4.595 -32.734,-8.823 -21.915,-5.423 -37.293,-12.087 -46.132,-19.992 -12.431,-11.121 -18.646,-24.679 -18.646,-40.672 0,-10.294 2.923,-19.922 8.77,-28.884 5.847,-8.961 14.273,-15.786 25.276,-20.474 11.004,-4.687 24.286,-7.031 39.847,-7.031 25.414,0 44.544,5.561 57.389,16.682 12.845,11.122 19.59,25.966 20.235,44.533 l -40.884,1.792 c -1.749,-10.386 -5.502,-17.854 -11.257,-22.404 -5.754,-4.55 -14.387,-6.825 -25.897,-6.825 -11.878,0 -21.178,2.436 -27.9,7.308 -4.328,3.125 -6.492,7.307 -6.492,12.546 0,4.779 2.026,8.87 6.078,12.27 5.156,4.32 17.679,8.824 37.568,13.512 19.889,4.687 34.599,9.536 44.129,14.545 9.53,5.01 16.989,11.857 22.376,20.543 5.386,8.686 8.08,19.417 8.08,32.193 0,11.581 -3.223,22.427 -9.669,32.538 -6.445,10.11 -15.561,17.624 -27.347,22.542 -11.787,4.917 -26.473,7.376 -44.061,7.376 -25.598,0 -45.257,-5.906 -58.976,-17.717 -13.72,-11.811 -21.915,-29.022 -24.586,-51.633 z"
           style="fill-rule:nonzero"
           id="path195" /><path
           d="m 7598.75,6224.57 v -167.927 h -60.082 v -34.192 h 160.909 v 34.192 h -59.944 v 167.927 z"
           style="fill-rule:nonzero"
           id="path197" /><path
           d="m 7887.55,6224.57 h -44.474 l -17.679,-45.911 h -80.938 l -16.713,45.911 h -43.369 l 78.866,-202.119 h 43.231 z m -75.275,-79.965 -27.9,-75.002 -27.348,75.002 z"
           style="fill-rule:nonzero"
           id="path199" /><path
           d="m 7909.38,6224.57 v -202.119 h 86.048 c 21.639,0 37.362,1.815 47.168,5.446 9.807,3.63 17.657,10.087 23.55,19.371 5.893,9.283 8.839,19.899 8.839,31.848 0,15.166 -4.466,27.689 -13.397,37.57 -8.932,9.881 -22.284,16.108 -40.055,18.681 8.84,5.148 16.137,10.8 21.892,16.959 5.755,6.158 13.513,17.096 23.273,32.813 l 24.723,39.431 h -48.894 l -29.557,-43.981 c -10.497,-15.717 -17.68,-25.621 -21.547,-29.711 -3.867,-4.09 -7.965,-6.894 -12.293,-8.41 -4.327,-1.517 -11.187,-2.275 -20.579,-2.275 h -8.288 v 84.377 z m 40.883,-116.639 h 30.249 c 19.613,0 31.859,-0.827 36.739,-2.482 4.881,-1.654 8.702,-4.503 11.464,-8.548 2.763,-4.044 4.144,-9.099 4.144,-15.166 0,-6.801 -1.819,-12.293 -5.456,-16.475 -3.637,-4.182 -8.77,-6.825 -15.4,-7.928 -3.315,-0.459 -13.26,-0.689 -29.834,-0.689 h -31.906 z"
           style="fill-rule:nonzero"
           id="path201" /><path
           d="m 8159.1,6224.57 v -167.927 h -60.082 v -34.192 h 160.909 v 34.192 h -59.944 v 167.927 z"
           style="fill-rule:nonzero"
           id="path203" /></g></g></g></svg>
