<svg clip-rule="evenodd" fill-rule="evenodd" height="641.67084" stroke-linecap="round" stroke-linejoin="round" stroke-miterlimit="1.5" viewBox="0 0 11417.004 8020.8855" width="913.36029" xmlns="http://www.w3.org/2000/svg"><g transform="translate(-1243.6261 -998.74998)"><path d="m2377 2184.1c-115.918 0-384.008-4.612-418 0-125.303 17-619.626 1035.52-467 1139.9 99.068 67.753 138.916 25.61 146 36s-167.476 270.784-30 270c1285.19-7.332 1014.64 1083.07 978 1154-249.839 483.616-654.595 697.598-1066.55 1946-288.331 873.757-418.429 1688.57 117.329 1810.58 17.663 114.63 106.091 419.058 106.091 419.058l1448.14 26.523s40.462-79.966 58.967-105.215c108.116 19.728 337.905-136.275 420.469-423.076-56.491-72.787-76.221-217.893-78.937-321.098s667.122-2637.75 667.122-2637.75 218.064-237.27 304.973-248.134c86.91-10.864 135.797-43.455 271.593 5.432 135.796 48.886 879.959 206.41 1333.52 89.625h1516.43s-2.716-460.306 27.159-577.091c59.75-173.819 95.057-214.558 706.14-214.558v153.391l541.67 537.1h213.464l36.937-38.971h356.329l34.764 32.591h123.846l34.764-45.628h336.774l52.146 52.146h106.464l49.973-58.664h323.738l56.491 58.664h178.164l39.11-54.319h97.773l27.706 48.486h845.331l339.49-383.624v-312.331l149.376-3.395 64.503-254.618h203.694v-1195.34l-246.262-13.58v-350.354l38.023-35.307h206.41v-1025.25l-225.877-13.58s6.789-278.382-298.752-298.751h-146.778s-385.35-278.924-404.039-2.073h-1577.9v127.598h-4592.07v-110.696h-1481.87l-134.02-168.414-510.332-5.562-73.699-148.789-186.334-13.906-76.48 326.78s-288.581 13.955-543.962 826.198zm4611.32 2319.16c0-330.707-268.493-599.2-599.2-599.2h-1018.47c-330.707 0-599.2 268.493-599.2 599.2s268.493 599.2 599.2 599.2h1018.47c330.707 0 599.2-268.493 599.2-599.2z" fill="#b3b3b3"/><path d="m5674.9 3911.33s-187.103 264.439-174.629 476.489c12.473 212.05-29.937 324.312 192.092 623.677h-623.677s-162.155-112.262-189.597-169.64-114.757-197.082-109.767-301.86c4.989-104.777 27.442-269.428 77.336-341.774 49.894-72.347 182.113-239.492 379.195-279.407 197.082-39.916 449.047-7.485 449.047-7.485z" fill="#666"/><path d="m5684 3903s-192 206.245-192 556 206.772 558.685 207 559-626 0-626 0" fill="#666" stroke="#404040" stroke-width="41.67"/><g fill="none"><circle cx="5152" cy="4252" r="130" stroke="#404040" stroke-width="23.61"/><circle cx="5152" cy="4652" r="166" stroke="#404040" stroke-width="23.61"/><path d="m2311 2721c136.932-1352.35 625-1358 625-1358h2455s.312 120.095 0 120 4583 0 4583 0v-122h2132c174.137 0 306 138.677 306 351s-6.672 1007.66-6.672 1007.66-8715.57 1.339-10094.3 1.339z" stroke="#000" stroke-width="62.5"/><path d="m4583.96 2851.45c5.052-16.527 1.969-34.47-8.31-48.362-10.28-13.891-26.537-22.086-43.819-22.086-316.772 0-1547.08 0-1547.08 0s-272.042 889.81-361.421 1182.15c-6.587 21.546-2.567 44.939 10.834 63.05 13.402 18.111 34.598 28.795 57.128 28.795h1524.71s286.252-936.288 367.963-1203.55z" stroke="#000" stroke-width="20.83"/><path d="m5867 2992.5c0-51.639-41.861-93.5-93.5-93.5-199.937 0-667.063 0-867 0-51.639 0-93.5 41.861-93.5 93.5 0 51.639 41.861 93.5 93.5 93.5h867c51.639 0 93.5-41.861 93.5-93.5z" stroke="#000" stroke-width="20.83"/><path d="m3876 2708.14 374-1063.73" stroke="#000" stroke-linecap="butt" stroke-width="33.33"/><path d="m5024 2708.14 374-1063.73" stroke="#000" stroke-linecap="butt" stroke-width="33.33"/><path d="m4256 2708.14 374-1063.73" stroke="#000" stroke-linecap="butt" stroke-width="33.33"/><path d="m5404 2708.14 374-1063.73" stroke="#000" stroke-linecap="butt" stroke-width="33.33"/><path d="m4641 2708.14 374-1063.73" stroke="#000" stroke-linecap="butt" stroke-width="33.33"/><path d="m5789 2708.14 374-1063.73" stroke="#000" stroke-linecap="butt" stroke-width="33.33"/><path d="m4066 2708.14 374-1063.73" stroke="#000" stroke-linecap="butt" stroke-width="33.33"/><path d="m5214 2708.14 374-1063.73" stroke="#000" stroke-linecap="butt" stroke-width="33.33"/><path d="m4446 2708.14 374-1063.73" stroke="#000" stroke-linecap="butt" stroke-width="33.33"/><path d="m5594 2708.14 374-1063.73" stroke="#000" stroke-linecap="butt" stroke-width="33.33"/><path d="m4831 2708.14 374-1063.73" stroke="#000" stroke-linecap="butt" stroke-width="33.33"/><path d="m6990.65 4501.5c-.001-330.543-267.958-598.5-598.5-598.5-317.689 0-706.966 0-1024.65 0-330.542 0-598.5 267.958-598.5 598.5 0 330.543 267.958 598.5 598.5 598.5h1024.65c330.542 0 598.499-267.957 598.5-598.5z" stroke="#000" stroke-width="52.12"/><path d="m4548.03 3601.27h1357l240-752s9.384-52-60-52h-1121" stroke="#000" stroke-width="23.61"/><circle cx="7209.6499" cy="2930" r="183" stroke="#000" stroke-width="23.61"/><circle cx="7545.5" cy="3267.5" r="90.5" stroke="#000" stroke-width="23.61"/><circle cx="7328.5" cy="3983.5" r="106.5" stroke="#000" stroke-width="23.61"/><path d="m2620.22 1646h9791.78" stroke="#000" stroke-width="23.61"/><path d="m6749 1646v1002s4.592 61-137 61" stroke="#000" stroke-width="23.61"/><path d="m4481.31 4655c140.745 37.052 224.931 181.4 187.879 322.144-37.051 140.745-181.399 224.931-322.144 187.879" stroke="#000" stroke-width="33.33"/><path d="m2735.59 4089.2s158.497 131.158 158.497 474.451-317.691 498.194-486.852 766.13c-169.16 267.936-505.604 808.636-717.054 1567.44-211.451 758.803-184.633 1082.21-184.633 1186.87 0 104.662 24.756 175.833 313.566 175.833h1050.61s147.195 8.678 195.245-120.876c52.613-141.856 1125.71-4044.26 1125.71-4044.26s6.077-39.66-41.242-39.66h-1399.28s-46.44 3.282-14.562 34.068z" stroke="#000" stroke-width="20.83"/><path d="m2219.8601 2770.6599h491.94199v117.904h-491.94199z" stroke="#000" stroke-width="20.83"/><path d="m2219.8601 2807.4099h491.95099v44.408001h-491.95099z" stroke="#000" stroke-width="20.83"/><path d="m2221.19 2892.55-70.471 115.193s-5.421 13.552 13.552 25.749 218.19 116.548 218.19 116.548" stroke="#000" stroke-width="20.83"/><path d="m3435.8 8788.77s-406.96-148.888-241.529-757.674 1234.96-4431.17 1234.96-4431.17h122.19l-86.247 314.086 167.138-2.747" stroke="#000" stroke-width="20.83"/><path d="m5888.95 3602.37h446.714s564.299-41.754 848.423 571.666c6.184 13.428 19.617 22.031 34.4 22.031 162.938.017 396.445.017 465.485.017 11.014 0 19.942-8.929 19.942-19.942v-920.25h103.493l149.099-526.234" stroke="#000" stroke-width="20.83"/><path d="m7705.2798 3256.02h733.73297v767.13098h-733.73297z" stroke="#000" stroke-width="20.83"/><path d="m6992.01 4531.09h1447.14v-260.193h-1488.07" stroke="#000" stroke-width="20.83"/><path d="m5482.06 3898.55h-998.67" stroke="#000" stroke-width="41.67"/><path d="m8418.32 4531.16v181.494l525.344 525.809h241.364l28.066-37.421h362.982l16.839 33.679h127.231l26.195-34.266h362.745l26.823 38.29h122.621l24.907-42.151h359.105l26.344 43.367h201.175l31.134-38.319v-1001.72" stroke="#000" stroke-linecap="butt" stroke-width="62.5"/><path d="m10994.4 4200.17v982.295l31.396 59.965h844.292l343.413-375.165v-879.213" stroke="#000" stroke-linecap="butt" stroke-width="62.5"/><path d="m12237.3 3996.64-899.348-903.997" stroke="#000" stroke-linecap="butt" stroke-width="20.83"/><path d="m12234.3 3993.38h-918.336l253.781 106.76h539.641l99.473-106.76" stroke="#000" stroke-linecap="butt" stroke-width="20.83"/><path d="m12113.5 4100.13v696.525l-235.502 259.45h-862.174" stroke="#000" stroke-linecap="butt" stroke-width="20.83"/><path d="m10886.2 5057.68h-1828.65l-434.455-424.886v-1374.62h2882.14" stroke="#000" stroke-linecap="butt" stroke-width="20.83"/><path d="m9060.28 5058.7-102.183 153.275" stroke="#000" stroke-linecap="butt" stroke-width="20.83"/><path d="m8622.2 4631.87-199.257 73.573" stroke="#000" stroke-linecap="butt" stroke-width="20.83"/><path d="m11877.6 5057.96-17.563 172.434" stroke="#000" stroke-linecap="butt" stroke-width="20.83"/><path d="m12117 4790.68 80.469 72.806" stroke="#000" stroke-linecap="butt" stroke-width="20.83"/><path d="m10910.5 5187.53h85.578" stroke="#000" stroke-linecap="butt" stroke-width="20.83"/><path d="m11502.6 3249.48h902.089" stroke="#000" stroke-linecap="butt" stroke-width="20.83"/><path d="m12383.1 2733.37v526.536" stroke="#000" stroke-linecap="butt" stroke-width="62.5"/><path d="m12395.5 3082.84h233.88v1206.82h-221.406" stroke="#000" stroke-linecap="butt" stroke-width="62.5"/><path d="m12226.3 4025.18h180.866v277.537l-49.894 243.234h-121.617" stroke="#000" stroke-linecap="butt" stroke-width="62.5"/><path d="m12231.4 4289.66h164.447" stroke="#000" stroke-linecap="butt" stroke-width="20.83"/><path d="m10048 3745.07c0-26.995-10.723-52.884-29.812-71.972-19.088-19.088-44.977-29.812-71.972-29.812h-1031.81c-26.995 0-52.884 10.724-71.972 29.812-19.089 19.088-29.812 44.977-29.812 71.972v281.404c0 26.995 10.723 52.884 29.812 71.972 19.088 19.088 44.977 29.812 71.972 29.812h1031.81c26.995 0 52.884-10.724 71.972-29.812 19.089-19.088 29.812-44.977 29.812-71.972 0-82.679 0-198.725 0-281.404z" stroke="#000" stroke-linecap="butt" stroke-width="20.83"/><path d="m9986.09 3831.88c0-51.254-41.549-92.803-92.803-92.803h-922.045c-51.254 0-92.804 41.549-92.804 92.803v115.755c0 51.254 41.55 92.803 92.804 92.803h922.045c51.254 0 92.803-41.549 92.803-92.803z" stroke="#000" stroke-linecap="butt" stroke-width="20.83"/><path d="m9000.18 4128.26v191.594h512.913l107.772-193.59" stroke="#000" stroke-linecap="butt" stroke-width="20.83"/><path d="m7066.23 2880.26h287.02" stroke="#000" stroke-width="16.67"/><path d="m7066.23 2978.36h287.02" stroke="#000" stroke-width="16.67"/><path d="m7095.65 2830.31h227.981" stroke="#000" stroke-width="16.67"/><path d="m7095.65 3028.32h227.981" stroke="#000" stroke-width="16.67"/><path d="m7147.91 2785.8h124.436" stroke="#000" stroke-width="16.67"/><path d="m7059.16 2929.31h302.026" stroke="#000" stroke-width="16.67"/><path d="m7147.91 3072.82h124.436" stroke="#000" stroke-width="16.67"/><path d="m2920 1361s50.93-331.074 87-331c64.505.132 179 0 179 0l66 165h529l117 149" stroke="#000" stroke-width="62.5"/><path d="m11552 1337.65s-.08-263.706 427 23.353" stroke="#000" stroke-width="23.75"/><path d="m6998.36 3297.01c-118.667-52.609-201.889-174.622-201.889-316.592 0-15.129.945-30.032 2.778-44.648" stroke="#000" stroke-width="23.75"/><path d="m7093.08 3148.49c-74.499-17.05-130.294-85.868-130.294-168.066 0-14.515 1.74-28.613 5.016-42.082m0 0-167.881-2.653" stroke="#000" stroke-width="23.75"/><path d="m7093.4 3148.75-94.036 147.465" stroke="#000" stroke-width="23.75"/><path d="m2799 2729c126.231 515.191-119 565-119 565l-559-233s-95.659 161.403-473 303c-90.538 86.341-75.394 251.58-31 265s841.91-53.165 1003 634-468.928 911.797-822 1747-847.557 2349.5-228 2497c679.025 161.658 1744 377 1744 377s187.855-49.398 340-350c45.252-111.483-125.678-176.749-46-507 79.365-328.955 1028.37-4112.63 1028.37-4112.63" stroke="#000" stroke-width="62.5"/><path d="m8594.26 3104-157.139-142.521v-160.794h2835.81v226.573l78.264 78.264-2756.93-1.522zm-157.139-193.463h2835.81" stroke="#000" stroke-width="20.83"/><path d="m8435.34 3253.29 160.91-144.07" stroke="#000" stroke-width="20.83"/><path d="m8439.06 4014.95v284.398" stroke="#000" stroke-width="20.83"/><path d="m8508.13 2802.85 46.334 24.949h2636.79l37.562-24.939h44.635v105.684l-80.366-42.575h-2641.67l-93.378 42.363h-20.665v-105.624l70.76.142z" stroke="#000" stroke-width="8.33"/><path d="m8553.74 2829.55v33.742" stroke="#000" stroke-width="8.33"/><path d="m11191.8 2828.65v35.695" stroke="#000" stroke-width="8.33"/><path d="m7705.28 3274.32c49.082 85.668 80.722 220.044 80.722 371.007s-31.64 285.339-80.722 371.007" stroke="#000" stroke-width="20.83"/><path d="m1641 8531 95 432.596s1338.72 33.81 1437 22.46c55.242-20.486 47.336-75.49 70-99.605" stroke="#000" stroke-width="62.5"/><path d="m4216 5606s184.64-448.481 592.431-353.463 734.53 208.261 1357.12 91.602h1514.43s6.549-176.096 13.94-374.835c15.241-409.821 98.842-413.736 721.87-413.736" stroke="#000" stroke-width="62.5"/><path d="m12412 1669h210v1032h-210" stroke="#000" stroke-width="62.5"/><path d="m2395 2185h-435s-42.966-23.872-162.116 174.441" stroke="#000" stroke-width="62.5"/><path d="m1797.88 2359.44c-51.5 85.719-117.234 212.948-199.884 401.559-66.001 150.618-104.471 262.982-123.254 346.889" stroke="#000" stroke-dasharray="62.5 62.5" stroke-linecap="butt" stroke-width="62.5"/><path d="m1474.75 3107.89c-59.155 264.256 76.949 246.269 163.254 252.111" stroke="#000" stroke-width="62.5"/><path d="m1797.88 2386c-84.884 146-271.884 560-304.884 702.845" stroke="#000" stroke-width="35.25"/><path d="m10366.8 3256.76c-.362.417-.723.833-1.084 1.25-112.023 129.467-179.792 298.279-179.792 482.92 0 396.964 313.923 721.187 706.846 737.742" stroke="#000" stroke-linecap="butt" stroke-width="20.83"/><path d="m11008.5 4474.59c241.356-27.378 447.426-171.112 560.759-373.75" stroke="#000" stroke-linecap="butt" stroke-width="20.83"/><path d="m10916 3258.27c-262.908 0-476.037 213.129-476.037 476.036 0 262.732 213.305 476.037 476.037 476.037 5.389 0 10.758-.089 16.104-.267" stroke="#000" stroke-linecap="butt" stroke-width="20.83"/><path d="m10963.8 4207.97c147.162-14.675 274.589-96.371 351.318-214.124" stroke="#000" stroke-linecap="butt" stroke-width="20.83"/><path d="m8441.95 3508.86h1586.23l98.419-250.237 94.232-150.771" stroke="#000" stroke-width="23.75"/></g><circle cx="10925.2" cy="3732.75" fill="#ba1b42" r="363.15601" stroke="#63112e" stroke-linecap="butt" stroke-width="20.83"/></g></svg>