<?xml version="1.0" encoding="UTF-8" standalone="no"?>
<svg
   width="913.36029"
   height="641.67084"
   viewBox="0 0 11417.004 8020.8855"
   version="1.1"
   xml:space="preserve"
   style="clip-rule:evenodd;fill-rule:evenodd;stroke-linecap:round;stroke-linejoin:round;stroke-miterlimit:1.5"
   id="svg281"
   sodipodi:docname="guncon.svg"
   inkscape:version="1.2.1 (9c6d41e410, 2022-07-14)"
   xmlns:inkscape="http://www.inkscape.org/namespaces/inkscape"
   xmlns:sodipodi="http://sodipodi.sourceforge.net/DTD/sodipodi-0.dtd"
   xmlns="http://www.w3.org/2000/svg"
   xmlns:svg="http://www.w3.org/2000/svg"
   xmlns:serif="http://www.serif.com/"><defs
     id="defs285" /><sodipodi:namedview
     id="namedview283"
     pagecolor="#ffffff"
     bordercolor="#999999"
     borderopacity="1"
     inkscape:pageshadow="0"
     inkscape:pageopacity="0"
     inkscape:pagecheckerboard="0"
     showgrid="false"
     inkscape:zoom="0.50654318"
     inkscape:cx="2088.6669"
     inkscape:cy="1118.3647"
     inkscape:window-width="3142"
     inkscape:window-height="1675"
     inkscape:window-x="-11"
     inkscape:window-y="-11"
     inkscape:window-maximized="1"
     inkscape:current-layer="svg281"
     inkscape:showpageshadow="2"
     inkscape:deskcolor="#d1d1d1" /><g
     id="g439"
     transform="translate(-1243.6261,-998.74998)"><path
       id="Background"
       d="m 2377,2184.1 c -115.918,0 -384.008,-4.612 -418,0 -125.303,17 -619.626,1035.52 -467,1139.9 99.068,67.753 138.916,25.61 146,36 7.084,10.39 -167.476,270.784 -30,270 1285.19,-7.332 1014.64,1083.07 978,1154 -249.839,483.616 -654.595,697.598 -1066.55,1946 -288.331,873.757 -418.429,1688.57 117.329,1810.58 17.663,114.63 106.091,419.058 106.091,419.058 l 1448.14,26.523 c 0,0 40.462,-79.966 58.967,-105.215 108.116,19.728 337.905,-136.275 420.469,-423.076 -56.491,-72.787 -76.221,-217.893 -78.937,-321.098 -2.716,-103.205 667.122,-2637.75 667.122,-2637.75 0,0 218.064,-237.27 304.973,-248.134 86.91,-10.864 135.797,-43.455 271.593,5.432 135.796,48.886 879.959,206.41 1333.52,89.625 h 1516.43 c 0,0 -2.716,-460.306 27.159,-577.091 59.75,-173.819 95.057,-214.558 706.14,-214.558 v 153.391 l 541.67,537.1 h 213.464 l 36.937,-38.971 h 356.329 l 34.764,32.591 h 123.846 l 34.764,-45.628 h 336.774 l 52.146,52.146 h 106.464 l 49.973,-58.664 h 323.738 l 56.491,58.664 h 178.164 l 39.11,-54.319 h 97.773 l 27.706,48.486 h 845.331 l 339.49,-383.624 v -312.331 l 149.376,-3.395 64.503,-254.618 h 203.694 v -1195.34 l -246.262,-13.58 V 2725.85 l 38.023,-35.307 h 206.41 v -1025.25 l -225.877,-13.58 c 0,0 6.789,-278.382 -298.752,-298.751 h -146.778 c 0,0 -385.35,-278.924 -404.039,-2.073 h -1577.9 v 127.598 h -4592.07 v -110.696 h -1481.87 l -134.02,-168.414 -510.332,-5.562 -73.699,-148.789 -186.334,-13.906 -76.48,326.78 c 0,0 -288.581,13.955 -543.962,826.198 z m 4611.32,2319.16 c 0,-330.707 -268.493,-599.2 -599.2,-599.2 H 5370.65 c -330.707,0 -599.2,268.493 -599.2,599.2 0,330.707 268.493,599.2 599.2,599.2 h 1018.47 c 330.707,0 599.2,-268.493 599.2,-599.2 z"
       style="fill:#b3b3b3" /><g
       id="Gatilho"><g
         id="Camada7"><path
           d="m 5674.9,3911.33 c 0,0 -187.103,264.439 -174.629,476.489 12.473,212.05 -29.937,324.312 192.092,623.677 h -623.677 c 0,0 -162.155,-112.262 -189.597,-169.64 -27.442,-57.378 -114.757,-197.082 -109.767,-301.86 4.989,-104.777 27.442,-269.428 77.336,-341.774 49.894,-72.347 182.113,-239.492 379.195,-279.407 197.082,-39.916 449.047,-7.485 449.047,-7.485 z"
           style="fill:#666666"
           id="path3" /></g><path
         d="m 5684,3903 c 0,0 -192,206.245 -192,556 0,349.755 206.772,558.685 207,559 0.228,0.315 -626,0 -626,0"
         style="fill:#666666;stroke:#404040;stroke-width:41.67px"
         id="path6" /><circle
         cx="5152"
         cy="4252"
         r="130"
         style="fill:none;stroke:#404040;stroke-width:23.61px"
         id="circle8" /><circle
         cx="5152"
         cy="4652"
         r="166"
         style="fill:none;stroke:#404040;stroke-width:23.61px"
         id="circle10" /></g><g
       id="Pistola"><g
         id="Camada1"><path
           d="m 2311,2721 c 136.932,-1352.35 625,-1358 625,-1358 h 2455 c 0,0 0.312,120.095 0,120 -0.312,-0.095 4583,0 4583,0 v -122 h 2132 c 174.137,0 306,138.677 306,351 0,212.323 -6.672,1007.66 -6.672,1007.66 0,0 -8715.57,1.339 -10094.3,1.339 z"
           style="fill:none;stroke:#000000;stroke-width:62.5px"
           id="path13" /><path
           d="m 4583.96,2851.45 c 5.052,-16.527 1.969,-34.47 -8.31,-48.362 -10.28,-13.891 -26.537,-22.086 -43.819,-22.086 -316.772,0 -1547.08,0 -1547.08,0 0,0 -272.042,889.81 -361.421,1182.15 -6.587,21.546 -2.567,44.939 10.834,63.05 13.402,18.111 34.598,28.795 57.128,28.795 h 1524.71 c 0,0 286.252,-936.288 367.963,-1203.55 z"
           style="fill:none;stroke:#000000;stroke-width:20.83px"
           id="path15" /><path
           d="m 5867,2992.5 c 0,-51.639 -41.861,-93.5 -93.5,-93.5 -199.937,0 -667.063,0 -867,0 -51.639,0 -93.5,41.861 -93.5,93.5 v 0 c 0,51.639 41.861,93.5 93.5,93.5 199.937,0 667.063,0 867,0 51.639,0 93.5,-41.861 93.5,-93.5 0,0 0,0 0,0 z"
           style="fill:none;stroke:#000000;stroke-width:20.83px"
           id="path19" /><path
           d="M 3876,2708.14 4250,1644.41"
           style="fill:none;stroke:#000000;stroke-width:33.33px;stroke-linecap:butt"
           id="path21" /><path
           d="M 5024,2708.14 5398,1644.41"
           style="fill:none;stroke:#000000;stroke-width:33.33px;stroke-linecap:butt"
           id="path23" /><path
           d="M 4256,2708.14 4630,1644.41"
           style="fill:none;stroke:#000000;stroke-width:33.33px;stroke-linecap:butt"
           id="path25" /><path
           d="M 5404,2708.14 5778,1644.41"
           style="fill:none;stroke:#000000;stroke-width:33.33px;stroke-linecap:butt"
           id="path27" /><path
           d="M 4641,2708.14 5015,1644.41"
           style="fill:none;stroke:#000000;stroke-width:33.33px;stroke-linecap:butt"
           id="path29" /><path
           d="M 5789,2708.14 6163,1644.41"
           style="fill:none;stroke:#000000;stroke-width:33.33px;stroke-linecap:butt"
           id="path31" /><path
           d="M 4066,2708.14 4440,1644.41"
           style="fill:none;stroke:#000000;stroke-width:33.33px;stroke-linecap:butt"
           id="path33" /><path
           d="M 5214,2708.14 5588,1644.41"
           style="fill:none;stroke:#000000;stroke-width:33.33px;stroke-linecap:butt"
           id="path35" /><path
           d="M 4446,2708.14 4820,1644.41"
           style="fill:none;stroke:#000000;stroke-width:33.33px;stroke-linecap:butt"
           id="path37" /><path
           d="M 5594,2708.14 5968,1644.41"
           style="fill:none;stroke:#000000;stroke-width:33.33px;stroke-linecap:butt"
           id="path39" /><path
           d="M 4831,2708.14 5205,1644.41"
           style="fill:none;stroke:#000000;stroke-width:33.33px;stroke-linecap:butt"
           id="path41" /><g
           id="g48"><g
             id="g344" /><g
             id="g348" /><g
             id="g352" /><path
             d="m 6990.65,4501.5 c -10e-4,-330.543 -267.958,-598.5 -598.5,-598.5 -317.689,0 -706.966,0 -1024.65,0 -330.542,0 -598.5,267.958 -598.5,598.5 v 0 c 0,330.543 267.958,598.5 598.5,598.5 317.688,0 706.965,0 1024.65,0 330.542,0 598.499,-267.957 598.5,-598.5 0,0 0,0 0,0 z"
             style="fill:none;stroke:#000000;stroke-width:52.12px"
             id="path46" /></g><path
           d="m 4548.03,3601.27 h 1357 l 240,-752 c 0,0 9.384,-52 -60,-52 h -1121"
           style="fill:none;stroke:#000000;stroke-width:23.61px"
           id="path50" /><circle
           cx="7209.6499"
           cy="2930"
           r="183"
           style="fill:none;stroke:#000000;stroke-width:23.61px"
           id="circle52" /><circle
           cx="7545.5"
           cy="3267.5"
           r="90.5"
           style="fill:none;stroke:#000000;stroke-width:23.61px"
           id="circle54" /><circle
           cx="7328.5"
           cy="3983.5"
           r="106.5"
           style="fill:none;stroke:#000000;stroke-width:23.61px"
           id="circle56" /><path
           d="M 2620.22,1646 H 12412"
           style="fill:none;stroke:#000000;stroke-width:23.61px"
           id="path58" /><path
           d="m 6749,1646 v 1002 c 0,0 4.592,61 -137,61"
           style="fill:none;stroke:#000000;stroke-width:23.61px"
           id="path60" /><path
           d="m 4481.31,4655 c 140.745,37.052 224.931,181.4 187.879,322.144 -37.051,140.745 -181.399,224.931 -322.144,187.879"
           style="fill:none;stroke:#000000;stroke-width:33.33px"
           id="path62" /><path
           d="m 2735.59,4089.2 c 0,0 158.497,131.158 158.497,474.451 0,343.293 -317.691,498.194 -486.852,766.13 -169.16,267.936 -505.604,808.636 -717.054,1567.44 -211.451,758.803 -184.633,1082.21 -184.633,1186.87 0,104.662 24.756,175.833 313.566,175.833 h 1050.61 c 0,0 147.195,8.678 195.245,-120.876 52.613,-141.856 1125.71,-4044.26 1125.71,-4044.26 0,0 6.077,-39.66 -41.242,-39.66 h -1399.28 c 0,0 -46.44,3.282 -14.562,34.068 z"
           style="fill:none;stroke:#000000;stroke-width:20.83px"
           id="path64" /><rect
           x="2219.8601"
           y="2770.6599"
           width="491.94199"
           height="117.904"
           style="fill:none;stroke:#000000;stroke-width:20.83px"
           id="rect66" /><rect
           x="2219.8601"
           y="2807.4099"
           width="491.95099"
           height="44.408001"
           style="fill:none;stroke:#000000;stroke-width:20.83px"
           id="rect68" /><path
           d="m 2221.19,2892.55 -70.471,115.193 c 0,0 -5.421,13.552 13.552,25.749 18.973,12.197 218.19,116.548 218.19,116.548"
           style="fill:none;stroke:#000000;stroke-width:20.83px"
           id="path70" /><path
           d="m 3435.8,8788.77 c 0,0 -406.96,-148.888 -241.529,-757.674 165.431,-608.786 1234.96,-4431.17 1234.96,-4431.17 h 122.19 l -86.247,314.086 167.138,-2.747"
           style="fill:none;stroke:#000000;stroke-width:20.83px"
           id="path72" /><path
           d="m 5888.95,3602.37 h 446.714 c 0,0 564.299,-41.754 848.423,571.666 6.184,13.428 19.617,22.031 34.4,22.031 162.938,0.017 396.445,0.017 465.485,0.017 11.014,0 19.942,-8.929 19.942,-19.942 v -920.25 h 103.493 l 149.099,-526.234"
           style="fill:none;stroke:#000000;stroke-width:20.83px"
           id="path74" /><rect
           x="7705.2798"
           y="3256.02"
           width="733.73297"
           height="767.13098"
           style="fill:none;stroke:#000000;stroke-width:20.83px"
           id="rect76" /><path
           d="M 6992.01,4531.09 H 8439.15 V 4270.897 H 6951.08"
           style="fill:none;stroke:#000000;stroke-width:20.83px"
           id="path78" /><path
           d="M 5482.06,3898.55 H 4483.39"
           style="fill:none;stroke:#000000;stroke-width:41.67px"
           id="path80" /><path
           d="m 8418.32,4531.16 v 181.494 l 525.344,525.809 h 241.364 l 28.066,-37.421 h 362.982 l 16.839,33.679 h 127.231 l 26.195,-34.266 h 362.745 l 26.823,38.29 h 122.621 l 24.907,-42.151 h 359.105 l 26.344,43.367 h 201.175 l 31.134,-38.319 v -1001.72"
           style="fill:none;stroke:#000000;stroke-width:62.5px;stroke-linecap:butt"
           id="path82" /><path
           d="m 10994.4,4200.17 v 982.295 l 31.396,59.965 h 844.292 l 343.413,-375.165 v -879.213"
           style="fill:none;stroke:#000000;stroke-width:62.5px;stroke-linecap:butt"
           id="path84" /><path
           d="m 12237.3,3996.64 -899.348,-903.997"
           style="fill:none;stroke:#000000;stroke-width:20.83px;stroke-linecap:butt"
           id="path86" /><path
           d="m 12234.3,3993.38 h -918.336 l 253.781,106.76 h 539.641 l 99.473,-106.76"
           style="fill:none;stroke:#000000;stroke-width:20.83px;stroke-linecap:butt"
           id="path88" /><path
           d="m 12113.5,4100.13 v 696.525 l -235.502,259.45 h -862.174"
           style="fill:none;stroke:#000000;stroke-width:20.83px;stroke-linecap:butt"
           id="path90" /><path
           d="M 10886.2,5057.68 H 9057.55 l -434.455,-424.886 v -1374.62 h 2882.14"
           style="fill:none;stroke:#000000;stroke-width:20.83px;stroke-linecap:butt"
           id="path92" /><path
           d="m 9060.28,5058.7 -102.183,153.275"
           style="fill:none;stroke:#000000;stroke-width:20.83px;stroke-linecap:butt"
           id="path94" /><path
           d="m 8622.2,4631.87 -199.257,73.573"
           style="fill:none;stroke:#000000;stroke-width:20.83px;stroke-linecap:butt"
           id="path96" /><path
           d="m 11877.6,5057.96 -17.563,172.434"
           style="fill:none;stroke:#000000;stroke-width:20.83px;stroke-linecap:butt"
           id="path98" /><path
           d="m 12117,4790.68 80.469,72.806"
           style="fill:none;stroke:#000000;stroke-width:20.83px;stroke-linecap:butt"
           id="path100" /><path
           d="m 10910.5,5187.53 h 85.578"
           style="fill:none;stroke:#000000;stroke-width:20.83px;stroke-linecap:butt"
           id="path102" /><path
           d="m 11502.6,3249.48 h 902.089"
           style="fill:none;stroke:#000000;stroke-width:20.83px;stroke-linecap:butt"
           id="path104" /><path
           d="m 12383.1,2733.37 v 526.536"
           style="fill:none;stroke:#000000;stroke-width:62.5px;stroke-linecap:butt"
           id="path106" /><path
           d="m 12395.5,3082.84 h 233.88 v 1206.82 h -221.406"
           style="fill:none;stroke:#000000;stroke-width:62.5px;stroke-linecap:butt"
           id="path108" /><path
           d="m 12226.3,4025.18 h 180.866 v 277.537 l -49.894,243.234 h -121.617"
           style="fill:none;stroke:#000000;stroke-width:62.5px;stroke-linecap:butt"
           id="path110" /><path
           d="m 12231.4,4289.66 h 164.447"
           style="fill:none;stroke:#000000;stroke-width:20.83px;stroke-linecap:butt"
           id="path112" /><path
           d="m 10048,3745.07 c 0,-26.995 -10.723,-52.884 -29.812,-71.972 -19.088,-19.088 -44.977,-29.812 -71.972,-29.812 h -1031.81 c -26.995,0 -52.884,10.724 -71.972,29.812 -19.089,19.088 -29.812,44.977 -29.812,71.972 v 281.404 c 0,26.995 10.723,52.884 29.812,71.972 19.088,19.088 44.977,29.812 71.972,29.812 232.326,0 799.488,0 1031.81,0 26.995,0 52.884,-10.724 71.972,-29.812 19.089,-19.088 29.812,-44.977 29.812,-71.972 0,-82.679 0,-198.725 0,-281.404 z"
           style="fill:none;stroke:#000000;stroke-width:20.83px;stroke-linecap:butt"
           id="path114" /><path
           d="m 9986.09,3831.88 c 0,-51.254 -41.549,-92.803 -92.803,-92.803 h -922.045 c -51.254,0 -92.804,41.549 -92.804,92.803 v 115.755 c 0,51.254 41.55,92.803 92.804,92.803 h 922.045 c 51.254,0 92.803,-41.549 92.803,-92.803 z"
           style="fill:none;stroke:#000000;stroke-width:20.83px;stroke-linecap:butt"
           id="path116" /><path
           d="m 9000.18,4128.26 v 191.594 h 512.913 l 107.772,-193.59"
           style="fill:none;stroke:#000000;stroke-width:20.83px;stroke-linecap:butt"
           id="path118" /><g
           id="g134"><path
             d="m 7066.23,2880.26 h 287.02"
             style="fill:none;stroke:#000000;stroke-width:16.67px"
             id="path120" /><path
             d="m 7066.23,2978.36 h 287.02"
             style="fill:none;stroke:#000000;stroke-width:16.67px"
             id="path122" /><path
             d="m 7095.65,2830.31 h 227.981"
             style="fill:none;stroke:#000000;stroke-width:16.67px"
             id="path124" /><path
             d="m 7095.65,3028.32 h 227.981"
             style="fill:none;stroke:#000000;stroke-width:16.67px"
             id="path126" /><path
             d="m 7147.91,2785.8 h 124.436"
             style="fill:none;stroke:#000000;stroke-width:16.67px"
             id="path128" /><path
             d="m 7059.16,2929.31 h 302.026"
             style="fill:none;stroke:#000000;stroke-width:16.67px"
             id="path130" /><path
             d="m 7147.91,3072.82 h 124.436"
             style="fill:none;stroke:#000000;stroke-width:16.67px"
             id="path132" /></g></g><g
         id="Camada2"><path
           d="m 2920,1361 c 0,0 50.93,-331.074 87,-331 64.505,0.132 179,0 179,0 l 66,165 h 529 l 117,149"
           style="fill:none;stroke:#000000;stroke-width:62.5px"
           id="path137" /></g><path
         d="m 11552,1337.65 c 0,0 -0.08,-263.706 427,23.353"
         style="fill:none;stroke:#000000;stroke-width:23.75px"
         id="path140" /><g
         id="Camada3"><g
           id="g148"><path
             d="m 6998.36,3297.01 c -118.667,-52.609 -201.889,-174.622 -201.889,-316.592 0,-15.129 0.945,-30.032 2.778,-44.648"
             style="fill:none;stroke:#000000;stroke-width:23.75px"
             id="path142" /><path
             d="m 7093.08,3148.49 c -74.499,-17.05 -130.294,-85.868 -130.294,-168.066 0,-14.515 1.74,-28.613 5.016,-42.082 m 0,0 -167.881,-2.653"
             style="fill:none;stroke:#000000;stroke-width:23.75px"
             id="path144" /><path
             d="m 7093.4,3148.75 -94.036,147.465"
             style="fill:none;stroke:#000000;stroke-width:23.75px"
             id="path146" /></g></g><g
         id="Camada4"><path
           d="m 2799,2729 c 126.231,515.191 -119,565 -119,565 l -559,-233 c 0,0 -95.659,161.403 -473,303 -90.538,86.341 -75.394,251.58 -31,265 44.394,13.42 841.91,-53.165 1003,634 161.09,687.165 -468.928,911.797 -822,1747 -353.072,835.203 -847.557,2349.5 -228,2497 679.025,161.658 1744,377 1744,377 0,0 187.855,-49.398 340,-350 45.252,-111.483 -125.678,-176.749 -46,-507 79.365,-328.955 1028.37,-4112.63 1028.37,-4112.63"
           style="fill:none;stroke:#000000;stroke-width:62.5px"
           id="path151" /><path
           d="m 8594.26,3104 -157.139,-142.521 v -160.794 h 2835.81 v 226.573 l 78.264,78.264 -2756.93,-1.522 z m -157.139,-193.463 h 2835.81"
           style="fill:none;stroke:#000000;stroke-width:20.83px"
           id="path153" /><path
           d="m 8435.34,3253.29 160.91,-144.07"
           style="fill:none;stroke:#000000;stroke-width:20.83px"
           id="path155" /><path
           d="m 8439.06,4014.95 v 284.398"
           style="fill:none;stroke:#000000;stroke-width:20.83px"
           id="path157" /><path
           d="m 8508.13,2802.85 46.334,24.949 h 2636.79 l 37.562,-24.939 h 44.635 v 105.684 l -80.366,-42.575 h -2641.67 l -93.378,42.363 h -20.665 v -105.624 l 70.76,0.142 z"
           style="fill:none;stroke:#000000;stroke-width:8.33px"
           id="path159" /><path
           d="m 8553.74,2829.55 v 33.742"
           style="fill:none;stroke:#000000;stroke-width:8.33px"
           id="path161" /><path
           d="m 11191.8,2828.65 v 35.695"
           style="fill:none;stroke:#000000;stroke-width:8.33px"
           id="path163" /></g><g
         id="Camada10"><path
           d="m 7705.28,3274.32 c 49.082,85.668 80.722,220.044 80.722,371.007 0,150.963 -31.64,285.339 -80.722,371.007"
           style="fill:none;stroke:#000000;stroke-width:20.83px"
           id="path166" /></g><g
         id="Camada9" /><g
         id="Camada5"><path
           d="m 1641,8531 95,432.596 c 0,0 1338.72,33.81 1437,22.46 55.242,-20.486 47.336,-75.49 70,-99.605"
           style="fill:none;stroke:#000000;stroke-width:62.5px"
           id="path170" /><path
           d="m 4216,5606 c 0,0 184.64,-448.481 592.431,-353.463 407.791,95.018 734.53,208.261 1357.12,91.602 h 1514.43 c 0,0 6.549,-176.096 13.94,-374.835 15.241,-409.821 98.842,-413.736 721.87,-413.736"
           style="fill:none;stroke:#000000;stroke-width:62.5px"
           id="path172" /><path
           d="m 12412,1669 h 210 v 1032 h -210"
           style="fill:none;stroke:#000000;stroke-width:62.5px"
           id="path174" /></g><g
         id="Camada6"><path
           d="m 2395,2185 h -435 c 0,0 -42.966,-23.872 -162.116,174.441"
           style="fill:none;stroke:#000000;stroke-width:62.5px"
           id="path177" /><path
           d="m 1797.88,2359.44 c -51.5,85.719 -117.234,212.948 -199.884,401.559 -66.001,150.618 -104.471,262.982 -123.254,346.889"
           style="fill:none;stroke:#000000;stroke-width:62.5px;stroke-linecap:butt;stroke-dasharray:62.5, 62.5"
           id="path179" /><path
           d="m 1474.75,3107.89 c -59.155,264.256 76.949,246.269 163.254,252.111"
           style="fill:none;stroke:#000000;stroke-width:62.5px"
           id="path181" /><path
           d="m 1797.88,2386 c -84.884,146 -271.884,560 -304.884,702.845"
           style="fill:none;stroke:#000000;stroke-width:35.25px"
           id="path183" /></g><g
         id="Logos"><g
           id="NAMCO" /><g
           id="g264"><g
             id="DuckStation-Logo"
             serif:id="DuckStation Logo" /><g
             id="g262"><g
               id="Camada21"
               serif:id="Camada2" /></g></g></g><path
         d="m 10366.8,3256.76 c -0.362,0.417 -0.723,0.833 -1.084,1.25 -112.023,129.467 -179.792,298.279 -179.792,482.92 0,396.964 313.923,721.187 706.846,737.742"
         style="fill:none;stroke:#000000;stroke-width:20.83px;stroke-linecap:butt"
         id="path267" /><path
         d="m 11008.5,4474.59 c 241.356,-27.378 447.426,-171.112 560.759,-373.75"
         style="fill:none;stroke:#000000;stroke-width:20.83px;stroke-linecap:butt"
         id="path269" /><path
         d="m 10916,3258.27 c -262.908,0 -476.037,213.129 -476.037,476.036 0,262.732 213.305,476.037 476.037,476.037 5.389,0 10.758,-0.089 16.104,-0.267"
         style="fill:none;stroke:#000000;stroke-width:20.83px;stroke-linecap:butt"
         id="path271" /><path
         d="m 10963.8,4207.97 c 147.162,-14.675 274.589,-96.371 351.318,-214.124"
         style="fill:none;stroke:#000000;stroke-width:20.83px;stroke-linecap:butt"
         id="path273" /><g
         id="Camada8"><path
           d="m 8441.95,3508.86 h 1586.23 l 98.419,-250.237 94.232,-150.771"
           style="fill:none;stroke:#000000;stroke-width:23.75px"
           id="path275" /></g></g><circle
       cx="10925.2"
       cy="3732.75"
       r="363.15601"
       style="fill:#ba1b42;stroke:#63112e;stroke-width:20.83px;stroke-linecap:butt"
       id="circle279" /></g></svg>
