<?xml version="1.0" encoding="UTF-8"?>
<svg id="Justifier_-_Duckstation" data-name="Justifier - Duckstation" xmlns="http://www.w3.org/2000/svg" viewBox="0 0 913.36 641.67">
  <defs>
    <style>
      .cls-1, .cls-2 {
        stroke-width: 5px;
      }

      .cls-1, .cls-2, .cls-3, .cls-4 {
        stroke: #000;
        stroke-linecap: round;
        stroke-linejoin: round;
      }

      .cls-1, .cls-3 {
        fill: none;
      }

      .cls-2 {
        fill: #97d766;
      }

      .cls-3, .cls-4 {
        stroke-width: 1.67px;
      }
    </style>
  </defs>
  <g id="By_maxihplay" data-name="By maxihplay">
    <g id="fundo">
      <path class="cls-2" d="m895,83.75l-23.4-.88c-.96-.04-1.83-.56-2.34-1.38-1.15-1.85-3.85-5.26-9.13-7.75-.75-.36-1.3-1.04-1.51-1.84l-8.06-30.48c-3.06-11.56-16.4-16.91-26.6-10.67l-65.76,40.26c-.47.29-1.01.43-1.56.42l-71.73-1.48c-1.14-.02-2.16-.72-2.59-1.77h0c-.44-1.07-1.48-1.77-2.64-1.77l-364.74-1.54c-.81,0-1.57-.34-2.11-.94-5.03-5.59-32.8-34.3-73.06-35.23h-53.62c-1.16,0-2.2-.7-2.65-1.77l-4.27-10.25c-.45-1.07-1.49-1.77-2.65-1.77h-33.66c-.76,0-1.49.3-2.03.84l-13.49,13.49c-.27.27-.49.59-.63.95l-26.5,65.23c-.34.83-.27,1.77.19,2.54l8.54,14.45c.44.74.52,1.64.22,2.45l-29.27,79.44c-.39,1.05-.14,2.22.65,3.01,8.4,8.45,53.48,57.89,7.9,103.93C38.45,351.81,2.7,421.26,6.28,542.79c0,0-1.02,11.74,23.49,29.62,20.13,14.68,79.17,42.1,99.64,51.43,4.3,1.96,9.35,1.21,12.9-1.92l47.51-41.92c4.16-3.67,4.7-9.97,1.21-14.3l-24.28-30.11c-.58-.71-.78-1.66-.54-2.55l58.04-215.69c.03-.12.07-.23.11-.34.98-2.4,12.51-28.27,44.65-11.89.38.19.71.47.97.8,2.53,3.27,17.48,21.53,36.74,22.88,21.15,1.48,63.09,2.6,63.09,2.6,0,0,40.71-.36,58.24-36.57.49-1,1.49-1.66,2.6-1.66h4.21c1.59,0,2.87,1.29,2.87,2.87v.19c0,1.59,1.29,2.87,2.87,2.87h38.62c.55,0,1.09-.15,1.55-.46,1.76-1.15,6.09-4.4,6.68-8.82.57-4.28.26-17.76.09-23.77-.05-1.62,1.25-2.95,2.87-2.95h18.72c.6,0,1.18-.19,1.67-.54,3.35-2.37,18.15-11.42,38.05-2.42.37.17.77.26,1.18.26h28.29c.46,0,.92-.11,1.34-.32,3.3-1.71,19.84-9.33,36.38.23.44.25.94.4,1.44.4h26.03c.43,0,.85-.09,1.24-.28,3.7-1.79,24.75-11.13,39.8-.29.5.36,1.09.57,1.7.57h23.7c.57,0,1.13-.17,1.6-.49,3.5-2.37,19.81-12.09,36.7-.64.48.33,1.04.51,1.62.51h18.5c.23,0,.45-.03.66-.08,4.22-1,46.83-11.98,65.93-50.54.2-.4.3-.85.3-1.3v-25.74c0-1.59,1.29-2.87,2.87-2.87h10.23c.22,0,.44-.03.66-.08,1.62-.38,8.44-2.29,12.39-8.48.51-.8,1.38-1.31,2.33-1.34l28.38-.9c.9-.03,1.73-.47,2.25-1.21,4.83-6.84,27.6-42.84,2.96-82.49-.5-.81-1.38-1.31-2.33-1.34Zm-479.21,185.6c-2.4,40-41.44,44.89-44.48,45.21-.12.01-.24.02-.36.01l-59.2-1.44c-10.77-.26-19.5-11.63-21.68-14.72-.34-.48-.52-1.06-.52-1.65v-56.77c0-.58.17-1.16.5-1.63,18.43-26.27,81.35-16.46,81.35-16.46,0,0,46.89,5.83,44.39,47.45Z"/>
      <line class="cls-2" x1="757.48" y1="71.46" x2="858.97" y2="73.23"/>
      <path class="cls-1" d="m869.97,82.81s18.56,51.37-9.21,89.19"/>
    </g>
    <g id="detalhes">
      <path class="cls-3" d="m835.28,208.89l-349.81,3.3s.3,71.91,0,77.67-5.42,9.28-5.42,9.28h-40.31l-1.43-189.95h391.03c2.73,0,4.95,2.22,4.95,4.95v73.54"/>
      <path class="cls-3" d="m708.12,260.06s9.15-3.1,9.46-21.08c.26-14.59.1-39.16.03-47.9-.02-2.57.64-5.11,1.98-7.31,1.81-2.96,4.93-6.69,9.97-8.82,3.96-1.68,7.6-1.73,9.78-1.58,1.85.07,8.68.57,14.51,5.99,2.98,2.78,4.66,5.87,5.6,8.29.69,1.77,1.02,3.66,1.02,5.56l-1,46.59c0,2.07.29,15.08-11.1,19.9"/>
      <path class="cls-3" d="m638.12,261.97s14.15-5.01,14.46-22.99c.26-14.59.1-39.16.03-47.89-.02-2.58.64-5.12,1.99-7.31,1.81-2.96,4.93-6.69,9.97-8.82,3.96-1.68,7.6-1.73,9.78-1.58,1.85.07,8.68.57,14.51,5.99,2.98,2.78,4.66,5.87,5.6,8.29.69,1.77,1.02,3.66,1.02,5.56l-1,48.61s-.19,12.91-11.05,18.61"/>
      <path class="cls-3" d="m574.19,261.46s12.07-4.5,12.39-22.48c.26-14.59.1-39.16.03-47.9-.02-2.57.64-5.11,1.98-7.31,1.81-2.96,4.93-6.69,9.97-8.82,3.96-1.68,7.6-1.73,9.78-1.58,1.85.07,8.68.57,14.51,5.99,2.98,2.78,4.66,5.87,5.6,8.29.69,1.77,1.02,3.66,1.02,5.56l-.94,45.49c-.07,3.2-.69,6.37-1.95,9.31-1.74,4.04-4.97,9.12-10.8,12.18"/>
      <path class="cls-3" d="m507.07,263.78s11.84-7.97,12.51-24.8c.58-14.58.1-39.16.03-47.89-.02-2.58.64-5.12,1.99-7.31,1.81-2.96,4.93-6.69,9.97-8.82,3.96-1.68,7.6-1.73,9.78-1.58,1.85.07,8.68.57,14.51,5.99,2.98,2.78,4.66,5.87,5.6,8.29.69,1.77,1.02,3.66,1.02,5.56v43.56c0,4.2-1.01,8.35-3.05,12.02-2.45,4.4-6.46,9.57-12.36,11.38"/>
      <circle class="cls-2" cx="227.86" cy="135.65" r="72.36"/>
      <circle class="cls-3" cx="227.86" cy="135.65" r="92.93"/>
      <path class="cls-3" d="m690.67,109.18v-2.81c0-9.25-1.84-18.4-5.42-26.93l-3.6-8.58"/>
      <path class="cls-3" d="m311.97,65.12s6.88,8.28,13.77,25.53l362.94,1.71"/>
      <line class="cls-3" x1="185.39" y1="30.49" x2="127.42" y2="30.49"/>
      <path class="cls-3" d="m79.3,194.84s44.66,7.29,55.63,37.77"/>
      <path class="cls-3" d="m109.09,96.68l22.93-60.27h67.09l2.27,4.74s-61.97,12.51-72.32,83.17l-5-.55-14.97-27.1Z"/>
      <polyline class="cls-3" points="134.93 137.45 122.98 135.65 110.52 111.96"/>
      <path class="cls-3" d="m33.85,430.26c6.77-14.09,49.62-98.96,111.98-126.5,2.53-1.12,5.24-1.78,8-1.94,9.64-.54,31.58.96,37.44,24.8.57,2.32.56,4.75-.04,7.07-6.01,23.25-43.25,167.23-50.74,196.21-.64,2.49-3.56,3.61-5.69,2.17-15.97-10.78-34.06-24.68-52.53-42.41-20.39-19.57-36.15-38.89-48.1-55.64-.79-1.1-.91-2.54-.32-3.77Z"/>
      <path class="cls-3" d="m23.33,451.54c.87-3.37,5.04-4.56,7.57-2.17l126.52,119.86c1.35,1.39,6.52,4.75,7.29,12.43.33,3.27,0,5.9-.81,7.85-1.67,3.99-12.91,12.09-18.76,17.08-2.34,1.99-5.07,3.47-8.05,4.23-1.44.37-3.06.67-4.89.82-5.79.47-10.34-.79-12.8-1.61-44.6-14.94-74.31-36.27-83.72-43.32-3.3-2.47-7.44-5.69-12.15-9.65-5.73-4.81-9.23-11.8-9.51-19.28-.53-14.14-.14-30.34,2.05-48.1,1.74-14.08,4.33-26.86,7.24-38.16Z"/>
      <line class="cls-3" x1="134.93" y1="309.25" x2="174.88" y2="213.73"/>
      <path class="cls-3" d="m235.29,228.58l-20.89,73.17s-1.68,5.42,0,11.39"/>
      <path class="cls-3" d="m303.7,189.37l21.72-.78,7.71-4.52,105.17,2.65v7.09l-69.42-1.22c-1.93-.03-3.75.87-4.89,2.43l-1.43,1.96-27.8-1.21-7.47,4.88-22.74,1.66s-23.45,37.04-71.92,35.59"/>
      <polyline class="cls-3" points="316.47 107.56 325.24 107.56 332.18 103.15 438.3 104.57 438.3 117.93"/>
      <line class="cls-3" x1="332.18" y1="103.15" x2="333.12" y2="184.08"/>
      <line class="cls-3" x1="325.24" y1="107.56" x2="325.42" y2="188.59"/>
      <path class="cls-3" d="m439.62,284.34h-12.72s-12.21,41.9-57.44,41.07v-12.26c19.93-.89,37.61-13.24,45.23-31.57,8.18-19.69,2.05-40.53-9.16-53.83-11.93-14.15-23.21-15.61-36.07-18.31l-3.33,4.16s-43.84-4.16-63.82,6.1c-4.08,2.1-16.86,9.01-23.55,24.23-.96,2.18-4.47,10.63-3.9,21.91,1.06,20.99,14.48,35.28,18.22,38.62"/>
      <path class="cls-1" d="m311.75,313.14l59.38,1.44s42.17-3.61,44.67-45.23-44.39-47.45-44.39-47.45c0,0-64.09-9.99-81.85,17.2v58.54s9.73,15.18,22.2,15.48Z"/>
      <rect class="cls-3" x="447.85" y="121.01" width="91.89" height="33.6" rx="3.42" ry="3.42"/>
      <rect class="cls-3" x="547.23" y="121.01" width="91.89" height="33.6" rx="3.42" ry="3.42"/>
      <path class="cls-3" d="m414.05,151.74h-69.36c-4.01-.51-6.84-3.98-6.51-7.59.29-3.2,3-5.91,6.51-6.33h69.35c.35,0,.7.05,1.03.18,2.84,1.16,4.71,3.9,4.66,6.9-.05,2.91-1.9,5.52-4.66,6.65-.32.13-.67.18-1.02.18Z"/>
      <path class="cls-3" d="m414.05,129.62h-69.36c-4.01-.51-6.84-3.98-6.51-7.59.29-3.2,3-5.91,6.51-6.33h69.35c.35,0,.7.05,1.03.18,2.84,1.16,4.71,3.9,4.66,6.9-.05,2.91-1.9,5.52-4.66,6.65-.32.13-.67.18-1.02.18Z"/>
      <path class="cls-3" d="m414.05,174.87h-69.36c-4.01-.51-6.84-3.98-6.51-7.59.29-3.2,3-5.91,6.51-6.33h69.35c.35,0,.7.05,1.03.18,2.84,1.16,4.71,3.9,4.66,6.9-.05,2.91-1.9,5.52-4.66,6.65-.32.13-.67.18-1.02.18Z"/>
      <path class="cls-4" d="m317.1,222.92s-25.08,33.3,7.12,73.35c1.22,1.52,3.04,2.55,4.99,2.61,1.75.05,3.43-.55,4.62-1.73,1.16-1.15,1.57-2.57,1.7-3.73s-.24-2.34-.96-3.27c-3.55-4.57-13.23-18.79-11.01-38.22,1.12-9.8,5.47-20.68,15.67-31.71l-22.12,2.69Z"/>
      <circle class="cls-3" cx="818.81" cy="148.11" r="6.51"/>
      <line class="cls-3" x1="369.46" y1="209.43" x2="365.96" y2="193.32"/>
    </g>
  </g>
</svg>