<?xml version="1.0" encoding="UTF-8" standalone="no"?>
<svg
   width="16"
   height="16"
   viewBox="0 0 88.888889 88.888889"
   xmlns="http://www.w3.org/2000/svg">
<path
   style="fill:#4d4d4d;fill-opacity:1;stroke:none;stroke-width:4.94381;stroke-linecap:butt;stroke-linejoin:miter;stroke-miterlimit:9.6;stroke-dasharray:none;stroke-opacity:1"
   width="85.055809"
   height="85.055817"
   x="2.4720941"
   y="2.4720941"
   d="M 13.583205,2.4720941 H 76.416792 A 11.111111,11.111111 45 0 1 87.527903,13.583205 V 76.4168 A 11.111111,11.111111 135 0 1 76.416792,87.527911 H 13.583205 A 11.111111,11.111111 45 0 1 2.4720941,76.4168 V 13.583205 A 11.111111,11.111111 135 0 1 13.583205,2.4720941 Z"
   transform="matrix(0.97974888,0,0,0.97974879,0.3557464,0.35574662)" /><path
   style="fill:#d4d4d4;fill-opacity:1;stroke-width:4.57222"
   width="67.891373"
   height="11.660732"
   x="10.624223"
   y="35.111759"
   d="M 16.179778,35.111759 H 72.96004 a 5.5555556,5.5555556 45 0 1 5.555555,5.555556 v 0.549621 A 5.5555556,5.5555556 135 0 1 72.96004,46.772491 H 16.179778 a 5.5555556,5.5555556 45 0 1 -5.555555,-5.555555 v -0.549621 a 5.5555556,5.5555556 135 0 1 5.555555,-5.555556 z"
   transform="translate(-0.1254646,3.5023192)" /></svg>
