<?xml version="1.0" encoding="utf-8"?>
<!-- Generator: Adobe Illustrator 26.5.0, SVG Export Plug-In . SVG Version: 6.00 Build 0)  -->
<svg version="1.1" id="Duckstation_-_PSone" xmlns="http://www.w3.org/2000/svg" xmlns:xlink="http://www.w3.org/1999/xlink"
	 x="0px" y="0px" viewBox="0 0 150 150" style="enable-background:new 0 0 150 150;" xml:space="preserve">
<style type="text/css">
	.st0{fill:none;}
	.st1{fill:#FFFFFF;}
	.st2{fill:none;stroke:#FFFFFF;stroke-width:12;stroke-miterlimit:10;}
</style>
<g id="tela">
	<rect id="tela-2" class="st0" width="150" height="150"/>
</g>
<g id="By_Maxihplay_00000044169403115193977430000007228640530492480682_">
	<g id="PSone">
		<g id="botoes">
			<path id="B" class="st1" d="M117.2,112c-5.8,0-10.5-4.7-10.5-10.5S111.4,91,117.2,91s10.5,4.7,10.5,10.5S123.1,112,117.2,112z"/>
			<path id="A" class="st1" d="M32.3,112c-5.8,0-10.5-4.7-10.5-10.5S26.5,91,32.3,91s10.5,4.7,10.5,10.5S38,112,32.3,112z"/>
			<path id="reset" class="st1" d="M28.5,85.9c-3.7,0-6.7-3-6.7-6.7s3-6.7,6.7-6.7s6.7,3,6.7,6.7S32.2,85.9,28.5,85.9z"/>
		</g>
		<path id="corpo" class="st2" d="M15.7,27.8h118.6c2.8,0,5.1,2.3,5.1,5.1v84.3c0,2.8-2.3,5.1-5.1,5.1H15.7c-2.8,0-5.1-2.3-5.1-5.1
			V32.8C10.6,30,12.9,27.8,15.7,27.8z"/>
		<path id="tampa" class="st2" d="M94.9,50.4v-21H54v22.1c-5.4,5.2-8.8,12.6-8.8,20.5c0,16.1,13.3,29,29.8,29s29.8-13,29.8-29
			C104.8,63.4,101,55.7,94.9,50.4L94.9,50.4z"/>
	</g>
</g>
</svg>
