<?xml version="1.0" encoding="UTF-8"?><svg id="Duckstation_-_Joystick" xmlns="http://www.w3.org/2000/svg" viewBox="0 0 150 153"><defs><style>.cls-1{stroke-linecap:round;}.cls-1,.cls-2,.cls-3{stroke:#fff;stroke-miterlimit:10;}.cls-1,.cls-4,.cls-3{fill:none;}.cls-1,.cls-3{stroke-width:12px;}.cls-2{fill:#fff;stroke-width:5px;}</style></defs><g id="tela"><path id="tela-2" class="cls-4" d="M3,3H146.9c1.7,0,3.1,1.4,3.1-3V143.9c0,7.7-1.4,9.1-3.1,9.1H3c-1.7,0-3-1.4-3-9.1V0C0,4.4,1.4,3,3,3Z"/></g><g id="By_Maxihplay"><path id="Base" class="cls-3" d="M16.9,111.8c-1.8,0-3.1-1.7-2.8-3.5l7.8-29.7c.3-1.3,1.4-2.2,2.7-2.3l100.1-.7c1.3,0,2.5,.9,2.8,2.2l8.4,30.4c.4,1.8-.9,3.5-2.7,3.5-11.8,5-32.5,11.9-59.1,11.8-25.6-.2-45.6-6.8-57.2-11.7Z"/><g id="alavancas"><line id="b" class="cls-1" x1="109.8" y1="58" x2="110" y2="80.5"/><line id="a" class="cls-1" x1="40.9" y1="56.4" x2="41.1" y2="80.8"/><path id="alavanca_A" class="cls-2" d="M114.07,57.3c2.1-.3,2.6,.1,2.5,.2,1.8,.7,1.4,2.7,1.4,2.7-.44,3.86-5.11,4.1-5.7,4.1-1.32,1.73-6.17,1.47-6.3,.9-2.13-1.04-2.87-6.45-3.1-6.9-.51-1.8-.55-4.44-.41-4.94,.05-.63,1.91-2.25,1.91-3.1-.1-7.66,.78-11.82,.99-12.43,.31-.77-1.6-.11-1.49-.13,0,0-3.2,1.6-3.2,1.6-3.05,1.53-4.32-5.24-3.8-6.3h0c5.12-10.65,10.14-7.65,18.2-8.3,2.22,.79,.9,5.69,1,7.2-.3,.8-1.4,2.2-1.5,2.4h0c-.2,.2-1.8,2.3-1.1,5.3,.92,3.46,.39,15.95,.6,17.7h0Z"/><path id="alavanca_A-2" class="cls-2" d="M36.7,57.3c.21-1.75-.32-14.24,.6-17.7,.7-3-.9-5.1-1.1-5.3h0c-.1-.2-1.2-1.6-1.5-2.4,.1-1.51-1.22-6.41,1-7.2,8.06,.65,13.08-2.35,18.2,8.3h0c.52,1.06-.75,7.83-3.8,6.3,0,0-3.2-1.6-3.2-1.6,.11,.01-1.8-.64-1.49,.13,.21,.61,1.1,4.77,.99,12.43,0,.85,1.86,2.47,1.91,3.1,.14,.51,.1,3.14-.41,4.94-.22,.45-.96,5.85-3.1,6.9-.13,.57-4.98,.83-6.3-.9-.59,0-5.26-.24-5.7-4.1,0,0-.4-2,1.4-2.7-.1-.1,.4-.5,2.5-.2h0Z"/></g></g></svg>