<?xml version="1.0" encoding="UTF-8" standalone="no"?>
<svg
   viewBox="0 0 24 24"
   xmlns="http://www.w3.org/2000/svg">
  <g
     id="g2">
    <path
       fill="none"
       d="M0 0h24v24H0z"
       id="path1" />
    <path
       fill="#ffffff" d="M2 4c0-.552.455-1 .992-1h18.016c.548 0 .992.445.992 1v14c0 .552-.455 1-.992 1H2.992A.994.994 0 0 1 2 18V4zm2 1v12h16V5H4zm1 15h14v2H5v-2z"
       id="path2" />
  </g>
  <path
     style="fill:none;stroke:#ffffff;stroke-width:1"
     d="m 12.296876,11.077042 h 2.807301 v 3.47397 q -1.104171,0.468751 -2.484383,0.468751 -1.802089,0 -2.7656339,-1.015628 -0.9583364,-1.020837 -0.9583364,-2.885426 0,-1.161462 0.4739598,-2.0572982 0.4791682,-0.9010445 1.3645875,-1.3906293 0.890628,-0.4895849 2.041673,-0.4895849 1.244796,0 2.234382,0.4583348 l -0.213542,0.4791681 q -0.989586,-0.4583347 -2.05209,-0.4583347 -1.505213,0 -2.390632,0.9322946 -0.8802115,0.9270862 -0.8802115,2.5052166 0,1.718755 0.8385445,2.588549 0.838544,0.864587 2.463549,0.864587 1.052087,0 1.786464,-0.296876 v -2.677092 h -2.265632 z"
     id="text2"
     aria-label="G" />
</svg>
