<?xml version="1.0" encoding="utf-8"?>
<!-- Generator: Adobe Illustrator 26.5.0, SVG Export Plug-In . SVG Version: 6.00 Build 0)  -->
<svg version="1.1" id="Duckstation_-_sun" xmlns="http://www.w3.org/2000/svg" xmlns:xlink="http://www.w3.org/1999/xlink" x="0px"
	 y="0px" viewBox="0 0 150 150" style="enable-background:new 0 0 150 150;" xml:space="preserve">
<style type="text/css">
	.st0{fill:none;}
	.st1{fill:none;stroke:#FFFFFF;stroke-width:12;stroke-miterlimit:10;}
	.st2{fill:#FFFFFF;}
</style>
<g id="tela_00000118366813917709502150000017777452499633006759_">
	<g id="tela">
		<g id="Tela">
			<polygon id="tela-2" class="st0" points="0,0 150,-1 150,149 0,150 			"/>
		</g>
	</g>
</g>
<g id="By_Maxihplay_00000100344337571711176190000007228545676238242207_">
	<g id="sun">
		<path id="_x30_" class="st1" d="M130.4,125.3H19.6c-0.5,0-0.8-0.4-0.8-0.8V25.5c0-0.5,0.4-0.8,0.8-0.8h110.8
			c0.5,0,0.8,0.4,0.8,0.8v98.9C131.3,124.9,130.9,125.3,130.4,125.3z"/>
		<g id="B">
			<path class="st2" d="M48.5,80.3h-6.3c-2.9,0-5.3-2.3-5.3-5.3s2.3-5.3,5.3-5.3h6.3c2.9,0,5.3,2.3,5.3,5.3S51.3,80.3,48.5,80.3z"/>
			<path class="st2" d="M69.9,107.4v-6.3c0-2.9,2.3-5.3,5.3-5.3c2.9,0,5.3,2.3,5.3,5.3v6.3c0,2.9-2.3,5.3-5.3,5.3
				C72.3,112.6,69.9,110.2,69.9,107.4z"/>
			<path class="st2" d="M69.9,107.7v-6.3c0-2.9,2.3-5.3,5.3-5.3c2.9,0,5.3,2.3,5.3,5.3v6.3c0,2.9-2.3,5.3-5.3,5.3
				C72.3,112.9,69.9,110.6,69.9,107.7z"/>
			<path class="st2" d="M69.9,48.6v-6.3c0-2.9,2.3-5.3,5.3-5.3c2.9,0,5.3,2.3,5.3,5.3v6.3c0,2.9-2.3,5.3-5.3,5.3
				C72.3,53.9,69.9,51.5,69.9,48.6z"/>
			<path class="st2" d="M52.6,59.8l-4.4-4.4c-2.1-2.1-2.1-5.4,0-7.4c2.1-2.1,5.4-2.1,7.4,0l4.4,4.4c2.1,2.1,2.1,5.4,0,7.4
				C57.9,61.9,54.6,61.9,52.6,59.8z"/>
			<path class="st2" d="M48.2,94.6l4.4-4.4c2.1-2.1,5.4-2.1,7.4,0c2.1,2.1,2.1,5.4,0,7.4l-4.4,4.4c-2.1,2.1-5.4,2.1-7.4,0
				C46.1,100,46.1,96.7,48.2,94.6z"/>
			<path class="st2" d="M90.3,52.4l4.4-4.4c2.1-2.1,5.4-2.1,7.4,0c2.1,2.1,2.1,5.4,0,7.4l-4.4,4.4c-2.1,2.1-5.4,2.1-7.4,0
				C88.2,57.7,88.3,54.4,90.3,52.4z"/>
			<path class="st2" d="M94.8,101.8l-4.4-4.4c-2.1-2.1-2.1-5.4,0-7.4c2.1-2.1,5.4-2.1,7.4,0l4.4,4.4c2.1,2.1,2.1,5.4,0,7.4
				C100.2,103.8,96.8,103.8,94.8,101.8z"/>
			<path class="st2" d="M107.8,80.3h-6.3c-2.9,0-5.3-2.3-5.3-5.3s2.3-5.3,5.3-5.3h6.3c2.9,0,5.3,2.3,5.3,5.3S110.7,80.3,107.8,80.3z
				"/>
		</g>
		<circle id="A" class="st2" cx="75" cy="75" r="17.5"/>
	</g>
</g>
</svg>
