<svg height="16" viewBox="0 0 88.888889 88.888889" width="16" xmlns="http://www.w3.org/2000/svg"><path d="m13.583205 2.4720941h62.833587a11.111111 11.111111 45 0 1 11.111111 11.1111109v62.833595a11.111111 11.111111 135 0 1 -11.111111 11.111111h-62.833587a11.111111 11.111111 45 0 1 -11.1111109-11.111111v-62.833595a11.111111 11.111111 135 0 1 11.1111109-11.1111109z" fill="#d4d4d4" height="85.055817" transform="matrix(.97974888 0 0 .97974879 .355746 .355747)" width="85.055809" x="2.472094" y="2.472094"/><path d="m78.049 19.015-48.591 48.591c-.428.428-1.121.428-1.548 0l-27.59-27.591c-.427-.426-.427-1.119 0-1.547l6.704-6.704c.428-.427 1.121-.427 1.548 0l20.113 20.112 41.113-41.113c.429-.427 1.12-.427 1.548 0l6.703 6.704c.428.427.428 1.119 0 1.548z" fill="#2b2b2b" transform="matrix(.86650334 0 0 .95314623 10.490619 7.095529)"/></svg>