<?xml version="1.0" encoding="UTF-8"?><svg id="controller_-_Duckstation" xmlns="http://www.w3.org/2000/svg" viewBox="0 0 150 150"><defs><style>.cls-1{stroke:#000;stroke-width:12px;}.cls-1,.cls-2{fill:none;}</style></defs><path id="tela" class="cls-2" d="M0,0H150V150H0V0Z"/><path id="By_Maxihplay" class="cls-1" d="M55.87,45.59l-2.71-8.52s-10.65-6.62-22.39,.35l-3.72,9.38s-9.11,5.46-7.91,21.05h0l-7.41,34.31s3.12,19.69,23.12,11.69l20.65-25.96h38.99s20.65,25.96,20.65,25.96c20,8,23.12-11.69,23.12-11.69l-7.41-34.31h0c1.2-15.59-7.91-21.05-7.91-21.05l-3.72-9.38c-11.74-6.97-22.39-.35-22.39-.35l-2.71,8.52H55.87Z"/></svg>