<?xml version="1.0" encoding="UTF-8" standalone="no"?>
<svg id="controller_-_Pcsx2" viewBox="0 0 150 150" version="1.1" sodipodi:docname="controllers-line.svg" inkscape:version="1.2.2 (b0a8486541, 2022-12-01)" xmlns:inkscape="http://www.inkscape.org/namespaces/inkscape" xmlns:sodipodi="http://sodipodi.sourceforge.net/DTD/sodipodi-0.dtd" xmlns="http://www.w3.org/2000/svg" xmlns:svg="http://www.w3.org/2000/svg">
  <sodipodi:namedview id="namedview331" pagecolor="#ffffff" bordercolor="#000000" borderopacity="0.25" inkscape:showpageshadow="2" inkscape:pageopacity="0.0" inkscape:pagecheckerboard="0" inkscape:deskcolor="#d1d1d1" showgrid="false" inkscape:zoom="4.2567828" inkscape:cx="37.704531" inkscape:cy="80.459825" inkscape:window-width="2191" inkscape:window-height="1129" inkscape:window-x="0" inkscape:window-y="0" inkscape:window-maximized="1" inkscape:current-layer="controller_-_Pcsx2"/>
  <defs id="defs326">
    <style id="style324">.cls-1{opacity:.85;}.cls-1,.cls-2{fill:none;}.cls-2{stroke:#000;stroke-width:12px;}</style>
  </defs>
  <path id="tela" class="cls-1" d="M0,0H150V150H0V0Z"/>
  <path id="By_Maxihplay_and_Kam" class="cls-2" d="M 106.88086 25.220703 C 103.74146 25.215063 100.07226 26.068752 96.041016 28.5625 L 93.650391 36.662109 L 50.78125 36.662109 L 48.070312 28.142578 C 48.070312 28.142578 37.421629 21.522194 25.681641 28.492188 L 21.960938 37.873047 C 21.960938 37.873047 12.850782 43.331891 14.050781 58.921875 L 6.640625 93.232422 C 6.640625 93.232422 8.0532413 102.07667 15.007812 105.49805 L 12.695312 116.20117 C 12.695312 116.20117 15.816426 135.89062 35.816406 127.89062 L 50.136719 110.51172 C 50.136719 110.51172 65.296805 121.26162 73.466797 103.93164 L 82.736328 103.93164 C 82.736328 103.93164 89.935876 119.83061 106.25586 109.64062 L 122.42578 128.92188 C 122.42578 128.92188 141.61563 135.18029 144.76562 114.57031 L 136.30664 79.560547 C 136.30664 79.560547 136.36343 70.015863 132.05664 64.060547 L 130.25195 56.591797 C 130.25195 56.591797 130.38202 40.702809 121.08203 37.132812 L 118.13086 29.402344 C 118.13086 29.402344 113.78754 25.23311 106.88086 25.220703 z "/>
  <path id="By_Maxihplay_and_Kam-3" class="cls-2" d="m 20.120399,81.876162 -7.41,34.309998 c 0,0 3.12,19.69 23.12,11.69 l 14.32001,-17.38 c 0,0 15.16,10.75 23.33,-6.58 h 9.27 c 0,0 7.2,15.9 23.519991,5.71 l 16.17,19.28 c 0,0 19.19,6.26 22.34,-14.35 l -8.46,-35.009998 c 0,0 0.13,-15.89 -9.17,-19.46 l -2.95,-7.73 c 0,0 -9.19,-8.82 -22.09,-0.84 l -2.389994,8.1 H 56.850409 l -2.71,-8.52 c 0,0 -10.65001,-6.62 -22.39001,0.35 l -3.72,9.38 c 0,0 -9.11,5.46 -7.91,21.05 z" style="fill:none;stroke:#000000;stroke-width:12px"/>
</svg>