<!DOCTYPE svg PUBLIC "-//W3C//DTD SVG 1.1//EN" "http://www.w3.org/Graphics/SVG/1.1/DTD/svg11.dtd">
<!-- Uploaded to: SVG Repo, www.svgrepo.com, Transformed by: SVG Repo Mixer Tools -->
<svg version="1.1" id="_x32_" xmlns="http://www.w3.org/2000/svg" xmlns:xlink="http://www.w3.org/1999/xlink" viewBox="0 0 512 512" xml:space="preserve" width="800px" height="800px" fill="#000000">
<g id="SVGRepo_bgCarrier" stroke-width="0"/>
<g id="SVGRepo_tracerCarrier" stroke-linecap="round" stroke-linejoin="round"/>
<g id="SVGRepo_iconCarrier"> <style type="text/css"> .st0{fill:#000000;} </style> <g> <path class="st0" d="M332.571,140.81l-16.665,16.648c-41.547-24.17-95.688-18.468-131.288,17.116l153.521,153.52 c35.583-35.592,41.294-89.732,17.115-131.278l16.666-16.657L332.571,140.81z"/> <path class="st0" d="M0,299.943c0,0,9.585,18.251,28.989,45.303c14.864-9,51.042-31.664,90.012-61.833l6.324,6.332 c0,0-42.7,39.908-82.445,74.058c5.748,7.405,12.09,15.206,19.026,23.278c21.441-18.549,45.223-39.781,62.447-57.014l8.756,4.865 c0,0-29.692,31.691-60.914,63.788c6.558,7.279,13.584,14.701,21.079,22.196c18.954,18.954,37.494,34.692,54.158,47.448 c16.576-19.124,44.934-52.032,53.69-63.482l9.712,11.665c0,0-26.052,39.42-40.502,68.401 c26.269,17.935,43.907,26.331,43.907,26.331c31.331-54.654,114.695-169.502,114.695-169.502L172.997,185.825 C172.997,185.825,98.372,248.208,0,299.943z"/> <rect x="334.304" y="62.854" transform="matrix(0.7071 -0.7071 0.7071 0.7071 67.7361 328.4017)" class="st0" width="191.963" height="39.163"/> </g> </g>
</svg>