<?xml version="1.0" encoding="utf-8"?>
<!-- Generator: Adobe Illustrator 26.5.0, SVG Export Plug-In . SVG Version: 6.00 Build 0)  -->
<svg version="1.1" id="Duckstation_-_Joystick" xmlns="http://www.w3.org/2000/svg" xmlns:xlink="http://www.w3.org/1999/xlink"
	 x="0px" y="0px" viewBox="0 0 150 150" style="enable-background:new 0 0 150 150;" xml:space="preserve">
<style type="text/css">
	.st0{fill:none;}
	.st1{fill:none;stroke:#000000;stroke-width:12;stroke-miterlimit:10;}
	.st2{fill:none;stroke:#000000;stroke-width:12;stroke-linecap:round;stroke-miterlimit:10;}
	.st3{stroke:#000000;stroke-width:5;stroke-miterlimit:10;}
</style>
<g id="tela">
	<path id="tela-2" class="st0" d="M3,0h143.9c1.7,0,3.1,1.4,3.1-3v143.9c0,7.7-1.4,9.1-3.1,9.1H3c-1.7,0-3-1.4-3-9.1V-3
		C0,1.4,1.4,0,3,0z"/>
</g>
<g id="By_Maxihplay">
	<path id="Base" class="st1" d="M16.9,108.8c-1.8,0-3.1-1.7-2.8-3.5l7.8-29.7c0.3-1.3,1.4-2.2,2.7-2.3l100.1-0.7
		c1.3,0,2.5,0.9,2.8,2.2l8.4,30.4c0.4,1.8-0.9,3.5-2.7,3.5c-11.8,5-32.5,11.9-59.1,11.8C48.5,120.3,28.5,113.7,16.9,108.8z"/>
	<g id="alavancas">
		<line id="b" class="st2" x1="109.8" y1="55" x2="110" y2="77.5"/>
		<line id="a" class="st2" x1="40.9" y1="53.4" x2="41.1" y2="77.8"/>
		<path id="alavanca_A_00000147182982806732442090000011541912298013890730_" class="st3" d="M114.1,54.3c2.1-0.3,2.6,0.1,2.5,0.2
			c1.8,0.7,1.4,2.7,1.4,2.7c-0.4,3.9-5.1,4.1-5.7,4.1c-1.3,1.7-6.2,1.5-6.3,0.9c-2.1-1-2.9-6.5-3.1-6.9c-0.5-1.8-0.6-4.4-0.4-4.9
			c0.1-0.6,1.9-2.3,1.9-3.1c-0.1-7.7,0.8-11.8,1-12.4c0.3-0.8-1.6-0.1-1.5-0.1c0,0-3.2,1.6-3.2,1.6c-3.1,1.5-4.3-5.2-3.8-6.3l0,0
			c5.1-10.7,10.1-7.7,18.2-8.3c2.2,0.8,0.9,5.7,1,7.2c-0.3,0.8-1.4,2.2-1.5,2.4l0,0c-0.2,0.2-1.8,2.3-1.1,5.3
			C114.4,40.1,113.9,52.5,114.1,54.3L114.1,54.3z"/>
		<path id="alavanca_A" class="st3" d="M36.7,54.3c0.2-1.8-0.3-14.2,0.6-17.7c0.7-3-0.9-5.1-1.1-5.3l0,0c-0.1-0.2-1.2-1.6-1.5-2.4
			c0.1-1.5-1.2-6.4,1-7.2c8.1,0.6,13.1-2.4,18.2,8.3l0,0c0.5,1.1-0.7,7.8-3.8,6.3c0,0-3.2-1.6-3.2-1.6c0.1,0-1.8-0.6-1.5,0.1
			c0.2,0.6,1.1,4.8,1,12.4c0,0.9,1.9,2.5,1.9,3.1c0.1,0.5,0.1,3.1-0.4,4.9c-0.2,0.4-1,5.9-3.1,6.9c-0.1,0.6-5,0.8-6.3-0.9
			c-0.6,0-5.3-0.2-5.7-4.1c0,0-0.4-2,1.4-2.7C34.1,54.4,34.6,54,36.7,54.3L36.7,54.3z"/>
	</g>
</g>
</svg>
