<?xml version="1.0" encoding="UTF-8" standalone="no"?>
<svg
   id="memory_card_-_PCSX2"
   data-name="memory card - PCSX2"
   viewBox="0 0 150 150"
   version="1.1"
   sodipodi:docname="memcard-line.svg"
   inkscape:version="1.3 (0e150ed6c4, 2023-07-21)"
   xmlns:inkscape="http://www.inkscape.org/namespaces/inkscape"
   xmlns:sodipodi="http://sodipodi.sourceforge.net/DTD/sodipodi-0.dtd"
   xmlns="http://www.w3.org/2000/svg"
   xmlns:svg="http://www.w3.org/2000/svg">
  <sodipodi:namedview
     id="namedview2"
     pagecolor="#ffffff"
     bordercolor="#666666"
     borderopacity="1.0"
     inkscape:showpageshadow="2"
     inkscape:pageopacity="0.0"
     inkscape:pagecheckerboard="0"
     inkscape:deskcolor="#d1d1d1"
     inkscape:zoom="5.9933333"
     inkscape:cx="75"
     inkscape:cy="75"
     inkscape:window-width="1920"
     inkscape:window-height="1057"
     inkscape:window-x="1912"
     inkscape:window-y="-8"
     inkscape:window-maximized="1"
     inkscape:current-layer="memory_card_-_PCSX2" />
  <defs
     id="defs1">
    <style
       id="style1">&#10;      .cls-1 {&#10;        stroke: #000;&#10;        stroke-width: 9px;&#10;      }&#10;&#10;      .cls-2 {&#10;        fill-rule: evenodd;&#10;      }&#10;    </style>
  </defs>
  <g
     id="by_Maxihplay"
     data-name="by Maxihplay"
     transform="rotate(-90,75,75.005)">
    <g
       id="seta">
      <polygon
         class="cls-2"
         points="119.89,75.72 111.66,83.64 111.66,67.01 "
         id="polygon1" />
      <polygon
         points="106.66,92.03 124.51,75.8 106.66,57.97 "
         id="polygon2" />
    </g>
    <g
       id="Formato-2">
      <path
         d="M 145.26,129.28 H 23.78 c -10.53,0 -19.09,-8.56 -19.09,-19.09 V 39.8 c 0,-10.53 8.56,-19.09 19.09,-19.09 h 121.53 l -0.05,108.59 v 0 -0.02 z M 23.78,33.71 c -3.91,0 -7.09,3.18 -7.09,7.09 v 68.4 c 0,3.91 3.18,7.09 7.09,7.09 H 133.26 L 133.3,33.7 H 23.78 Z"
         id="path2" />
    </g>
    <path
       id="etiqueta-2"
       class="cls-1"
       d="m 59.28,53.8 v 42.4 c 0,2.23 -1.76,4.04 -3.94,4.04 H 37.66 c -2.17,0 -3.94,-1.81 -3.94,-4.04 v 0 -42.4 c 0,-2.23 1.76,-4.04 3.94,-4.04 h 17.68 c 2.17,0 3.94,1.81 3.94,4.04 z" />
  </g>
</svg>
