<?xml version="1.0" encoding="UTF-8" standalone="no"?>
<svg
   viewBox="0 0 24 24"
   xmlns="http://www.w3.org/2000/svg">
  <g
     id="g2">
    <path
       fill="none"
       d="M0 0h24v24H0z"
       id="path1" />
    <path
       fill="#000000" d="M2 4c0-.552.455-1 .992-1h18.016c.548 0 .992.445.992 1v14c0 .552-.455 1-.992 1H2.992A.994.994 0 0 1 2 18V4zm2 1v12h16V5H4zm1 15h14v2H5v-2z"
       id="path2" />
  </g>
  <path
     style="fill:none;stroke:#000000;stroke-width:1"
     d="M 9.5885343,14.915596 V 7.1551548 h 2.5312577 q 0.645836,0 1.145837,0.2760426 0.500002,0.2760425 0.786461,0.7760441 0.286459,0.5000016 0.286459,1.1666703 0,0.6562522 -0.286459,1.1510452 -0.281251,0.494793 -0.781252,0.770836 -0.500002,0.276042 -1.151046,0.276042 H 9.7135347 v -0.239584 h 2.4062573 q 0.583335,0 1.026045,-0.244792 0.447918,-0.244793 0.697919,-0.682294 0.255209,-0.4427096 0.255209,-1.0312532 0,-0.5989602 -0.255209,-1.0416699 Q 13.593755,7.8895321 13.145837,7.6447397 12.703127,7.3947389 12.119792,7.3947389 H 9.8281183 v 7.5208571 z m 4.5520977,0 -1.864589,-3.531261 h 0.270834 l 1.864589,3.531261 z"
     id="text2"
     aria-label="R" />
</svg>
