<?xml version="1.0" encoding="UTF-8" standalone="no"?>
<svg
   viewBox="0 0 24 24"
   xmlns="http://www.w3.org/2000/svg">
  <g
     id="g2">
    <path
       fill="none"
       d="M0 0h24v24H0z"
       id="path1" />
    <path
       d="M2 4c0-.552.455-1 .992-1h18.016c.548 0 .992.445.992 1v14c0 .552-.455 1-.992 1H2.992A.994.994 0 0 1 2 18V4zm2 1v12h16V5H4zm1 15h14v2H5v-2z"
       id="path2" />
  </g>
  <path
     style="fill:none;stroke:#000000;stroke-width:1"
     d="m 11.973959,15.03018 q -0.703128,0 -1.234379,-0.244793 Q 10.208328,14.540595 9.9010354,14.103093 9.5937428,13.665592 9.5572843,13.092674 h 0.2395841 q 0.036459,0.50521 0.3125006,0.890627 0.276043,0.38021 0.750003,0.593752 0.479168,0.213543 1.114587,0.213543 0.671877,0 1.171878,-0.229168 0.500002,-0.234376 0.776044,-0.651044 0.281251,-0.416667 0.281251,-0.963544 0,-0.416668 -0.182292,-0.734378 -0.182292,-0.317709 -0.572918,-0.562501 -0.385418,-0.250001 -1.015629,-0.44271 L 11.557291,10.936417 Q 10.640621,10.649958 10.187495,10.181206 9.7343682,9.7124546 9.7343682,9.0405774 q 0,-0.5729184 0.2968758,-1.0260449 0.302084,-0.4531264 0.822919,-0.7135439 0.520835,-0.2604175 1.182296,-0.2604175 0.666669,0 1.16667,0.2656259 0.50521,0.2656258 0.802086,0.7291689 0.296876,0.4583348 0.333334,1.057295 H 14.098965 Q 14.041673,8.3009918 13.489588,7.7905735 12.937503,7.2801552 12.036459,7.2801552 q -0.588544,0 -1.057295,0.2291674 -0.468752,0.2239591 -0.739586,0.625002 -0.2656257,0.3958346 -0.2656257,0.9062528 0,0.3854179 0.1770837,0.7031273 0.182292,0.3125013 0.546877,0.5520853 0.364584,0.239584 0.911461,0.411459 l 0.88542,0.270835 q 0.500001,0.15625 0.864586,0.348959 0.369792,0.192709 0.609377,0.432293 0.239584,0.239584 0.354167,0.53646 0.119792,0.291668 0.119792,0.651044 0,0.604168 -0.312501,1.078128 -0.307292,0.468752 -0.864586,0.739586 -0.552085,0.265626 -1.29167,0.265626 z"
     id="text2"
     aria-label="S" />
</svg>
