<?xml version="1.0" encoding="UTF-8"?><svg id="Duckstation_-_sun" xmlns="http://www.w3.org/2000/svg" viewBox="0 0 150 151"><defs><style>.cls-1,.cls-2{fill:none;}.cls-2{stroke:#000;stroke-miterlimit:10;stroke-width:12px;}</style></defs><g id="tela"><g id="tela-2"><g id="Tela"><polygon id="tela-2" class="cls-1" points="0 1 150 0 150 150 0 151 0 1"/></g></g></g><g id="By_Maxihplay"><g id="sun"><rect id="_0" class="cls-2" x="18.73" y="25.69" width="112.53" height="100.63" rx=".85" ry=".85"/><g id="B"><path d="M48.53,81.26h-6.29c-2.91,0-5.26-2.35-5.26-5.26s2.35-5.26,5.26-5.26h6.29c2.91,0,5.26,2.35,5.26,5.26s-2.44,5.26-5.26,5.26Z"/><path d="M69.93,108.38v-6.29c0-2.91,2.35-5.26,5.26-5.26s5.26,2.35,5.26,5.26v6.29c0,2.91-2.35,5.26-5.26,5.26s-5.26-2.44-5.26-5.26Z"/><path d="M69.93,108.66v-6.29c0-2.91,2.35-5.26,5.26-5.26s5.26,2.35,5.26,5.26v6.29c0,2.91-2.35,5.26-5.26,5.26s-5.26-2.35-5.26-5.26Z"/><path d="M69.93,49.62v-6.29c0-2.91,2.35-5.26,5.26-5.26s5.26,2.35,5.26,5.26v6.29c0,2.91-2.35,5.26-5.26,5.26s-5.26-2.35-5.26-5.26Z"/><path d="M52.57,60.79l-4.41-4.41c-2.07-2.07-2.07-5.35,0-7.42s5.35-2.07,7.42,0l4.41,4.41c2.07,2.07,2.07,5.35,0,7.42s-5.35,2.07-7.42,0Z"/><path d="M48.15,95.62l4.41-4.41c2.07-2.07,5.35-2.07,7.42,0s2.07,5.35,0,7.42l-4.41,4.41c-2.07,2.07-5.35,2.07-7.42,0s-2.07-5.35,0-7.42Z"/><path d="M90.3,53.38l4.41-4.41c2.07-2.07,5.35-2.07,7.42,0s2.07,5.35,0,7.42l-4.41,4.41c-2.07,2.07-5.35,2.07-7.42,0s-1.97-5.35,0-7.42Z"/><path d="M94.81,102.75l-4.41-4.41c-2.07-2.07-2.07-5.35,0-7.42s5.35-2.07,7.42,0l4.41,4.41c2.07,2.07,2.07,5.35,0,7.42s-5.44,2.07-7.42,0Z"/><path d="M107.76,81.26h-6.29c-2.91,0-5.26-2.35-5.26-5.26s2.35-5.26,5.26-5.26h6.29c2.91,0,5.26,2.35,5.26,5.26s-2.35,5.26-5.26,5.26Z"/></g><circle id="A" cx="75" cy="76" r="17.46"/></g></g></svg>