<svg height="600" viewBox="-72 -48 144 96" width="900" xmlns="http://www.w3.org/2000/svg"><path d="m-72-48v96h144v-96z" fill="#fff"/><g stroke="#000" stroke-width="4"><path d="m-50-12v24m6 0v-24m6 0v24m76 0v-11m0-2v-11m6 0v11m0 2v11m6 0v-11m0-2v-11" transform="matrix(.83205029 .5547002 -.5547002 .83205029 0 0)"/><path d="m-50-12v24m6 0v-11m0-2v-11m6 0v24m76 0v-11m0-2v-11m6 0v24m6 0v-11m0-2v-11" transform="matrix(.83205029 -.5547002 .5547002 .83205029 0 0)"/></g><g transform="matrix(.83205029 .5547002 -.5547002 .83205029 0 0)"><path d="m12 0a18 18 0 1 1 -36 0 24 24 0 1 1 48 0" fill="#cd2e3a"/><path d="m0 0a12 12 0 1 1 24 0 24 24 0 1 1 -48 0 12 12 0 1 0 24 0" fill="#0047a0"/></g></svg>