<svg height="600" viewBox="0 0 5850 3900" width="900" xmlns="http://www.w3.org/2000/svg" xmlns:xlink="http://www.w3.org/1999/xlink"><defs><path id="a" d="m0 0h5850v3900h-5850z"/><clipPath id="b"><use clip-rule="evenodd" xlink:href="#a"/></clipPath></defs><g clip-path="url(#b)"><use fill="#fff" xlink:href="#a"/><g transform="translate(.484375 -.000031)"><path d="m0 0h5850v3900h-5850z" fill="#b22234"/><path d="m5850 1800h-5850m0 600h5850m0 600h-5850m0-3000h5850m-5850 1200h5850m0-600h-5850" stroke="#fff" stroke-width="300" transform="translate(0 450)"/><path d="m0 0h2925v2100h-2925z" fill="#3c3b6e"/><g fill="#fff" transform="translate(113 83)"><path d="m114.127 0 70.534 217.082-184.661-134.1641h228.254l-184.6614 134.1641z"/><path d="m114.127 0 70.534 217.082-184.661-134.1641h228.254l-184.6614 134.1641z" transform="translate(0 420)"/><path d="m114.127 0 70.534 217.082-184.661-134.1641h228.254l-184.6614 134.1641z" transform="translate(0 840)"/><path d="m114.127 0 70.534 217.082-184.661-134.1641h228.254l-184.6614 134.1641z" transform="translate(0 1260)"/><path d="m114.127 0 70.534 217.082-184.661-134.1641h228.254l-184.6614 134.1641z" transform="translate(0 1680)"/><path d="m114.127 0 70.534 217.082-184.661-134.1641h228.254l-184.6614 134.1641z" transform="translate(247 210)"/><path d="m114.127 0 70.534 217.082-184.661-134.1641h228.254l-184.6614 134.1641z" transform="translate(247 630)"/><path d="m114.127 0 70.534 217.082-184.661-134.1641h228.254l-184.6614 134.1641z" transform="translate(247 1050)"/><path d="m114.127 0 70.534 217.082-184.661-134.1641h228.254l-184.6614 134.1641z" transform="translate(247 1470)"/><path d="m114.127 0 70.534 217.082-184.661-134.1641h228.254l-184.6614 134.1641z" transform="translate(494)"/><path d="m114.127 0 70.534 217.082-184.661-134.1641h228.254l-184.6614 134.1641z" transform="translate(494 420)"/><path d="m114.127 0 70.534 217.082-184.661-134.1641h228.254l-184.6614 134.1641z" transform="translate(494 840)"/><path d="m114.127 0 70.534 217.082-184.661-134.1641h228.254l-184.6614 134.1641z" transform="translate(494 1260)"/><path d="m114.127 0 70.534 217.082-184.661-134.1641h228.254l-184.6614 134.1641z" transform="translate(494 1680)"/><path d="m114.127 0 70.534 217.082-184.661-134.1641h228.254l-184.6614 134.1641z" transform="translate(741 210)"/><path d="m114.127 0 70.534 217.082-184.661-134.1641h228.254l-184.6614 134.1641z" transform="translate(741 630)"/><path d="m114.127 0 70.534 217.082-184.661-134.1641h228.254l-184.6614 134.1641z" transform="translate(741 1050)"/><path d="m114.127 0 70.534 217.082-184.661-134.1641h228.254l-184.6614 134.1641z" transform="translate(741 1470)"/><path d="m114.127 0 70.534 217.082-184.661-134.1641h228.254l-184.6614 134.1641z" transform="translate(988)"/><path d="m114.127 0 70.534 217.082-184.661-134.1641h228.254l-184.6614 134.1641z" transform="translate(988 420)"/><path d="m114.127 0 70.534 217.082-184.661-134.1641h228.254l-184.6614 134.1641z" transform="translate(988 840)"/><path d="m114.127 0 70.534 217.082-184.661-134.1641h228.254l-184.6614 134.1641z" transform="translate(988 1260)"/><path d="m114.127 0 70.534 217.082-184.661-134.1641h228.254l-184.6614 134.1641z" transform="translate(988 1680)"/><path d="m114.127 0 70.534 217.082-184.661-134.1641h228.254l-184.6614 134.1641z" transform="translate(1235 210)"/><path d="m114.127 0 70.534 217.082-184.661-134.1641h228.254l-184.6614 134.1641z" transform="translate(1235 630)"/><path d="m114.127 0 70.534 217.082-184.661-134.1641h228.254l-184.6614 134.1641z" transform="translate(1235 1050)"/><path d="m114.127 0 70.534 217.082-184.661-134.1641h228.254l-184.6614 134.1641z" transform="translate(1235 1470)"/><g transform="translate(1482)"><path d="m114.127 0 70.534 217.082-184.661-134.1641h228.254l-184.6614 134.1641z"/><path d="m114.127 0 70.534 217.082-184.661-134.1641h228.254l-184.6614 134.1641z" transform="translate(0 420)"/><path d="m114.127 0 70.534 217.082-184.661-134.1641h228.254l-184.6614 134.1641z" transform="translate(0 840)"/><path d="m114.127 0 70.534 217.082-184.661-134.1641h228.254l-184.6614 134.1641z" transform="translate(0 1260)"/><path d="m114.127 0 70.534 217.082-184.661-134.1641h228.254l-184.6614 134.1641z" transform="translate(0 1680)"/></g><g transform="translate(1729.0007 210)"><path d="m114.127 0 70.534 217.082-184.661-134.1641h228.254l-184.6614 134.1641z"/><path d="m114.127 0 70.534 217.082-184.661-134.1641h228.254l-184.6614 134.1641z" transform="translate(0 420)"/><path d="m114.127 0 70.534 217.082-184.661-134.1641h228.254l-184.6614 134.1641z" transform="translate(0 840)"/><path d="m114.127 0 70.534 217.082-184.661-134.1641h228.254l-184.6614 134.1641z" transform="translate(0 1260)"/></g><g transform="translate(1976.001)"><path d="m114.127 0 70.534 217.082-184.661-134.1641h228.254l-184.6614 134.1641z"/><path d="m114.127 0 70.534 217.082-184.661-134.1641h228.254l-184.6614 134.1641z" transform="translate(0 420)"/><path d="m114.127 0 70.534 217.082-184.661-134.1641h228.254l-184.6614 134.1641z" transform="translate(0 840)"/><path d="m114.127 0 70.534 217.082-184.661-134.1641h228.254l-184.6614 134.1641z" transform="translate(0 1260)"/><path d="m114.127 0 70.534 217.082-184.661-134.1641h228.254l-184.6614 134.1641z" transform="translate(0 1680)"/><g transform="translate(247.00006 210)"><path d="m114.127 0 70.534 217.082-184.661-134.1641h228.254l-184.6614 134.1641z"/><path d="m114.127 0 70.534 217.082-184.661-134.1641h228.254l-184.6614 134.1641z" transform="translate(0 420)"/><path d="m114.127 0 70.534 217.082-184.661-134.1641h228.254l-184.6614 134.1641z" transform="translate(0 840)"/><path d="m114.127 0 70.534 217.082-184.661-134.1641h228.254l-184.6614 134.1641z" transform="translate(0 1260)"/></g></g><g transform="translate(2470)"><path d="m114.127 0 70.534 217.082-184.661-134.1641h228.254l-184.6614 134.1641z"/><path d="m114.127 0 70.534 217.082-184.661-134.1641h228.254l-184.6614 134.1641z" transform="translate(0 420)"/><path d="m114.127 0 70.534 217.082-184.661-134.1641h228.254l-184.6614 134.1641z" transform="translate(0 840)"/><path d="m114.127 0 70.534 217.082-184.661-134.1641h228.254l-184.6614 134.1641z" transform="translate(0 1260)"/><path d="m114.127 0 70.534 217.082-184.661-134.1641h228.254l-184.6614 134.1641z" transform="translate(0 1680)"/></g></g></g><g transform="translate(2925.4844 -.000031)"><path d="m0 0h2925v3900h-2925z" fill="#d52b1e" transform="translate(.25)"/><path d="m2925 0h-2925v3900h2925zm-1441.23 2507.42 21.78 417.58h-87.1l21.78-417.58c.64-13.91-5.06-27.36-15.5-36.58-10.44-9.21-24.49-13.2-38.21-10.84l-415.649 73.06 56.129-154.83c4.67-12.64.78-26.84-9.68-35.33l-455.32-368.71 102.581-47.9c14.334-6.77 21.386-23.16 16.451-38.23l-90-276.77 262.258 55.65c14.649 3.05 29.422-4.64 35.323-18.39l50.807-119.52 204.68 219.68c9.61 10.14 24.76 12.72 37.19 6.34s19.16-20.2 16.52-33.92l-98.71-509.03 158.22 91.45c7.51 4.4 16.51 5.49 24.85 3.02 8.35-2.48 15.29-8.3 19.19-16.09l160.64-315.48 160.65 315.48c3.89 7.79 10.83 13.61 19.18 16.09 8.34 2.47 17.34 1.38 24.85-3.02l158.22-91.45-98.71 509.03c-2.64 13.72 4.09 27.54 16.52 33.92s27.58 3.8 37.19-6.34l204.68-219.68 50.81 119.52c5.9 13.75 20.67 21.44 35.32 18.39l262.26-55.65-90 276.77c-4.94 15.07 2.12 31.46 16.45 38.23l102.58 47.9-455.32 368.71c-10.46 8.49-14.35 22.69-9.68 35.33l56.13 154.83-415.65-73.06c-13.72-2.36-27.77 1.63-38.21 10.84-10.44 9.22-16.14 22.67-15.5 36.58z" fill="#fff" fill-rule="evenodd"/></g></g></svg>