<svg height="600" viewBox="0 0 810 540" width="900" xmlns="http://www.w3.org/2000/svg" xmlns:xlink="http://www.w3.org/1999/xlink"><defs><g id="a"><g id="b"><path id="c" d="m0 0v1h.5z" transform="matrix(.95105652 .30901699 -.30901699 .95105652 0 -1)"/><use transform="scale(-1 1)" xlink:href="#c"/></g><g id="d"><use transform="matrix(.30901699 .95105652 -.95105652 .30901699 0 0)" xlink:href="#b"/><use transform="matrix(-.80901699 .58778525 -.58778525 -.80901699 0 0)" xlink:href="#b"/></g><use transform="scale(-1 1)" xlink:href="#d"/></g></defs><path d="m0 0h810v540h-810z" fill="#039"/><g fill="#fc0" transform="matrix(30 0 0 30 405 270)"><use xlink:href="#a" y="-6"/><use xlink:href="#a" y="6"/><g id="e"><use x="-6" xlink:href="#a"/><use transform="matrix(-.80901699 -.58778525 .58778525 -.80901699 -3 -5.196152)" xlink:href="#a"/><use transform="matrix(-.80901699 .58778525 -.58778525 -.80901699 -5.196152 -3)" xlink:href="#a"/><use transform="matrix(.30901699 .95105652 -.95105652 .30901699 -5.196152 3)" xlink:href="#a"/><use transform="matrix(.30901699 .95105652 -.95105652 .30901699 -3 5.196152)" xlink:href="#a"/></g><use transform="scale(-1 1)" xlink:href="#e"/></g></svg>