<svg fill="currentColor" viewBox="0 0 24 24" xmlns="http://www.w3.org/2000/svg"><path d="m9.82843 5-2 2h-3.82843v12h16v-12h-3.8284l-2-2zm-.82843-2h6l2 2h4c.5523 0 1 .44772 1 1v14c0 .5523-.4477 1-1 1h-18c-.55228 0-1-.4477-1-1v-14c0-.55228.44772-1 1-1h4zm.64042 4.53044c.71508-.34011 1.51508-.53044 2.35958-.53044 3.0376 0 5.5 2.46243 5.5 5.5 0 1.55-.6412 2.9502-1.6727 3.9499l-2.0773-3.8499h1.7486c.0009-.0332.0014-.0666.0014-.1 0-1.933-1.567-3.5-3.5-3.5-.5088 0-.9922.10856-1.4284.30378zm4.67708 9.95896c-.7043.3276-1.4895.5106-2.3175.5106-3.03757 0-5.5-2.4624-5.5-5.5 0-1.5322.62654-2.91807 1.63738-3.91538l2.11262 3.91538h-1.75c0 1.933 1.567 3.5 3.5 3.5.4923 0 .9608-.1016 1.3857-.285z"/></svg>