<svg height="16" viewBox="0 0 88.888889 88.888889" width="16" xmlns="http://www.w3.org/2000/svg"><path d="m13.583205 2.4720941h62.833587a11.111111 11.111111 45 0 1 11.111111 11.1111109v62.833595a11.111111 11.111111 135 0 1 -11.111111 11.111111h-62.833587a11.111111 11.111111 45 0 1 -11.1111109-11.111111v-62.833595a11.111111 11.111111 135 0 1 11.1111109-11.1111109z" fill="#505050" height="85.055817" transform="matrix(.97974888 0 0 .97974879 .355746 .355747)" width="85.055809" x="2.472094" y="2.472094"/><path d="m16.179778 35.111759h56.780262a5.5555556 5.5555556 45 0 1 5.555555 5.555556v.549621a5.5555556 5.5555556 135 0 1 -5.555555 5.555555h-56.780262a5.5555556 5.5555556 45 0 1 -5.555555-5.555555v-.549621a5.5555556 5.5555556 135 0 1 5.555555-5.555556z" fill="#d4d4d4" height="11.660732" stroke-width="4.57222" transform="translate(-.125465 3.502319)" width="67.891373" x="10.624223" y="35.111759"/></svg>