<svg viewBox="0 0 150 150" xmlns="http://www.w3.org/2000/svg"><g fill="none" stroke="currentColor" stroke-linecap="round" stroke-width="12"><path d="m129.96 105.62h-24.71" stroke-miterlimit="10"/><path d="m130.32 75h-24.71" stroke-miterlimit="10"/><path d="m129.6 44.38h-24.72" stroke-miterlimit="10"/><path d="m20.04 44.38h24.71" stroke-miterlimit="10"/><path d="m19.68 75h24.71" stroke-miterlimit="10"/><path d="m20.4 105.62h24.72" stroke-miterlimit="10"/><path d="m52 20.94h46c2.8 0 5.07 2.19 5.07 4.88v98.36c0 2.7-2.27 4.88-5.07 4.88h-46c-2.8 0-5.07-2.19-5.07-4.88v-98.36c0-2.7 2.27-4.88 5.07-4.88z" stroke-linejoin="round"/></g><path d="m66.46 45.81c-3.48 0-6.31-2.81-6.31-6.26s2.83-6.26 6.31-6.26 6.31 2.81 6.31 6.26-2.83 6.26-6.31 6.26z" fill="currentColor"/></svg>