<svg viewBox="0 0 150 150" xmlns="http://www.w3.org/2000/svg"><g fill="none"><path d="m0 0h150v150h-150z" opacity=".85"/><g stroke="currentColor" stroke-width="12"><path d="m106.88086 25.220703c-3.1394-.00564-6.8086.848049-10.839844 3.341797l-2.390625 8.099609h-42.869141l-2.710938-8.519531s-10.648683-6.620384-22.388671.34961l-3.720703 9.380859s-9.110156 5.458844-7.910157 21.048828l-7.410156 34.310547s1.4126163 8.844248 8.367187 12.265628l-2.3125 10.70312s3.121114 19.68945 23.121094 11.68945l14.320313-17.3789s15.160086 10.7499 23.330078-6.58008h9.269531s7.199548 15.89897 23.519532 5.70898l16.16992 19.28126s19.18985 6.25841 22.33984-14.35157l-8.45898-35.009763s.05679-9.544684-4.25-15.5l-1.80469-7.46875s.13007-15.888988-9.16992-19.458985l-2.95117-7.730468s-4.34332-4.169234-11.25-4.181641z"/><path d="m20.120399 81.876162-7.41 34.309998s3.12 19.69 23.12 11.69l14.32001-17.38s15.16 10.75 23.33-6.58h9.27s7.2 15.9 23.519991 5.71l16.17 19.28s19.19 6.26 22.34-14.35l-8.46-35.009998s.13-15.89-9.17-19.46l-2.95-7.73s-9.19-8.82-22.09-.84l-2.389994 8.1h-42.869997l-2.71-8.52s-10.65001-6.62-22.39001.35l-3.72 9.38s-9.11 5.46-7.91 21.05z"/></g></g></svg>