<svg viewBox="0 0 150 150" xmlns="http://www.w3.org/2000/svg"><path d="m0 0h150v150h-150z" fill="none"/><g stroke="currentColor" stroke-width="12"><path d="m133.75 16.25-117.5 117.5" stroke-linecap="round" stroke-linejoin="round"/><path d="m55.87 45.59-2.71-8.52s-10.65-6.62-22.39.35l-3.72 9.38s-9.11 5.46-7.91 21.05l-7.41 34.31s3.12 19.69 23.12 11.69l20.65-25.96h38.99l20.65 25.96c20 8 23.12-11.69 23.12-11.69l-7.41-34.31c1.2-15.59-7.91-21.05-7.91-21.05l-3.72-9.38c-11.74-6.97-22.39-.35-22.39-.35l-2.71 8.52s-38.25 0-38.25 0z" fill="none"/></g></svg>