<svg viewBox="0 0 150 150" xmlns="http://www.w3.org/2000/svg"><g fill="currentColor" stroke="currentColor" stroke-miterlimit="10" stroke-width="2"><path d="m20.57 127.29v-7.95h12.21v-30.79l-10.63 5.87-2.93-7.29 15.21-8.03h7.51v40.25h10.52v7.95h-31.89z"/><path d="m95.6 103.13c0 3.94-.43 7.45-1.28 10.56-.86 3.1-2.11 5.73-3.76 7.86-1.65 2.14-3.66 3.77-6.03 4.89s-5.08 1.69-8.14 1.69c-2.64 0-5.07-.47-7.3-1.39-2.22-.93-4.14-2.39-5.76-4.38-1.61-1.99-2.87-4.54-3.78-7.64-.9-3.1-1.36-6.82-1.36-11.14 0-3.93.43-7.45 1.3-10.56.87-3.1 2.12-5.72 3.76-7.86s3.65-3.77 6.05-4.89 5.11-1.69 8.14-1.69c2.64 0 5.07.47 7.3 1.39 2.22.93 4.14 2.38 5.74 4.36s2.85 4.52 3.76 7.62c.9 3.1 1.36 6.83 1.36 11.18zm-28.37.15v1.37c0 .43.02.86.07 1.3l17.96-12.98c-.86-2.42-1.98-4.21-3.39-5.37s-3.06-1.74-4.97-1.74c-1.37 0-2.64.35-3.81 1.05s-2.19 1.77-3.06 3.21-1.55 3.25-2.05 5.43-.75 4.75-.75 7.74zm19.36.15c0-.42-.01-.84-.04-1.26-.02-.43-.04-.84-.04-1.23l-17.85 12.9c.78 2.37 1.88 4.13 3.3 5.28s3.07 1.72 4.95 1.72c1.37 0 2.64-.35 3.83-1.06s2.21-1.78 3.08-3.21 1.55-3.24 2.03-5.43c.49-2.19.73-4.76.73-7.72z"/><path d="m103.12 127.29v-7.95h12.21v-30.79l-10.63 5.87-2.93-7.29 15.21-8.03h7.51v40.25h10.52v7.95h-31.89z"/><path d="m52.38 46.43c0 3.94-.43 7.45-1.28 10.56-.86 3.1-2.11 5.73-3.76 7.86-1.65 2.14-3.66 3.77-6.03 4.89s-5.08 1.69-8.14 1.69c-2.64 0-5.07-.47-7.3-1.39-2.22-.93-4.14-2.39-5.76-4.38-1.61-1.99-2.87-4.54-3.78-7.64-.9-3.1-1.36-6.82-1.36-11.14 0-3.93.43-7.45 1.3-10.56.87-3.1 2.12-5.72 3.76-7.86s3.65-3.77 6.05-4.89 5.11-1.69 8.14-1.69c2.64 0 5.07.47 7.3 1.39 2.22.93 4.14 2.38 5.74 4.36s2.85 4.52 3.76 7.62c.9 3.1 1.36 6.83 1.36 11.18zm-28.37.15v1.37c0 .43.02.86.07 1.3l17.96-12.98c-.86-2.42-1.98-4.21-3.39-5.37s-3.06-1.74-4.97-1.74c-1.37 0-2.64.35-3.81 1.05s-2.19 1.77-3.06 3.21-1.55 3.25-2.05 5.43-.75 4.75-.75 7.74zm19.36.15c0-.42-.01-.84-.04-1.26-.02-.43-.04-.84-.04-1.23l-17.85 12.9c.78 2.37 1.88 4.13 3.3 5.28s3.07 1.72 4.95 1.72c1.37 0 2.64-.35 3.83-1.06s2.21-1.78 3.08-3.21 1.55-3.24 2.03-5.43c.49-2.19.73-4.76.73-7.72z"/><path d="m59.89 70.58v-7.95h12.21v-30.79l-10.63 5.87-2.93-7.29 15.21-8.03h7.51v40.25h10.52v7.95h-31.89z"/><path d="m134.93 46.43c0 3.94-.43 7.45-1.28 10.56-.86 3.1-2.11 5.73-3.76 7.86-1.65 2.14-3.66 3.77-6.03 4.89s-5.08 1.69-8.14 1.69c-2.64 0-5.07-.47-7.3-1.39-2.22-.93-4.14-2.39-5.76-4.38-1.61-1.99-2.87-4.54-3.78-7.64-.9-3.1-1.36-6.82-1.36-11.14 0-3.93.43-7.45 1.3-10.56.87-3.1 2.12-5.72 3.76-7.86s3.65-3.77 6.05-4.89 5.11-1.69 8.14-1.69c2.64 0 5.07.47 7.3 1.39 2.22.93 4.14 2.38 5.74 4.36s2.85 4.52 3.76 7.62c.9 3.1 1.36 6.83 1.36 11.18zm-28.37.15v1.37c0 .43.02.86.07 1.3l17.96-12.98c-.86-2.42-1.98-4.21-3.39-5.37s-3.06-1.74-4.97-1.74c-1.37 0-2.64.35-3.81 1.05s-2.19 1.77-3.06 3.21-1.55 3.25-2.05 5.43-.75 4.75-.75 7.74zm19.36.15c0-.42-.01-.84-.04-1.26-.02-.43-.04-.84-.04-1.23l-17.85 12.9c.78 2.37 1.88 4.13 3.3 5.28s3.07 1.72 4.95 1.72c1.37 0 2.64-.35 3.83-1.06s2.21-1.78 3.08-3.21 1.55-3.24 2.03-5.43c.49-2.19.73-4.76.73-7.72z"/></g><path d="m-3.8-.03h154.06v152.06h-154.06z" fill="none"/></svg>