<svg fill="currentColor" viewBox="0 0 24 24" xmlns="http://www.w3.org/2000/svg"><path d="m6.53451 3h14.46479c.5523 0 1 .44772 1 1v16c0 .5523-.4477 1-1 1h-14.46479c-.33436 0-.64659-.1671-.83205-.4453l-5.333338-8c-.223933-.3359-.223933-.7735 0-1.1094l5.333338-8c.18546-.2782.49769-.4453.83205-.4453zm.53518 2-4.66667 7 4.66667 7h12.92961v-14zm5.92961 5.5858 2.8284-2.82844 1.4143 1.41421-2.8285 2.82843 2.8285 2.8284-1.4143 1.4142-2.8284-2.8284-2.8284 2.8284-1.41422-1.4142 2.82842-2.8284-2.82842-2.82843 1.41422-1.41421z"/></svg>