<svg enable-background="new 0 0 150 150" viewBox="0 0 150 150" xmlns="http://www.w3.org/2000/svg"><path d="m0 0h150v150h-150z" fill="none"/><g fill="currentColor"><path d="m117.2 112c-5.8 0-10.5-4.7-10.5-10.5s4.7-10.5 10.5-10.5 10.5 4.7 10.5 10.5-4.6 10.5-10.5 10.5z"/><path d="m32.3 112c-5.8 0-10.5-4.7-10.5-10.5s4.7-10.5 10.5-10.5 10.5 4.7 10.5 10.5-4.8 10.5-10.5 10.5z"/><path d="m28.5 85.9c-3.7 0-6.7-3-6.7-6.7s3-6.7 6.7-6.7 6.7 3 6.7 6.7-3 6.7-6.7 6.7z"/></g><path d="m15.7 27.8h118.6c2.8 0 5.1 2.3 5.1 5.1v84.3c0 2.8-2.3 5.1-5.1 5.1h-118.6c-2.8 0-5.1-2.3-5.1-5.1v-84.4c0-2.8 2.3-5 5.1-5z" fill="none" stroke="currentColor" stroke-miterlimit="10" stroke-width="12"/><path d="m94.9 50.4v-21h-40.9v22.1c-5.4 5.2-8.8 12.6-8.8 20.5 0 16.1 13.3 29 29.8 29s29.8-13 29.8-29c0-8.6-3.8-16.3-9.9-21.6z" fill="none" stroke="currentColor" stroke-miterlimit="10" stroke-width="12"/></svg>