<svg viewBox="0 0 24 24" xmlns="http://www.w3.org/2000/svg"><path d="m0 0h24v24h-24z" fill="none"/><path d="m8.595 12.812a3.51 3.51 0 0 1 0-1.623l-.992-.573 1-1.732.992.573a3.496 3.496 0 0 1 1.405-.812v-1.145h2v1.145c.532.158 1.012.44 1.405.812l.992-.573 1 1.732-.992.573a3.51 3.51 0 0 1 0 1.622l.992.573-1 1.732-.992-.573a3.496 3.496 0 0 1 -1.405.812v1.145h-2v-1.145a3.496 3.496 0 0 1 -1.405-.812l-.992.573-1-1.732zm3.405.688a1.5 1.5 0 1 0 0-3 1.5 1.5 0 0 0 0 3zm3-9.5h-10v16h14v-12h-4zm-12-1.008c0-.548.447-.992.999-.992h12.001l5 5v13.993a1 1 0 0 1 -.993 1.007h-16.014a1 1 0 0 1 -.993-.992z" fill="currentColor"/></svg>