<svg fill="currentColor" viewBox="0 0 24 24" xmlns="http://www.w3.org/2000/svg"><path d="m11.2899 20c.215.7224.5435 1.396.9648 2h-8.2613c-.54864 0-.9934-.4553-.9934-.9918v-18.0164c0-.54775.44749-.9918.9985-.9918h12.0015l4.9998 5v4.6735c-.6217-.2953-1.2937-.5016-1.9998-.6026v-3.0709h-4v-4h-10v16zm6.7101 3c-2.7614 0-5-2.2386-5-5s2.2386-5 5-5 5 2.2386 5 5-2.2386 5-5 5zm-1.2934-2.2924c.3916.1874.8303.2924 1.2934.2924 1.6569 0 3-1.3431 3-3 0-.4631-.105-.9018-.2924-1.2934zm-1.4142-1.4142 4.001-4.001c-.3916-.1874-.8303-.2924-1.2934-.2924-1.6569 0-3 1.3431-3 3 0 .4631.105.9018.2924 1.2934z"/></svg>