<svg viewBox="0 0 24 24" xmlns="http://www.w3.org/2000/svg"><path d="m0 0h24v24h-24z" fill="none"/><path d="m12.414 5h8.586a1 1 0 0 1 1 1v14a1 1 0 0 1 -1 1h-18a1 1 0 0 1 -1-1v-16a1 1 0 0 1 1-1h7.414zm-8.414 0v14h16v-12h-8.414l-2-2zm4.591 8.809a3.508 3.508 0 0 1 0-1.622l-.991-.572 1-1.732.991.573a3.495 3.495 0 0 1 1.404-.812v-1.144h2v1.144c.532.159 1.01.44 1.403.812l.992-.573 1 1.731-.991.573a3.508 3.508 0 0 1 0 1.622l.991.572-1 1.731-.991-.572a3.495 3.495 0 0 1 -1.404.811v1.145h-2v-1.146a3.495 3.495 0 0 1 -1.404-.811l-.991.572-1-1.73.991-.573zm3.404.688a1.5 1.5 0 1 0 0-2.998 1.5 1.5 0 0 0 0 2.998z" fill="currentColor"/></svg>