<svg height="24" viewBox="0 0 24 24" width="24" xmlns="http://www.w3.org/2000/svg"><path d="m0 0h24v24h-24z" fill="none"/><path d="m12 22c-5.523 0-10-4.477-10-10s4.477-10 10-10 10 4.477 10 10-4.477 10-10 10zm-2.29-2.333a17.9 17.9 0 0 1 -1.683-6.667h-3.965a8.008 8.008 0 0 0 5.648 6.667zm.32-6.667c.151 2.439.848 4.73 1.97 6.752a15.905 15.905 0 0 0 1.97-6.752zm9.908 0h-3.965a17.9 17.9 0 0 1 -1.683 6.667 8.008 8.008 0 0 0 5.648-6.667zm-15.876-2h3.965a17.9 17.9 0 0 1 1.683-6.667 8.008 8.008 0 0 0 -5.648 6.667zm5.969 0h3.938a15.905 15.905 0 0 0 -1.969-6.752 15.905 15.905 0 0 0 -1.97 6.752zm4.259-6.667a17.9 17.9 0 0 1 1.683 6.667h3.965a8.008 8.008 0 0 0 -5.648-6.667z" fill="currentColor"/></svg>