<svg viewBox="0 0 150 153" xmlns="http://www.w3.org/2000/svg"><path d="m3 3h143.9c1.7 0 3.1 1.4 3.1-3v143.9c0 7.7-1.4 9.1-3.1 9.1h-143.9c-1.7 0-3-1.4-3-9.1v-143.9c0 4.4 1.4 3 3 3z" fill="none"/><g stroke="currentColor" stroke-miterlimit="10"><path d="m16.9 111.8c-1.8 0-3.1-1.7-2.8-3.5l7.8-29.7c.3-1.3 1.4-2.2 2.7-2.3l100.1-.7c1.3 0 2.5.9 2.8 2.2l8.4 30.4c.4 1.8-.9 3.5-2.7 3.5-11.8 5-32.5 11.9-59.1 11.8-25.6-.2-45.6-6.8-57.2-11.7z" fill="none" stroke-width="12"/><path d="m109.8 58 .2 22.5" fill="none" stroke-linecap="round" stroke-width="12"/><path d="m40.9 56.4.2 24.4" fill="none" stroke-linecap="round" stroke-width="12"/><path d="m114.07 57.3c2.1-.3 2.6.1 2.5.2 1.8.7 1.4 2.7 1.4 2.7-.44 3.86-5.11 4.1-5.7 4.1-1.32 1.73-6.17 1.47-6.3.9-2.13-1.04-2.87-6.45-3.1-6.9-.51-1.8-.55-4.44-.41-4.94.05-.63 1.91-2.25 1.91-3.1-.1-7.66.78-11.82.99-12.43.31-.77-1.6-.11-1.49-.13 0 0-3.2 1.6-3.2 1.6-3.05 1.53-4.32-5.24-3.8-6.3 5.12-10.65 10.14-7.65 18.2-8.3 2.22.79.9 5.69 1 7.2-.3.8-1.4 2.2-1.5 2.4-.2.2-1.8 2.3-1.1 5.3.92 3.46.39 15.95.6 17.7z" fill="currentColor" stroke-width="5"/><path d="m36.7 57.3c.21-1.75-.32-14.24.6-17.7.7-3-.9-5.1-1.1-5.3-.1-.2-1.2-1.6-1.5-2.4.1-1.51-1.22-6.41 1-7.2 8.06.65 13.08-2.35 18.2 8.3.52 1.06-.75 7.83-3.8 6.3 0 0-3.2-1.6-3.2-1.6.11.01-1.8-.64-1.49.13.21.61 1.1 4.77.99 12.43 0 .85 1.86 2.47 1.91 3.1.14.51.1 3.14-.41 4.94-.22.45-.96 5.85-3.1 6.9-.13.57-4.98.83-6.3-.9-.59 0-5.26-.24-5.7-4.1 0 0-.4-2 1.4-2.7-.1-.1.4-.5 2.5-.2z" fill="currentColor" stroke-width="5"/></g></svg>