<svg viewBox="0 0 150 150" xmlns="http://www.w3.org/2000/svg"><path d="m0 0h150v150h-150z" fill="none" opacity=".85"/><g fill="currentColor"><path d="m102.85 102.7h-55.7c-1.64 0-2.96-1.51-2.96-3.37v-5.75c0-1.86 1.33-3.37 2.96-3.37h55.7c1.64 0 2.96 1.51 2.96 3.37v5.75c0 1.86-1.33 3.37-2.96 3.37z"/><rect height="6.5" rx=".19" stroke="currentColor" stroke-miterlimit="10" stroke-width="9" width="6.5" x="30.55" y="73.44"/><rect height="6.5" rx=".19" stroke="currentColor" stroke-miterlimit="10" stroke-width="9" width="6.5" x="51.11" y="73.54"/><rect height="6.5" rx=".19" stroke="currentColor" stroke-miterlimit="10" stroke-width="9" width="6.5" x="71.68" y="73.34"/><rect height="6.5" rx=".19" stroke="currentColor" stroke-miterlimit="10" stroke-width="9" width="6.5" x="92.25" y="73.63"/><rect height="6.5" rx=".19" stroke="currentColor" stroke-miterlimit="10" stroke-width="9" width="6.5" x="112.95" y="73.78"/><rect height="6.5" rx=".19" stroke="currentColor" stroke-miterlimit="10" stroke-width="9" width="6.5" x="30.55" y="52.39"/><rect height="6.5" rx=".19" stroke="currentColor" stroke-miterlimit="10" stroke-width="9" width="6.5" x="51.11" y="52.49"/><rect height="6.5" rx=".19" stroke="currentColor" stroke-miterlimit="10" stroke-width="9" width="6.5" x="71.68" y="52.3"/><rect height="6.5" rx=".19" stroke="currentColor" stroke-miterlimit="10" stroke-width="9" width="6.5" x="92.25" y="52.59"/><rect height="6.5" rx=".19" stroke="currentColor" stroke-miterlimit="10" stroke-width="9" width="6.5" x="112.95" y="52.74"/></g><rect fill="none" height="78.9" rx="12" stroke="currentColor" stroke-miterlimit="10" stroke-width="12" width="124.83" x="12.58" y="35.55"/></svg>