<svg xmlns="http://www.w3.org/2000/svg" width="160" height="160"><path fill="currentColor" d="M10.105 2.008v121.53c0 10.53 8.56 19.09 19.09 19.09h14.793a19 19 0 0 1-.252-3.095v-8.904h-13.54c-3.91 0-7.09-3.182-7.09-7.092h-.01V14.017l82.59.042v3.972l12.99.006V2.06z"/><g fill="currentColor"><path fill-rule="evenodd" d="M106.38 49.926H89.75l8.71-8.23z"/><path d="m98.54 37.076-17.83 17.85h34.06z"/><path d="M152.307 18.053v121.48c0 10.53-8.56 19.09-19.09 19.09h-70.39c-10.53 0-19.09-8.56-19.09-19.09V18.003l108.59.05zm-95.57 121.48c0 3.91 3.18 7.09 7.09 7.09h68.4c3.91 0 7.09-3.18 7.09-7.09V30.053l-82.59-.04v109.52Z"/><g style="opacity:1"><path d="M59.28 53.8v42.4c0 2.23-1.76 4.04-3.94 4.04H37.66c-2.17 0-3.94-1.81-3.94-4.04V53.8c0-2.23 1.76-4.04 3.94-4.04h17.68c2.17 0 3.94 1.81 3.94 4.04" style="baseline-shift:baseline;display:inline;overflow:visible;vector-effect:none;fill:#000;stop-color:#000;stop-opacity:1" transform="rotate(-90 92.162 69.423)"/><path d="M37.66 45.26c-4.67 0-8.44 3.943-8.44 8.54v42.4c0 4.61 3.768 8.54 8.44 8.54h17.68c4.67 0 8.44-3.943 8.44-8.54V53.8c0-4.61-3.768-8.54-8.44-8.54zm.56 9h16.56v41.48H38.22Z" style="baseline-shift:baseline;display:inline;overflow:visible;vector-effect:none;stop-color:#000;stop-opacity:1" transform="rotate(-90 92.162 69.423)"/></g></g></svg>