<svg viewBox="0 0 150 150" xmlns="http://www.w3.org/2000/svg"><g fill="currentColor" transform="matrix(0 -1 1 0 .62336 150.48505)"><path d="m111.66 83.64v-16.63l8.23 8.71z" fill-rule="evenodd"/><path d="m124.51 75.8-17.85-17.83v34.06z"/><path d="m145.26 129.28h-121.48c-10.53 0-19.09-8.56-19.09-19.09v-70.39c0-10.53 8.56-19.09 19.09-19.09h121.53l-.05 108.59zm-121.48-95.57c-3.91 0-7.09 3.18-7.09 7.09v68.4c0 3.91 3.18 7.09 7.09 7.09h109.48l.04-82.59h-109.52z"/><path d="m59.28 53.8v42.4c0 2.23-1.76 4.04-3.94 4.04h-17.68c-2.17 0-3.94-1.81-3.94-4.04v-42.4c0-2.23 1.76-4.04 3.94-4.04h17.68c2.17 0 3.94 1.81 3.94 4.04z" stroke="currentColor" stroke-width="9"/></g></svg>