<svg height="24" viewBox="0 0 24 24" width="24" xmlns="http://www.w3.org/2000/svg"><path d="m0 0h24v24h-24z" fill="none"/><path d="m11.141 4c-1.582 0-2.387.169-3.128.565a3.453 3.453 0 0 0 -1.448 1.448c-.396.74-.565 1.546-.565 3.127v5.718c0 1.582.169 2.387.565 3.128.337.63.818 1.111 1.448 1.448.74.396 1.546.565 3.128.565h1.718c1.582 0 2.387-.169 3.128-.565a3.453 3.453 0 0 0 1.448-1.448c.396-.74.565-1.546.565-3.128v-5.718c0-1.582-.169-2.387-.565-3.128a3.453 3.453 0 0 0 -1.448-1.448c-.74-.395-1.546-.564-3.127-.564h-1.72zm0-2h1.718c2.014 0 3.094.278 4.072.801a5.452 5.452 0 0 1 2.268 2.268c.523.978.801 2.058.801 4.072v5.718c0 2.014-.278 3.094-.801 4.072a5.452 5.452 0 0 1 -2.268 2.268c-.978.523-2.058.801-4.072.801h-1.719c-2.014 0-3.094-.278-4.072-.801a5.452 5.452 0 0 1 -2.268-2.268c-.522-.978-.8-2.058-.8-4.072v-5.719c0-2.014.278-3.094.801-4.072a5.452 5.452 0 0 1 2.269-2.267c.977-.523 2.057-.801 4.071-.801zm-.141 4h2v5h-2z" fill="currentColor"/></svg>