<svg height="34" viewBox="0 0 34 34" width="34" xmlns="http://www.w3.org/2000/svg"><path d="m28.273315 15.343956a13.048655 13.048655 0 0 1 -13.048654 13.048655 13.048655 13.048655 0 0 1 -13.0486547-13.048655 13.048655 13.048655 0 0 1 13.0486547-13.0486546 13.048655 13.048655 0 0 1 13.048654 13.0486546zm-9.816418 0a3.2322357 3.2322357 0 0 1 -3.232236 3.232236 3.2322357 3.2322357 0 0 1 -3.232236-3.232236 3.2322357 3.2322357 0 0 1 3.232236-3.232236 3.2322357 3.2322357 0 0 1 3.232236 3.232236zm7.288323-7.7191468a13.048655 13.048655 0 0 1 6.078773 11.0312348 13.048655 13.048655 0 0 1 -13.048655 13.048655 13.048655 13.048655 0 0 1 -10.5205588-5.329509" fill="none" stroke="currentColor" stroke-width="2"/></svg>