<svg viewBox="0 0 150 150" xmlns="http://www.w3.org/2000/svg"><g fill="none"><path d="m0 0h150v150h-150z"/><g stroke="currentColor" stroke-miterlimit="10" stroke-width="12"><path d="m91.9 87.8h14l20.2 21.1c3.6 2.5 8.5-.2 8.4-4.6l-3.9-35.4c0-10.3-8.3-18.6-18.6-18.6h-20.1z"/><path d="m83.7 40.1-.2 59"/><path d="m101.6 46.2h15.1l9.4 5.8" stroke-linecap="round"/><path d="m58.1 87.8h-14l-20.2 21.1c-3.6 2.5-8.5-.2-8.4-4.6l3.9-35.4c0-10.3 8.3-18.6 18.6-18.6h20.1z"/><path d="m66.3 40.1.2 59"/><path d="m48.1 46.2h-15.1l-9.4 5.8" stroke-linecap="round"/></g></g></svg>