<svg viewBox="0 0 640 640" xmlns="http://www.w3.org/2000/svg"><path d="m384 64c-17.7 0-32 14.3-32 32s14.3 32 32 32h82.7l-201.4 201.4c-12.5 12.5-12.5 32.8 0 45.3s32.8 12.5 45.3 0l201.4-201.4v82.7c0 17.7 14.3 32 32 32s32-14.3 32-32v-160c0-17.7-14.3-32-32-32zm-240 96c-44.2 0-80 35.8-80 80v256c0 44.2 35.8 80 80 80h256c44.2 0 80-35.8 80-80v-80c0-17.7-14.3-32-32-32s-32 14.3-32 32v80c0 8.8-7.2 16-16 16h-256c-8.8 0-16-7.2-16-16v-256c0-8.8 7.2-16 16-16h80c17.7 0 32-14.3 32-32s-14.3-32-32-32z" fill="currentColor"/></svg>