<svg viewBox="0 0 24 24" xmlns="http://www.w3.org/2000/svg"><path d="m0 0h24v24h-24z" fill="none"/><path d="m3.34 17a10.018 10.018 0 0 1 -.978-2.326 3 3 0 0 0 .002-5.347 9.99 9.99 0 0 1 2.501-4.337 3 3 0 0 0 4.631-2.674 9.99 9.99 0 0 1 5.007.002 3 3 0 0 0 4.632 2.672c.579.59 1.093 1.261 1.525 2.01.433.749.757 1.53.978 2.326a3 3 0 0 0 -.002 5.347 9.99 9.99 0 0 1 -2.501 4.337 3 3 0 0 0 -4.631 2.674 9.99 9.99 0 0 1 -5.007-.002 3 3 0 0 0 -4.632-2.672 10.018 10.018 0 0 1 -1.525-2.01zm5.66.196a4.993 4.993 0 0 1 2.25 2.77c.499.047 1 .048 1.499.001a4.993 4.993 0 0 1 2.251-2.77 4.993 4.993 0 0 1 3.525-.565c.29-.408.54-.843.748-1.298a4.993 4.993 0 0 1 -1.273-3.334c0-1.26.47-2.437 1.273-3.334a8.126 8.126 0 0 0 -.75-1.298 4.993 4.993 0 0 1 -3.523-.564 4.993 4.993 0 0 1 -2.25-2.77c-.499-.047-1-.048-1.499-.001a4.993 4.993 0 0 1 -2.251 2.77 4.993 4.993 0 0 1 -3.525.565 7.99 7.99 0 0 0 -.748 1.298 4.993 4.993 0 0 1 1.273 3.334c0 1.26-.47 2.437-1.273 3.334a8.126 8.126 0 0 0 .75 1.298 4.993 4.993 0 0 1 3.523.564zm3-2.196a3 3 0 1 1 0-6 3 3 0 0 1 0 6zm0-2a1 1 0 1 0 0-2 1 1 0 0 0 0 2z" fill="currentColor"/></svg>