<svg viewBox="0 0 24 24" xmlns="http://www.w3.org/2000/svg"><path d="m0 0h24v24h-24z" fill="none"/><path d="m2 4c0-.552.455-1 .992-1h18.016c.548 0 .992.445.992 1v14c0 .552-.455 1-.992 1h-18.016a.994.994 0 0 1 -.992-1zm2 1v12h16v-12zm1 15h14v2h-14z" fill="currentColor"/><path d="m12.296876 11.077042h2.807301v3.47397q-1.104171.468751-2.484383.468751-1.802089 0-2.7656339-1.015628-.9583364-1.020837-.9583364-2.885426 0-1.161462.4739598-2.0572982.4791682-.9010445 1.3645875-1.3906293.890628-.4895849 2.041673-.4895849 1.244796 0 2.234382.4583348l-.213542.4791681q-.989586-.4583347-2.05209-.4583347-1.505213 0-2.390632.9322946-.8802115.9270862-.8802115 2.5052166 0 1.718755.8385445 2.588549.838544.864587 2.463549.864587 1.052087 0 1.786464-.296876v-2.677092h-2.265632z" fill="none" stroke="currentColor"/></svg>