<svg viewBox="0 0 24 24" xmlns="http://www.w3.org/2000/svg"><path d="m0 0h24v24h-24z" fill="none"/><path d="m2 4c0-.552.455-1 .992-1h18.016c.548 0 .992.445.992 1v14c0 .552-.455 1-.992 1h-18.016a.994.994 0 0 1 -.992-1zm2 1v12h16v-12zm1 15h14v2h-14z" fill="currentColor"/><path d="m9.5885343 14.915596v-7.7604412h2.5312577q.645836 0 1.145837.2760426.500002.2760425.786461.7760441.286459.5000016.286459 1.1666703 0 .6562522-.286459 1.1510452-.281251.494793-.781252.770836-.500002.276042-1.151046.276042h-2.4062573v-.239584h2.4062573q.583335 0 1.026045-.244792.447918-.244793.697919-.682294.255209-.4427096.255209-1.0312532 0-.5989602-.255209-1.0416699-.250001-.4427098-.697919-.6875022-.44271-.2500008-1.026045-.2500008h-2.2916737v7.5208571zm4.5520977 0-1.864589-3.531261h.270834l1.864589 3.531261z" fill="none" stroke="currentColor"/></svg>