<svg viewBox="0 0 24 24" xmlns="http://www.w3.org/2000/svg"><path d="m0 0h24v24h-24z" fill="none"/><path d="m2 4c0-.552.455-1 .992-1h18.016c.548 0 .992.445.992 1v14c0 .552-.455 1-.992 1h-18.016a.994.994 0 0 1 -.992-1zm2 1v12h16v-12zm1 15h14v2h-14z" fill="currentColor"/><path d="m11.973959 15.03018q-.703128 0-1.234379-.244793-.531252-.244792-.8385446-.682294-.3072926-.437501-.3437511-1.010419h.2395841q.036459.50521.3125006.890627.276043.38021.750003.593752.479168.213543 1.114587.213543.671877 0 1.171878-.229168.500002-.234376.776044-.651044.281251-.416667.281251-.963544 0-.416668-.182292-.734378-.182292-.317709-.572918-.562501-.385418-.250001-1.015629-.44271l-.875002-.270834q-.91667-.286459-1.369796-.755211-.4531268-.4687514-.4531268-1.1406286 0-.5729184.2968758-1.0260449.302084-.4531264.822919-.7135439.520835-.2604175 1.182296-.2604175.666669 0 1.16667.2656259.50521.2656258.802086.7291689.296876.4583348.333334 1.057295h-.239584q-.057292-.7916691-.609377-1.3020874-.552085-.5104183-1.453129-.5104183-.588544 0-1.057295.2291674-.468752.2239591-.739586.625002-.2656257.3958346-.2656257.9062528 0 .3854179.1770837.7031273.182292.3125013.546877.5520853.364584.239584.911461.411459l.88542.270835q.500001.15625.864586.348959.369792.192709.609377.432293.239584.239584.354167.53646.119792.291668.119792.651044 0 .604168-.312501 1.078128-.307292.468752-.864586.739586-.552085.265626-1.29167.265626z" fill="none" stroke="currentColor"/></svg>