<svg fill="currentColor" viewBox="0 0 24 24" xmlns="http://www.w3.org/2000/svg"><path d="m14 4.4375c1.3462 0 2.4375-1.09131 2.4375-2.4375h1.125c0 1.34619 1.0913 2.4375 2.4375 2.4375v1.125c-1.3462 0-2.4375 1.09131-2.4375 2.4375h-1.125c0-1.34619-1.0913-2.4375-2.4375-2.4375zm-13 6.5625c3.31371 0 6-2.68629 6-6h2c0 3.31371 2.6863 6 6 6v2c-3.3137 0-6 2.6863-6 6h-2c0-3.3137-2.68629-6-6-6zm3.87601 1c1.31116.7276 2.39642 1.8128 3.12399 3.124.72757-1.3112 1.81283-2.3964 3.124-3.124-1.31117-.7276-2.39643-1.8128-3.124-3.12399-.72757 1.31119-1.81283 2.39639-3.12399 3.12399zm12.37399 2c0 1.7949-1.4551 3.25-3.25 3.25v1.5c1.7949 0 3.25 1.4551 3.25 3.25h1.5c0-1.7949 1.4551-3.25 3.25-3.25v-1.5c-1.7949 0-3.25-1.4551-3.25-3.25z"/></svg>