<svg viewBox="0 0 150 150" xmlns="http://www.w3.org/2000/svg"><path d="m0 0h150v150h-150z" fill="none" opacity=".44"/><g fill="currentColor"><path d="m36.7 133.35c2.34-8.22 5.46-11.5 13.15-14.05 1.73-.57 1.73-3.04 0-3.62-7.69-2.55-10.81-5.83-13.15-14.05-.53-1.85-3.15-1.85-3.67 0-2.34 8.22-5.46 11.5-13.15 14.05-1.73.57-1.73 3.04 0 3.62 7.69 2.55 10.81 5.83 13.15 14.05.53 1.85 3.15 1.85 3.67 0z"/><path d="m78.09 124.45c7.26-30.32 16-39.65 43.97-47.64 3.07-.88 3.07-5.23 0-6.1-27.97-7.99-36.71-17.32-43.97-47.64-.78-3.24-5.4-3.24-6.17 0-7.26 30.32-16 39.65-43.97 47.64-3.07.88-3.07 5.23 0 6.1 27.97 7.99 36.71 17.32 43.97 47.64.78 3.24 5.4 3.24 6.17 0z"/><path d="m116.03 17.45c-2.06 7.21-4.81 10.1-11.56 12.34-1.54.51-1.54 2.7 0 3.21 6.75 2.24 9.5 5.13 11.56 12.34.47 1.65 2.8 1.65 3.27 0 2.06-7.21 4.81-10.1 11.56-12.34 1.54-.51 1.54-2.7 0-3.21-6.75-2.24-9.5-5.13-11.56-12.34-.47-1.65-2.8-1.65-3.27 0z"/></g></svg>