<svg enable-background="new 0 0 150 150" viewBox="0 0 150 150" xmlns="http://www.w3.org/2000/svg"><path d="m0 0 150-1v150l-150 1z" fill="none"/><path d="m130.4 125.3h-110.8c-.5 0-.8-.4-.8-.8v-99c0-.5.4-.8.8-.8h110.8c.5 0 .8.4.8.8v98.9c.1.5-.3.9-.8.9z" fill="none" stroke="currentColor" stroke-miterlimit="10" stroke-width="12"/><g fill="currentColor"><path d="m48.5 80.3h-6.3c-2.9 0-5.3-2.3-5.3-5.3s2.3-5.3 5.3-5.3h6.3c2.9 0 5.3 2.3 5.3 5.3s-2.5 5.3-5.3 5.3z"/><path d="m69.9 107.4v-6.3c0-2.9 2.3-5.3 5.3-5.3 2.9 0 5.3 2.3 5.3 5.3v6.3c0 2.9-2.3 5.3-5.3 5.3-2.9-.1-5.3-2.5-5.3-5.3z"/><path d="m69.9 107.7v-6.3c0-2.9 2.3-5.3 5.3-5.3 2.9 0 5.3 2.3 5.3 5.3v6.3c0 2.9-2.3 5.3-5.3 5.3-2.9-.1-5.3-2.4-5.3-5.3z"/><path d="m69.9 48.6v-6.3c0-2.9 2.3-5.3 5.3-5.3 2.9 0 5.3 2.3 5.3 5.3v6.3c0 2.9-2.3 5.3-5.3 5.3-2.9 0-5.3-2.4-5.3-5.3z"/><path d="m52.6 59.8-4.4-4.4c-2.1-2.1-2.1-5.4 0-7.4 2.1-2.1 5.4-2.1 7.4 0l4.4 4.4c2.1 2.1 2.1 5.4 0 7.4-2.1 2.1-5.4 2.1-7.4 0z"/><path d="m48.2 94.6 4.4-4.4c2.1-2.1 5.4-2.1 7.4 0 2.1 2.1 2.1 5.4 0 7.4l-4.4 4.4c-2.1 2.1-5.4 2.1-7.4 0-2.1-2-2.1-5.3 0-7.4z"/><path d="m90.3 52.4 4.4-4.4c2.1-2.1 5.4-2.1 7.4 0 2.1 2.1 2.1 5.4 0 7.4l-4.4 4.4c-2.1 2.1-5.4 2.1-7.4 0-2.1-2.1-2-5.4 0-7.4z"/><path d="m94.8 101.8-4.4-4.4c-2.1-2.1-2.1-5.4 0-7.4 2.1-2.1 5.4-2.1 7.4 0l4.4 4.4c2.1 2.1 2.1 5.4 0 7.4-2 2-5.4 2-7.4 0z"/><path d="m107.8 80.3h-6.3c-2.9 0-5.3-2.3-5.3-5.3s2.3-5.3 5.3-5.3h6.3c2.9 0 5.3 2.3 5.3 5.3s-2.4 5.3-5.3 5.3z"/><circle cx="75" cy="75" r="17.5"/></g></svg>