<svg viewBox="0 0 24 24" xmlns="http://www.w3.org/2000/svg"><path d="m0 0h24v24h-24z" fill="none"/><path d="m10 7.22-3.397 2.78h-3.603v4h3.603l3.397 2.78zm-4.111 8.78h-3.889a1 1 0 0 1 -1-1v-6a1 1 0 0 1 1-1h3.889l5.294-4.332a.5.5 0 0 1 .817.387v15.89a.5.5 0 0 1 -.817.387l-5.293-4.332zm13.517 4.134-1.416-1.416a8.978 8.978 0 0 0 3.01-6.718 8.982 8.982 0 0 0 -3.304-6.968l1.42-1.42a10.976 10.976 0 0 1 3.884 8.388c0 3.223-1.386 6.122-3.594 8.134zm-3.543-3.543-1.422-1.422a3.993 3.993 0 0 0 1.559-3.169c0-1.43-.75-2.685-1.88-3.392l1.439-1.439a5.991 5.991 0 0 1 2.441 4.831c0 1.842-.83 3.49-2.137 4.591z" fill="currentColor"/></svg>