<svg height="16" viewBox="0 0 87.999995 16" width="88" xmlns="http://www.w3.org/2000/svg"><g stroke="#000" stroke-linecap="round" stroke-linejoin="round" stroke-width=".5"><g fill="#ff3"><path d="m12.866945 3.7744083 2.417441 4.8982696 5.405562.7854747-3.911501 3.8127714.92338 5.38372-4.834882-2.541848-4.8348814 2.541847.9233799-5.383719-3.9115007-3.8127718 5.4055612-.7854743z" transform="translate(-4.544 -3.368415)"/><path d="m12.866945 3.7744083 2.417441 4.8982696 5.405562.7854747-3.911501 3.8127714.92338 5.38372-4.834882-2.541848-4.8348814 2.541847.9233799-5.383719-3.9115007-3.8127718 5.4055612-.7854743z" transform="translate(13.508654 -3.287675)"/><path d="m12.866945 3.7744083 2.417441 4.8982696 5.405562.7854747-3.911501 3.8127714.92338 5.38372-4.834882-2.541848-4.8348814 2.541847.9233799-5.383719-3.9115007-3.8127718 5.4055612-.7854743z" transform="translate(31.485839 -3.368415)"/><path d="m12.866945 3.7744083 2.417441 4.8982696 5.405562.7854747-3.911501 3.8127714.92338 5.38372-4.834882-2.541848-4.8348814 2.541847.9233799-5.383719-3.9115007-3.8127718 5.4055612-.7854743z" transform="translate(49.500759 -3.368415)"/></g><path d="m12.866945 3.7744083 2.417441 4.8982696 5.405562.7854747-3.911501 3.8127714.92338 5.38372-4.834882-2.541848-4.8348814 2.541847.9233799-5.383719-3.9115007-3.8127718 5.4055612-.7854743z" fill="#fff" transform="translate(66.81011 -3.368415)"/></g></svg>