<svg viewBox="0 0 122.88 111.24" xmlns="http://www.w3.org/2000/svg"><path d="m2.5 85 43-74.41a22.59 22.59 0 0 1 8-8.35 15.72 15.72 0 0 1 16 0 22.52 22.52 0 0 1 7.93 8.38l.23.44 42.08 73.07a20.91 20.91 0 0 1 3 10.84 16.44 16.44 0 0 1 -1.74 7.43 15.45 15.45 0 0 1 -5.74 6 21 21 0 0 1 -11.35 2.78h-86.21c-.21 0-.43 0-.64 0a19 19 0 0 1 -7.83-1.74 15.83 15.83 0 0 1 -6.65-5.72 16.26 16.26 0 0 1 -2.58-8.54 21.66 21.66 0 0 1 2.2-9.62c.1-.2.2-.4.31-.59z"/><path d="m9.09 88.78 43-74.38c5.22-8.94 13.49-9.2 18.81 0l42.32 73.49c4.12 6.79 2.41 15.9-9.31 15.72h-86.21c-7.92.18-12.7-6.17-8.61-14.83z" fill="#fec901" fill-rule="evenodd"/><path d="m57.55 83.15a5.47 5.47 0 0 1 5.85-1.22 5.65 5.65 0 0 1 2 1.3 5.49 5.49 0 0 1 1.6 3.54 5.12 5.12 0 0 1 -.08 1.4 5.22 5.22 0 0 1 -.42 1.34 5.51 5.51 0 0 1 -5.2 3.25 5.63 5.63 0 0 1 -2.26-.53 5.51 5.51 0 0 1 -2.81-2.92 6 6 0 0 1 -.33-1.31 5.28 5.28 0 0 1 0-1.31 6 6 0 0 1 .56-2 4.6 4.6 0 0 1 1.14-1.56zm8.12-10.21c-.19 4.78-8.28 4.78-8.46 0-.82-8.19-2.92-27.63-2.85-35.32.07-2.37 2-3.78 4.55-4.31a11.65 11.65 0 0 1 2.48-.25 12.54 12.54 0 0 1 2.5.25c2.59.56 4.63 2 4.63 4.43v.26l-2.84 35z" fill="#010101"/></svg>